<svg width="70" height="70" viewBox="0 0 70 70" fill="none" xmlns="http://www.w3.org/2000/svg">
<path d="M45 37C46.1046 37 47 36.1046 47 35C47 33.8954 46.1046 33 45 33C43.8954 33 43 33.8954 43 35C43 36.1046 43.8954 37 45 37Z" fill="#00AF43"/>
<path fill-rule="evenodd" clip-rule="evenodd" d="M15 44C15 46.7098 17.0941 49 19.7895 49H48.2105C50.9059 49 53 46.7098 53 44V41H54C54.5523 41 55 40.5523 55 40V30C55 29.4477 54.5523 29 54 29H53V26C53 23.2902 50.9059 21 48.2105 21H19.7895C17.0941 21 15 23.2902 15 26V44ZM17 26C17 24.2915 18.2991 23 19.7895 23H21V47H19.7895C18.2991 47 17 45.7085 17 44V26ZM41 35C41 32.7909 42.7909 31 45 31H53V39H45C42.7909 39 41 37.2091 41 35ZM39 35C39 31.6863 41.6863 29 45 29H51V26C51 24.2915 49.7009 23 48.2105 23H23V47H48.2105C49.7009 47 51 45.7085 51 44V41H45C41.6863 41 39 38.3137 39 35Z" fill="#00AF43"/>
<circle opacity="0.16" cx="35" cy="35" r="35" fill="#00AF43"/>
</svg>
