<svg width="250" height="250" viewBox="0 0 250 250" fill="none" xmlns="http://www.w3.org/2000/svg">
<path d="M80.9369 221.904L192.642 214.666C198.718 214.273 203.324 209.029 202.93 202.953L194.526 73.2477C194.337 70.3302 192.997 67.6073 190.8 65.678L152.221 31.7934C150.024 29.8641 147.151 28.8864 144.234 29.0755L68.7601 33.9655C62.6848 34.3591 58.0789 39.6032 58.4725 45.6786L69.2238 211.616C69.6174 217.692 74.8616 222.297 80.9369 221.904Z" fill="#DFEEFD" stroke="#0051FF" stroke-width="2" stroke-linecap="round" stroke-linejoin="round"/>
<path d="M88.3592 108.641L83.8669 108.932L83.2 98.6401L87.5255 98.3599C89.2362 98.249 91.2839 98.3817 91.4307 100.649C91.5272 102.137 90.6525 102.864 89.6359 103.125L89.6377 103.153C90.9039 103.295 91.8884 103.831 91.9992 105.542C92.1443 107.781 90.0977 108.528 88.3592 108.641ZM86.0639 100.591L86.1919 102.566L87.5131 102.481C88.5145 102.416 88.8648 102.002 88.8261 101.404C88.7864 100.792 88.3866 100.441 87.413 100.504L86.0639 100.591ZM86.3162 104.486L86.4577 106.669L87.8485 106.579C88.8916 106.512 89.3105 106.079 89.2646 105.37C89.2186 104.661 88.7362 104.329 87.6792 104.397L86.3162 104.486ZM97.0926 101.301L96.2899 104.217L98.2509 104.09L97.1204 101.3L97.0926 101.301ZM95.2209 108.197L92.6896 108.361L95.664 97.7907L98.2509 97.6231L102.564 107.721L99.7549 107.903L99.0047 106.024L95.7641 106.234L95.2209 108.197ZM106.215 107.484L103.67 107.649L103.003 97.3571L105.743 97.1796L109.886 102.707L109.914 102.705L109.54 96.9336L112.085 96.7686L112.752 107.061L110.179 107.227L105.87 101.724L105.842 101.726L106.215 107.484ZM117.453 106.756L114.671 106.936L114.004 96.6443L116.786 96.4641L117.028 100.191L119.623 96.2802L122.85 96.0712L119.65 100.357L123.823 106.343L120.68 106.547L117.979 102.588L117.246 103.557L117.453 106.756ZM135.89 105.561L128.783 106.022L128.116 95.73L130.898 95.5497L131.42 103.603L135.745 103.322L135.89 105.561ZM144.635 104.995L137.055 105.486L136.388 95.194L143.731 94.7182L143.881 97.027L139.319 97.3226L139.427 98.9915L142.682 98.7807L142.822 100.95L139.568 101.161L139.691 103.067L144.489 102.756L144.635 104.995ZM151.04 104.58L148.258 104.76L147.741 96.7769L144.778 96.9688L144.629 94.6601L153.335 94.096L153.485 96.4047L150.522 96.5967L151.04 104.58ZM160.221 103.985L157.44 104.165L156.922 96.182L153.96 96.3739L153.81 94.0652L162.517 93.5011L162.666 95.8098L159.704 96.0018L160.221 103.985ZM171.962 103.224L164.382 103.715L163.715 93.4235L171.059 92.9477L171.208 95.2564L166.646 95.552L166.754 97.221L170.009 97.0101L170.15 99.1798L166.895 99.3906L167.018 101.296L171.817 100.985L171.962 103.224ZM175.551 94.9191L175.704 97.2696L176.9 97.1921C178.04 97.1182 178.52 96.7659 178.464 95.9036C178.408 95.0413 177.888 94.7678 176.747 94.8417L175.551 94.9191ZM176.072 102.958L173.346 103.135L172.679 92.8427L176.699 92.5822C179.341 92.411 181.011 93.1827 181.172 95.6583C181.276 97.2717 180.655 98.2477 179.336 98.7941L181.774 102.589L178.826 102.78L176.606 99.3341L175.841 99.3837L176.072 102.958Z" fill="#0051FF"/>
<path d="M100.49 54.676C100.427 54.2161 100.096 53.8313 99.6288 53.7595C97.2214 53.3895 94.7753 53.2989 92.341 53.4567C89.9066 53.6144 87.4924 54.0198 85.1531 54.6974C84.6994 54.8288 84.4206 55.2531 84.4178 55.7174C84.4056 57.7101 84.2495 62.8163 84.5997 64.8468C85.3988 69.4197 88.9203 72.1482 93.0169 73.3918C93.2187 73.4531 93.4193 73.5065 93.6304 73.547C93.6338 73.5457 93.639 73.5438 93.6426 73.5423C93.6464 73.5431 93.6518 73.5445 93.6553 73.5454C93.8594 73.478 94.0518 73.4007 94.2437 73.3124C98.1576 71.5769 101.285 68.3907 101.488 63.7526C101.573 61.6939 100.759 56.6503 100.49 54.676" fill="#0051FF"/>
<path d="M159.5 70.9412L191.82 68.8471C192.8 68.7836 193.214 67.5669 192.477 66.9189L151.035 30.5204C150.297 29.8723 149.144 30.4399 149.207 31.4199L151.301 63.7398C151.577 67.9926 155.248 71.2167 159.5 70.9412Z" fill="#ACD0FF" stroke="#0051FF" stroke-width="2" stroke-linecap="round" stroke-linejoin="round"/>
<rect x="88.3086" y="146.829" width="88.2696" height="7.74294" rx="3.87147" transform="rotate(-3.70709 88.3086 146.829)" fill="#5CA3FF"/>
<rect x="89.6094" y="166.918" width="88.2696" height="7.74294" rx="3.87147" transform="rotate(-3.70709 89.6094 166.918)" fill="#5CA3FF"/>
<rect x="86.9062" y="125.194" width="51.1034" height="7.74294" rx="3.87147" transform="rotate(-3.70709 86.9062 125.194)" fill="#5CA3FF"/>
<path d="M90.7832 223.151H202.723C208.811 223.151 213.746 218.215 213.746 212.127V82.1499C213.746 79.2263 212.585 76.4224 210.518 74.3551L174.21 38.0471C172.142 35.9798 169.338 34.8184 166.415 34.8184H90.7832C84.6951 34.8184 79.7598 39.7537 79.7598 45.8418V212.127C79.7598 218.215 84.6951 223.151 90.7832 223.151Z" fill="white" stroke="#0051FF" stroke-width="2" stroke-linecap="round" stroke-linejoin="round"/>
<path d="M105.513 110.605H101.011V100.291H105.346C107.06 100.291 109.095 100.556 109.095 102.828C109.095 104.319 108.175 104.988 107.144 105.183V105.211C108.398 105.434 109.346 106.034 109.346 107.748C109.346 109.992 107.255 110.605 105.513 110.605ZM103.743 102.424V104.403H105.067C106.07 104.403 106.447 104.013 106.447 103.413C106.447 102.8 106.07 102.424 105.095 102.424H103.743ZM103.743 106.326V108.514H105.137C106.182 108.514 106.628 108.11 106.628 107.399C106.628 106.689 106.168 106.326 105.109 106.326H103.743ZM114.703 103.845L113.713 106.703H115.678L114.73 103.845H114.703ZM112.389 110.605H109.852L113.504 100.25H116.096L119.748 110.605H116.933L116.305 108.682H113.058L112.389 110.605ZM123.406 110.605H120.855V100.291H123.601L127.378 106.075H127.406V100.291H129.956V110.605H127.378L123.434 104.835H123.406V110.605ZM134.667 110.605H131.88V100.291H134.667V104.027L137.511 100.291H140.744L137.274 104.361L141.051 110.605H137.901L135.462 106.48L134.667 107.399V110.605ZM153.143 110.605H146.021V100.291H148.809V108.361H153.143V110.605ZM161.906 110.605H154.31V100.291H161.669V102.605H157.098V104.277H160.359V106.452H157.098V108.361H161.906V110.605ZM168.325 110.605H165.537V102.605H162.569V100.291H171.293V102.605H168.325V110.605ZM177.526 110.605H174.738V102.605H171.769V100.291H180.494V102.605H177.526V110.605ZM189.291 110.605H181.695V100.291H189.054V102.605H184.482V104.277H187.744V106.452H184.482V108.361H189.291V110.605ZM193.41 102.549V104.905H194.608C195.751 104.905 196.253 104.584 196.253 103.72C196.253 102.856 195.751 102.549 194.608 102.549H193.41ZM193.41 110.605H190.678V100.291H194.706C197.354 100.291 198.971 101.169 198.971 103.65C198.971 105.267 198.288 106.201 196.936 106.661L199.124 110.605H196.169L194.176 107.023H193.41V110.605Z" fill="#0051FF"/>
<path d="M121.108 57.5372C121.075 57.0741 120.769 56.6687 120.308 56.5669C117.93 56.042 115.494 55.7935 113.055 55.7935C110.616 55.7935 108.18 56.042 105.802 56.5669C105.341 56.6687 105.035 57.0741 105.002 57.5372C104.861 59.5249 104.375 64.6104 104.594 66.6592C105.095 71.2743 108.433 74.2247 112.441 75.7306C112.638 75.8048 112.835 75.8711 113.043 75.9251C113.046 75.9241 113.052 75.9225 113.055 75.9212C113.059 75.9222 113.064 75.9241 113.068 75.9251C113.276 75.8711 113.473 75.8063 113.67 75.7306C117.688 74.2519 121.015 71.2745 121.517 66.6592C121.735 64.6104 121.249 59.5247 121.108 57.5372" fill="#0051FF"/>
<path d="M178.943 77.5838H211.331C212.313 77.5838 212.805 76.3964 212.11 75.702L173.108 36.7002C172.414 36.0057 171.227 36.4976 171.227 37.4797V69.8674C171.227 74.129 174.681 77.5838 178.943 77.5838Z" fill="#ACD0FF" stroke="#0051FF" stroke-width="2" stroke-linecap="round" stroke-linejoin="round"/>
<rect x="102.992" y="148.709" width="88.2696" height="7.74294" rx="3.87147" fill="#5CA3FF"/>
<rect x="102.992" y="168.841" width="88.2696" height="7.74294" rx="3.87147" fill="#5CA3FF"/>
<rect x="102.992" y="127.029" width="51.1034" height="7.74294" rx="3.87147" fill="#5CA3FF"/>
<path d="M39.4921 158.356H108.39C108.826 158.356 109.18 158.71 109.18 159.146V205.185C109.18 205.621 108.826 205.975 108.39 205.975H39.4921C39.0559 205.975 38.7022 205.621 38.7022 205.185V159.146C38.7022 158.71 39.0559 158.356 39.4921 158.356Z" fill="#DFEEFD" stroke="#0051FF" stroke-width="2" stroke-miterlimit="10" stroke-linejoin="round"/>
<path d="M36.3274 149.405C35.6178 149.803 35.9002 150.884 36.7137 150.884H114.836C115.645 150.884 115.931 149.812 115.229 149.409L76.6326 127.25C76.3915 127.111 76.0955 127.11 75.853 127.246L36.3274 149.405Z" fill="#ACD0FF" stroke="#0051FF" stroke-width="2" stroke-miterlimit="10" stroke-linejoin="round"/>
<path d="M76.3064 144.585C73.6543 144.585 71.498 142.438 71.498 139.798C71.498 137.16 73.6543 135.013 76.3064 135.013C78.9557 135.013 81.1119 137.16 81.1119 139.798C81.1119 142.438 78.9557 144.585 76.3064 144.585Z" fill="white" stroke="#0051FF" stroke-width="2" stroke-linejoin="round"/>
<path d="M76.3064 144.585C73.6543 144.585 71.498 142.438 71.498 139.798C71.498 137.16 73.6543 135.013 76.3064 135.013C78.9557 135.013 81.1119 137.16 81.1119 139.798C81.1119 142.438 78.9557 144.585 76.3064 144.585Z" stroke="#0051FF" stroke-width="2" stroke-miterlimit="10" stroke-linejoin="round"/>
<path d="M42.1942 157.136C41.7579 157.136 41.4043 157.489 41.4043 157.926V207.451C41.4043 207.887 41.7579 208.241 42.1942 208.241H50.7691C51.2053 208.241 51.559 207.887 51.559 207.451V180.01C51.559 175.81 54.8966 172.372 58.9787 172.372C63.0608 172.372 66.3998 175.81 66.3998 180.01V207.451C66.3998 207.887 66.7535 208.241 67.1897 208.241H85.1692C85.6054 208.241 85.9591 207.887 85.9591 207.451V180.01C85.9591 175.81 89.2995 172.372 93.3802 172.372C97.4623 172.372 100.801 175.81 100.801 180.01V207.451C100.801 207.887 101.155 208.241 101.591 208.241H111.003C111.44 208.241 111.793 207.887 111.793 207.451V157.926C111.793 157.489 111.44 157.136 111.003 157.136H42.1942Z" fill="#F2F6FF" stroke="#0051FF" stroke-width="2" stroke-miterlimit="10" stroke-linejoin="round"/>
<path d="M113.738 209.379C113.738 209.815 113.385 210.169 112.948 210.169H99.6635C99.2272 210.169 98.8736 209.815 98.8736 209.379V180.01C98.8736 176.862 96.4125 174.299 93.3896 174.299C90.3624 174.299 87.9028 176.862 87.9028 180.01V209.379C87.9028 209.815 87.5491 210.169 87.1129 210.169H65.262C64.8257 210.169 64.4721 209.815 64.4721 209.379V180.01C64.4721 176.862 62.0124 174.299 58.9867 174.299C55.9623 174.299 53.5013 176.862 53.5013 180.01V209.379C53.5013 209.815 53.1476 210.169 52.7113 210.169H40.2665C39.8302 210.169 39.4766 209.815 39.4766 209.379V156C39.4766 155.564 39.8302 155.21 40.2665 155.21H112.948C113.385 155.21 113.738 155.564 113.738 156V209.379Z" fill="white" stroke="#0051FF" stroke-width="2" stroke-miterlimit="10" stroke-linejoin="round"/>
<path d="M40.6749 212.49H39.377C37.3809 212.49 35.875 210.515 35.875 207.898V157.499C35.875 157.063 36.2287 156.709 36.6649 156.709H43.3884C43.8246 156.709 44.1783 157.063 44.1783 157.499V207.898C44.1783 210.515 42.6724 212.49 40.6749 212.49Z" fill="#F2F6FF" stroke="#0051FF" stroke-width="2" stroke-miterlimit="10" stroke-linejoin="round"/>
<path d="M76.815 212.49H75.517C73.5195 212.49 72.0137 210.515 72.0137 207.898V157.499C72.0137 157.063 72.3673 156.709 72.8036 156.709H79.527C79.9633 156.709 80.317 157.063 80.317 157.499V207.898C80.317 210.515 78.8111 212.49 76.815 212.49Z" fill="#F2F6FF" stroke="#0051FF" stroke-width="2" stroke-miterlimit="10" stroke-linejoin="round"/>
<path d="M113.08 212.49H111.783C109.786 212.49 108.281 210.515 108.281 207.898V157.499C108.281 157.063 108.635 156.709 109.071 156.709H115.795C116.231 156.709 116.585 157.063 116.585 157.499V207.898C116.585 210.515 115.079 212.49 113.08 212.49Z" fill="#F2F6FF" stroke="#0051FF" stroke-width="2" stroke-miterlimit="10" stroke-linejoin="round"/>
<path d="M35.5672 208.241H117.65C118.086 208.241 118.439 208.595 118.439 209.031V214.182C118.439 214.618 118.086 214.972 117.65 214.972H35.5672C35.131 214.972 34.7773 214.618 34.7773 214.182V209.031C34.7773 208.595 35.131 208.241 35.5672 208.241Z" fill="#F2F6FF" stroke="#0051FF" stroke-width="2" stroke-miterlimit="10" stroke-linejoin="round"/>
<path d="M33.6269 206.314H119.579C120.015 206.314 120.369 206.668 120.369 207.104V216.108C120.369 216.545 120.015 216.898 119.579 216.898H33.6269C33.1907 216.898 32.837 216.545 32.837 216.108V207.104C32.837 206.668 33.1907 206.314 33.6269 206.314Z" fill="#F2F6FF" stroke="#0051FF" stroke-width="2" stroke-miterlimit="10" stroke-linejoin="round"/>
<path d="M29.5509 214.076H123.823C124.26 214.076 124.613 214.43 124.613 214.866V220.993C124.613 221.429 124.26 221.783 123.823 221.783H29.5509C29.1147 221.783 28.761 221.429 28.761 220.993V214.866C28.761 214.43 29.1147 214.076 29.5509 214.076Z" fill="#F2F6FF" stroke="#0051FF" stroke-width="2" stroke-miterlimit="10" stroke-linejoin="round"/>
<path d="M27.6106 212.147H125.753C126.189 212.147 126.543 212.501 126.543 212.937V222.922C126.543 223.358 126.189 223.712 125.753 223.712H27.6106C27.1744 223.712 26.8207 223.358 26.8207 222.922V212.937C26.8207 212.501 27.1744 212.147 27.6106 212.147Z" fill="#DFEEFD" stroke="#0051FF" stroke-width="2" stroke-miterlimit="10" stroke-linejoin="round"/>
<path d="M28.0648 150.098H123.823C124.26 150.098 124.613 150.451 124.613 150.888V159.141C124.613 159.577 124.26 159.93 123.823 159.93H28.0648C27.6285 159.93 27.2749 159.577 27.2749 159.141V150.888C27.2749 150.451 27.6285 150.098 28.0648 150.098Z" fill="#F2F6FF" stroke="#0051FF" stroke-width="2" stroke-miterlimit="10" stroke-linejoin="round"/>
<path d="M105.13 219.733C105.114 219.465 105.114 219.197 105.13 218.93C105.135 218.082 105.349 217.249 105.752 216.501C106.155 215.753 106.736 215.113 107.445 214.636C108.225 214.112 109.123 213.784 110.06 213.679C110.998 213.574 111.947 213.696 112.826 214.034C113.857 212.428 115.343 211.157 117.101 210.38C118.858 209.602 120.808 209.353 122.708 209.662C124.608 209.972 126.373 210.827 127.784 212.121C129.196 213.414 130.19 215.09 130.643 216.937H130.925C131.836 216.935 132.739 217.111 133.581 217.454C134.424 217.797 135.19 218.3 135.835 218.936C136.48 219.571 136.992 220.326 137.341 221.157C137.69 221.988 137.87 222.879 137.87 223.779H100.672C100.877 222.722 101.421 221.758 102.224 221.029C103.027 220.3 104.046 219.846 105.13 219.733Z" fill="white" stroke="#0051FF" stroke-width="2" stroke-linecap="round" stroke-linejoin="round"/>
<path d="M37.1767 220.853C37.1889 220.658 37.1889 220.462 37.1767 220.267C37.1707 219.656 37.0106 219.055 36.7101 218.516C36.4096 217.976 35.9776 217.514 35.4507 217.169C34.8695 216.793 34.2019 216.557 33.5048 216.481C32.8077 216.405 32.1018 216.491 31.4472 216.733C30.6794 215.575 29.5727 214.659 28.265 214.099C26.9573 213.539 25.5064 213.36 24.093 213.584C22.6797 213.808 21.3664 214.425 20.3168 215.358C19.2672 216.292 18.5276 217.5 18.1902 218.833H17.9745C17.2966 218.833 16.6254 218.961 15.9993 219.21C15.3732 219.458 14.8045 219.823 14.3257 220.282C13.8469 220.742 13.4675 221.287 13.2092 221.887C12.9509 222.487 12.8188 223.13 12.8203 223.779H40.5209C40.371 223.01 39.9636 222.308 39.3602 221.78C38.7569 221.252 37.9904 220.927 37.1767 220.853Z" fill="white" stroke="#0051FF" stroke-width="2" stroke-linecap="round" stroke-linejoin="round"/>
</svg>
