<svg xmlns="http://www.w3.org/2000/svg" viewBox="0 0 650 716" xmlns:v="https://vecta.io/nano"><path d="M645.9 142.2c0-20.3-8.5-39.3-24-53.8-14.8-13.7-34.4-21.2-55-21.2-43.6 0-79 33.7-79 75v17.6c-7.3-2.3-14.9-3.7-22.7-3.7-12.7 0-24.7 3.1-35.1 8.5-3.1-13.6-10.3-26-21.2-36-14.3-13-32.9-20.1-52.5-20.1s-15.5 1.2-22.7 3.3v-8.4c0-20.5-8.5-39.6-24-53.8-16.2-14.9-37.6-22.4-60.1-21-41.5 2.4-73.9 36.2-73.9 76.8v333.8l-38.4-35.4c-14.8-13.7-34.4-21.2-55-21.2s-37.8 6.6-52.2 18.7C13.9 414.9 4.7 433.9 4.2 455c-.5 21.9 8.6 43.1 25 58.3l133.6 123.2c34.3 31.6 79.8 49.7 128 50.7l213.1.6c77.4 0 140.3-59 140.3-131.8l-1.6-173.9 3.2-239.7zM588 556.1c0 41.5-37.7 75.3-84 75.3H316.7l-24.5-.5c-34.5-.8-66.9-13.5-91.1-35.8L67.5 471.9c-4.5-4.2-7.1-9.9-6.9-15.5 0-3.3 1.2-8 5.8-11.9 8.9-7.4 24.4-7.1 33 .7l84.5 77.9 14.3 12.6 34.1-15.3V105.3c0-10.7 9.4-19.9 21-20.6 7.2-.4 13.8 1.8 18.6 6.2 2.7 2.5 5.8 6.6 5.8 12.5v278.1H334V169c4.5-6.7 13-11.3 22.7-11.3s14.2 2.6 19.3 7.2c4.5 4.1 7 9.5 7 15.1v201.6h54V225.3c0-13.6 12.8-24.6 28.6-24.6s15.4 2.8 20.9 7.8c.7.6 1.2 1.4 1.8 2.1v171h56.3V142.3c0-10.3 10.2-18.8 22.7-18.8s12.5 2.2 16.7 6.2c2.7 2.5 6 6.8 6 12.2l-3.2 239.9 1.6 174.3z" fill="#00af43"/></svg>