<svg width="250" height="250" viewBox="0 0 250 250" fill="none" xmlns="http://www.w3.org/2000/svg">
<rect x="13" y="21" width="220.653" height="159.029" rx="11.0688" fill="#F2F6FF" stroke="#0051FF" stroke-width="2"/>
<path d="M19.6406 35.027C19.6406 30.9455 22.9494 27.6367 27.0309 27.6367H218.802C222.883 27.6367 226.192 30.9455 226.192 35.027V146.258H19.6406V35.027Z" fill="white"/>
<path d="M12.9998 154.187H233.653V168.96C233.653 175.073 228.697 180.029 222.584 180.029H24.0686C17.9554 180.029 12.9998 175.073 12.9998 168.96V154.187Z" fill="#ACD0FF" stroke="#0051FF" stroke-width="2"/>
<path d="M95.1999 197.92H151.452L159.336 212.547C160.131 214.021 159.063 215.811 157.387 215.811H89.2647C87.5892 215.811 86.521 214.021 87.316 212.547L95.1999 197.92Z" fill="#ACD0FF" stroke="#0051FF" stroke-width="2"/>
<circle cx="123.326" cy="167.108" r="4.96966" fill="#5CA3FF" stroke="#0051FF" stroke-width="2"/>
<rect x="95.4961" y="180.029" width="55.6602" height="17.8908" fill="#5CA3FF" stroke="#0051FF" stroke-width="2"/>
<rect x="98.7793" y="99.9282" width="48.7101" height="22.855" rx="3.34303" fill="#DFEEFD"/>
<rect x="98.7793" y="99.9282" width="48.7101" height="22.855" rx="3.34303" stroke="#0051FF" stroke-width="2"/>
<path d="M112.288 114.495C110.605 114.495 109.599 113.738 108.971 112.732L110.445 111.816C110.884 112.523 111.611 112.931 112.378 112.931C112.986 112.931 113.444 112.752 113.444 112.294C113.444 111.826 112.856 111.646 112.129 111.467C110.924 111.158 109.32 110.849 109.32 109.176C109.32 107.672 110.455 106.845 112.129 106.845C113.693 106.845 114.629 107.572 115.217 108.289L113.882 109.385C113.474 108.887 112.757 108.459 112.119 108.459C111.551 108.459 111.262 108.648 111.262 108.996C111.262 109.485 111.84 109.664 112.567 109.843C113.773 110.132 115.387 110.501 115.387 112.154C115.387 113.33 114.56 114.495 112.288 114.495ZM121.882 114.356H116.452V106.984H121.712V108.638H118.445V109.833H120.776V111.387H118.445V112.752H121.882V114.356ZM124.696 114.356H122.873V106.984H124.836L127.535 111.118H127.555V106.984H129.378V114.356H127.535L124.716 110.232H124.696V114.356ZM133.174 114.356H130.753V106.984H133.174C135.366 106.984 137.228 107.821 137.228 110.62C137.228 113.519 135.336 114.356 133.174 114.356ZM132.736 108.638V112.752H133.283C134.788 112.752 135.236 112.134 135.236 110.64C135.236 109.275 134.778 108.638 133.264 108.638H132.736Z" fill="#0051FF"/>
<rect width="31.8354" height="9.1833" rx="2.33942" transform="matrix(-1 0 0 1 217.216 170.183)" fill="#77B1FF" stroke="#0051FF" stroke-width="2" stroke-linejoin="round"/>
<rect width="31.8354" height="9.1833" rx="2.33942" transform="matrix(-1 0 0 1 212.931 179.367)" fill="#77B1FF" stroke="#0051FF" stroke-width="2" stroke-linejoin="round"/>
<rect width="31.8354" height="9.1833" rx="2.33942" transform="matrix(-1 0 0 1 212.931 161)" fill="#77B1FF" stroke="#0051FF" stroke-width="2" stroke-linejoin="round"/>
<rect width="31.8354" height="9.1833" rx="2.33942" transform="matrix(-1 0 0 1 212.931 188.549)" fill="#77B1FF" stroke="#0051FF" stroke-width="2" stroke-linejoin="round"/>
<rect width="31.8354" height="9.1833" rx="2.33942" transform="matrix(-1 0 0 1 212.931 197.733)" fill="#77B1FF" stroke="#0051FF" stroke-width="2" stroke-linejoin="round"/>
<rect width="31.8354" height="9.1833" rx="2.33942" transform="matrix(-1 0 0 1 212.931 206.916)" fill="#77B1FF" stroke="#0051FF" stroke-width="2" stroke-linejoin="round"/>
<rect width="31.8354" height="9.1833" rx="2.33942" transform="matrix(-1 0 0 1 238.644 206.916)" fill="#77B1FF" stroke="#0051FF" stroke-width="2" stroke-linejoin="round"/>
<rect width="31.8354" height="9.1833" rx="2.33942" transform="matrix(-1 0 0 1 238.644 188.549)" fill="#77B1FF" stroke="#0051FF" stroke-width="2" stroke-linejoin="round"/>
<path d="M196.777 188.115C198.518 191.543 199.203 195.411 198.746 199.229C198.288 203.047 196.709 206.644 194.208 209.564C191.706 212.485 188.395 214.599 184.692 215.637C180.99 216.676 177.062 216.592 173.407 215.399C169.751 214.205 166.532 211.954 164.156 208.93C161.78 205.907 160.353 202.248 160.057 198.414C159.761 194.58 160.609 190.743 162.493 187.391C164.377 184.039 167.213 181.32 170.642 179.58C175.24 177.247 180.575 176.836 185.476 178.436C190.377 180.037 194.442 183.518 196.777 188.115Z" fill="#5CA3FF" stroke="#0051FF" stroke-width="2" stroke-linejoin="round"/>
<path d="M191.239 198.336C191.518 196.001 191.099 193.636 190.034 191.54C188.607 188.731 186.122 186.604 183.127 185.626C180.132 184.648 176.872 184.9 174.062 186.325C171.965 187.388 170.231 189.05 169.078 191.099C167.926 193.149 167.407 195.493 167.588 197.837C167.768 200.181 168.64 202.42 170.093 204.268C171.545 206.117 173.513 207.493 175.748 208.223C177.983 208.952 180.384 209.003 182.648 208.368C184.912 207.733 186.936 206.44 188.466 204.655C189.995 202.869 190.96 200.67 191.239 198.336Z" fill="#F2F6FF" stroke="#0051FF" stroke-width="2"/>
<rect width="31.8354" height="9.1833" rx="2.33942" transform="matrix(-1 0 0 1 242.317 197.733)" fill="#77B1FF" stroke="#0051FF" stroke-width="2" stroke-linejoin="round"/>
<rect x="6.10323" y="128.103" width="77.7935" height="86.3957" rx="4.91828" fill="#F2F6FF" stroke="#0051FF" stroke-width="2.20645"/>
<rect x="16.3806" y="138.425" width="57.1484" height="31.3419" rx="2.33764" fill="white" stroke="#0051FF" stroke-width="2.20645"/>
<path d="M33.6512 149.042L31.8512 154.247H35.4512L33.6812 149.042H33.6512ZM30.3512 158.582H29.0762L33.0062 147.437H34.3862L38.3162 158.582H36.9512L35.8562 155.402H31.4462L30.3512 158.582ZM42.7688 158.582H41.4488V148.697H37.9238V147.482H46.3088V148.697H42.7688V158.582ZM49.3696 158.582H48.1546V147.482H49.8796L53.3746 156.917H53.4046L56.8396 147.482H58.5946V158.582H57.2896V149.597H57.2596C57.1096 150.182 56.8396 150.902 56.5846 151.637L53.9296 158.582H52.7446L50.0896 151.637C49.8196 150.902 49.6396 150.437 49.3996 149.552H49.3696V158.582Z" fill="#0051FF"/>
<path d="M12.4274 140.763C12.4274 139.472 13.474 138.425 14.7651 138.425H17.9629V169.767H14.7651C13.474 169.767 12.4274 168.721 12.4274 167.43V140.763Z" fill="#ACD0FF" stroke="#0051FF" stroke-width="2.20645"/>
<path d="M77.5745 167.429C77.5745 168.72 76.5279 169.767 75.2369 169.767L72.039 169.767L72.039 138.425L75.2369 138.425C76.5279 138.425 77.5745 139.472 77.5745 140.763L77.5745 167.429Z" fill="#ACD0FF" stroke="#0051FF" stroke-width="2.20645"/>
<path d="M53.2292 184.797C53.2292 185.406 52.7352 185.9 52.1259 185.9H48.0407C47.4314 185.9 46.9375 185.406 46.9375 184.797V180.712C46.9375 180.102 47.4314 179.608 48.0407 179.608H52.1259C52.7352 179.608 53.2292 180.102 53.2292 180.712V184.797Z" fill="#3187F8"/>
<path d="M62.9694 184.797C62.9694 185.406 62.4755 185.9 61.8662 185.9H57.781C57.1717 185.9 56.6777 185.406 56.6777 184.797V180.712C56.6777 180.102 57.1717 179.608 57.781 179.608H61.8662C62.4755 179.608 62.9694 180.102 62.9694 180.712V184.797Z" fill="#3187F8"/>
<path d="M72.7081 184.883C72.7081 185.492 72.2142 185.986 71.6049 185.986H67.5192C66.9099 185.986 66.416 185.492 66.416 184.883V180.798C66.416 180.188 66.9099 179.694 67.5192 179.694H71.6049C72.2142 179.694 72.7081 180.188 72.7081 180.798V184.883Z" fill="#3187F8"/>
<path d="M53.2294 194.623C53.2294 195.233 52.7355 195.727 52.1262 195.727H48.041C47.4317 195.727 46.9377 195.233 46.9377 194.623V190.538C46.9377 189.929 47.4317 189.435 48.041 189.435H52.1262C52.7355 189.435 53.2294 189.929 53.2294 190.538V194.623Z" fill="#3187F8"/>
<path d="M62.9694 194.623C62.9694 195.233 62.4755 195.727 61.8662 195.727H57.781C57.1717 195.727 56.6777 195.233 56.6777 194.623V190.538C56.6777 189.929 57.1717 189.435 57.781 189.435H61.8662C62.4755 189.435 62.9694 189.929 62.9694 190.538V194.623Z" fill="#3187F8"/>
<path d="M72.7077 194.709C72.7077 195.318 72.2137 195.812 71.6045 195.812H67.5192C66.9099 195.812 66.416 195.318 66.416 194.709V190.624C66.416 190.014 66.9099 189.521 67.5192 189.521H71.6045C72.2137 189.521 72.7077 190.014 72.7077 190.624V194.709Z" fill="#3187F8"/>
<path d="M53.1432 204.448C53.1432 205.057 52.6493 205.551 52.04 205.551H47.9548C47.3455 205.551 46.8516 205.057 46.8516 204.448V200.363C46.8516 199.754 47.3455 199.26 47.9548 199.26H52.04C52.6493 199.26 53.1432 199.754 53.1432 200.363V204.448Z" fill="#2DB56C"/>
<path d="M62.8835 204.448C62.8835 205.057 62.3895 205.551 61.7802 205.551H57.695C57.0857 205.551 56.5918 205.057 56.5918 204.448V200.363C56.5918 199.754 57.0857 199.26 57.695 199.26H61.7802C62.3895 199.26 62.8835 199.754 62.8835 200.363V204.448Z" fill="#3187F8"/>
<path d="M72.6217 204.535C72.6217 205.144 72.1278 205.638 71.5185 205.638H67.4333C66.824 205.638 66.3301 205.144 66.3301 204.535V200.449C66.3301 199.84 66.824 199.346 67.4333 199.346H71.5185C72.1278 199.346 72.6217 199.84 72.6217 200.449V204.535Z" fill="#EA424C"/>
<path d="M37.8007 191.069H17.1152V194.517H37.8007V191.069Z" fill="#ACD0FF" stroke="#0051FF" stroke-width="2.20645" stroke-miterlimit="10" stroke-linecap="round" stroke-linejoin="round"/>
<path d="M37.8027 182.45H17.1172V183.312H37.8027V182.45Z" fill="#0051FF" stroke="#0051FF" stroke-width="2.20645" stroke-miterlimit="10" stroke-linecap="round" stroke-linejoin="round"/>
<path d="M27.3214 184.174C29.1494 184.174 30.6311 183.595 30.6311 182.881C30.6311 182.167 29.1494 181.588 27.3214 181.588C25.4934 181.588 24.0117 182.167 24.0117 182.881C24.0117 183.595 25.4934 184.174 27.3214 184.174Z" fill="#0051FF" stroke="#0051FF" stroke-width="2.20645" stroke-miterlimit="10" stroke-linecap="round" stroke-linejoin="round"/>
<path d="M74.7028 83.3772L71.002 83.4782" stroke="white" stroke-width="4" stroke-linecap="round" stroke-linejoin="round"/>
<path d="M87.0371 83.0401L77.7852 83.2927" stroke="white" stroke-width="4" stroke-linecap="round" stroke-linejoin="round"/>
<path d="M87.0836 70.5191L80.2989 70.7043" stroke="white" stroke-width="4" stroke-linecap="round" stroke-linejoin="round"/>
<path d="M87.1285 58.5218L77.2598 58.7912" stroke="white" stroke-width="4" stroke-linecap="round" stroke-linejoin="round"/>
<path d="M74.7028 83.3772L71.002 83.4782" stroke="#0051FF" stroke-width="1.5" stroke-linecap="round" stroke-linejoin="round"/>
<path d="M87.0371 83.0401L77.7852 83.2927" stroke="#0051FF" stroke-width="1.5" stroke-linecap="round" stroke-linejoin="round"/>
<path d="M87.0836 70.5191L80.2989 70.7043" stroke="#0051FF" stroke-width="1.5" stroke-linecap="round" stroke-linejoin="round"/>
<path d="M87.1285 58.5218L77.2598 58.7912" stroke="#0051FF" stroke-width="1.5" stroke-linecap="round" stroke-linejoin="round"/>
<rect x="95.3508" y="54.6084" width="62.6078" height="33.7119" rx="2.40799" transform="rotate(-7.90292 95.3508 54.6084)" fill="#DFEEFD" stroke="#0051FF" stroke-width="1.5" stroke-linecap="round" stroke-linejoin="round"/>
<path d="M145.735 60.3569L146.71 67.3867" stroke="#0051FF" stroke-width="1.5" stroke-linecap="round" stroke-linejoin="round"/>
<path d="M112.343 64.9922L113.419 72.7439" stroke="#0051FF" stroke-width="1.5" stroke-linecap="round" stroke-linejoin="round"/>
<circle cx="9.63198" cy="9.63198" r="9.63198" transform="matrix(-0.990502 0.137495 0.137495 0.990502 136.891 56.1353)" fill="#DFEEFD"/>
<circle cx="6.62198" cy="6.62198" r="6.62198" transform="matrix(-0.990502 0.137495 0.137495 0.990502 134.324 59.5308)" fill="white" stroke="#0051FF" stroke-width="1.5" stroke-linecap="round" stroke-linejoin="round"/>
<path d="M160.592 69.2554C154.994 70.0325 151.085 75.2009 151.862 80.7993L159.614 79.7232C160.931 79.5404 161.851 78.3243 161.668 77.007L160.592 69.2554Z" fill="#ACD0FF" stroke="#0051FF" stroke-width="1.5" stroke-linejoin="round"/>
<path d="M110.123 86.5933C109.346 80.9949 104.178 77.0865 98.5794 77.8636L99.6554 85.6153C99.8383 86.9325 101.054 87.8521 102.372 87.6693L110.123 86.5933Z" fill="#DFEEFD" stroke="#0051FF" stroke-width="1.5" stroke-linejoin="round"/>
<path d="M96.7581 64.7456C102.356 63.9685 106.265 58.8001 105.488 53.2017L97.7361 54.2777C96.4188 54.4606 95.4992 55.6767 95.682 56.994L96.7581 64.7456Z" fill="#DFEEFD" stroke="#0051FF" stroke-width="1.5" stroke-linejoin="round"/>
<path d="M147.228 47.4072C148.005 53.0056 153.173 56.914 158.771 56.1369L157.695 48.3852C157.513 47.068 156.296 46.1483 154.979 46.3312L147.228 47.4072Z" fill="#ACD0FF" stroke="#0051FF" stroke-width="1.5" stroke-linejoin="round"/>
<rect x="92.3408" y="53.8262" width="62.6078" height="33.7119" rx="2.40799" fill="#DFEEFD" stroke="#0051FF" stroke-width="1.5" stroke-linecap="round" stroke-linejoin="round"/>
<path d="M140.501 66.4473V73.5444" stroke="#0051FF" stroke-width="1.5" stroke-linecap="round" stroke-linejoin="round"/>
<path d="M106.789 66.4473V74.2733" stroke="#0051FF" stroke-width="1.5" stroke-linecap="round" stroke-linejoin="round"/>
<circle cx="9.63198" cy="9.63198" r="9.63198" transform="matrix(-1 0 0 1 133.276 61.0498)" fill="#DFEEFD"/>
<circle cx="6.62198" cy="6.62198" r="6.62198" transform="matrix(-1 0 0 1 130.267 64.0601)" fill="white" stroke="#0051FF" stroke-width="1.5" stroke-linecap="round" stroke-linejoin="round"/>
<path d="M154.948 77.3037C149.296 77.3037 144.714 81.8856 144.714 87.5377H152.54C153.87 87.5377 154.948 86.4596 154.948 85.1297V77.3037Z" fill="#ACD0FF" stroke="#0051FF" stroke-width="1.5" stroke-linejoin="round"/>
<path d="M102.575 87.5381C102.575 81.886 97.9933 77.3041 92.3412 77.3041L92.3412 85.1301C92.3412 86.46 93.4193 87.5381 94.7492 87.5381L102.575 87.5381Z" fill="#ACD0FF" stroke="#0051FF" stroke-width="1.5" stroke-linejoin="round"/>
<path d="M92.3408 64.0601C97.9929 64.0601 102.575 59.4782 102.575 53.8261L94.7488 53.8261C93.4189 53.8261 92.3408 54.9042 92.3408 56.2341L92.3408 64.0601Z" fill="#ACD0FF" stroke="#0051FF" stroke-width="1.5" stroke-linejoin="round"/>
<path d="M144.715 53.8262C144.715 59.4782 149.297 64.0601 154.949 64.0601L154.949 56.2342C154.949 54.9043 153.87 53.8262 152.541 53.8262L144.715 53.8262Z" fill="#ACD0FF" stroke="#0051FF" stroke-width="1.5" stroke-linejoin="round"/>
</svg>
