<svg width="329" height="350" viewBox="0 0 329 350" fill="none" xmlns="http://www.w3.org/2000/svg">
<path d="M220.61 112.23H108.29C52.9 112.23 8 157.13 8 212.52C8 267.91 52.9 312.81 108.29 312.81H188.98V338.61C188.98 341.9 193.07 343.41 195.21 340.92L226.81 312.6C279.3 309.39 320.89 265.82 320.89 212.52C320.89 159.22 275.99 112.23 220.6 112.23H220.61Z" fill="#0051FF" stroke="#00008C" stroke-width="15"/>
<path d="M29 147.501C29 139.719 38.9481 132.853 39.9684 125.529C41.2438 117.976 33.8464 108.821 36.1421 101.726C38.4379 94.4023 50.1718 90.0537 53.743 83.4165C57.3141 76.5503 53.2327 65.7935 57.8242 59.614C62.6708 53.2056 75.1699 52.519 80.7817 47.0261C86.6486 41.5331 86.6486 30.0889 93.5359 25.7403C100.423 21.1629 112.412 24.5962 120.065 21.392C127.717 18.1878 132.819 7.88832 140.981 6.28622C149.144 4.68411 158.582 12.008 167 12.008C175.673 12.008 184.856 4.45524 193.018 6.28622C201.181 7.88832 206.283 18.1878 213.935 21.392C221.588 24.5962 233.577 21.1629 240.464 25.7403C247.096 30.0889 247.351 41.5331 253.218 47.0261C258.83 52.519 271.584 53.2056 276.175 59.614C280.767 65.7935 276.686 76.5503 280.257 83.4165C283.828 90.2826 295.307 94.4023 297.858 101.726C300.153 108.821 292.756 117.976 294.031 125.529C295.052 132.853 305 139.948 305 147.501C305 155.053 295.052 162.149 294.031 169.472C292.756 177.025 300.153 186.18 297.858 193.275C295.562 200.599 283.828 204.947 280.257 211.585C276.686 218.451 280.767 229.208 276.175 235.387C271.329 241.796 258.83 242.482 253.218 247.975C247.351 253.468 247.351 264.911 240.464 269.26C233.577 273.837 221.588 270.405 213.935 273.609C206.283 276.813 201.181 287.112 193.018 288.714C184.856 290.316 175.418 282.992 167 282.992C158.327 282.992 149.144 290.545 140.981 288.714C132.819 287.112 127.717 276.584 120.065 273.609C112.412 270.405 100.423 273.837 93.5359 269.26C86.9037 264.911 86.6486 253.468 80.7817 247.975C75.1699 242.482 62.4157 241.796 57.8242 235.387C53.2327 229.208 57.3141 218.451 53.743 211.585C50.1718 204.718 38.693 200.599 36.1421 193.275C33.8464 186.18 41.2438 177.025 39.9684 169.472C38.693 162.149 29 155.053 29 147.501Z" fill="#3381E7" stroke="#00008C" stroke-width="11"/>
<path d="M287.64 286.09C271.33 300.78 250.14 310.15 226.82 311.58L195.22 339.91C193.07 342.41 188.98 340.88 188.98 337.6V311.8H108.29C82.52 311.8 59.01 302.07 41.25 286.08C58.76 261.07 81.94 240.92 164.46 240.92C246.98 240.92 270.16 261.06 287.64 286.08V286.09Z" fill="white"/>
<path d="M138.13 200.18V253.71C138.13 259.05 142.46 263.37 147.79 263.37H181.11C186.45 263.37 190.77 259.04 190.77 253.71V200.18H138.12H138.13Z" fill="#C1854D"/>
<path d="M190.39 251.41V262.81H137.75V251.58C127.61 253.76 121.08 257.15 121.08 260.97C121.08 267.55 140.5 272.89 164.45 272.89C188.4 272.89 207.82 267.55 207.82 260.97C207.82 257.06 200.97 253.59 190.38 251.42L190.39 251.41Z" fill="#00008C"/>
<path d="M143.26 253.72V228L133 226.97V253.72C133 256.18 133.61 258.5 134.68 260.54L143.67 255.59C143.41 255.02 143.26 254.39 143.26 253.72Z" fill="#00008C"/>
<path d="M185.65 231.04V253.72C185.65 256.22 183.62 258.26 181.12 258.26H147.8C145.97 258.26 144.39 257.16 143.68 255.59L134.69 260.54C137.16 265.27 142.11 268.51 147.8 268.51H181.12C189.28 268.51 195.91 261.87 195.91 253.72V229.24L185.65 231.04Z" fill="#00008C"/>
<path fill-rule="evenodd" clip-rule="evenodd" d="M251.796 131.482C251.796 190.696 197.788 236 163.985 236C130.182 236 76.1738 190.696 76.1738 131.482C76.1738 72.2675 107.934 95.0002 155 95.0002C202.066 95.0002 251.796 72.2675 251.796 131.482Z" fill="#C1854D" stroke="#00008C" stroke-width="11.99" stroke-linejoin="round"/>
<path d="M222.269 130.626H255.035L265 121.465L261.5 101L245.5 64L218.5 36.5L197.5 22L161 18.5L141 21L112 35L89 53.5L71.5 91.5H136.5L167.246 97.0371H175.283C176.208 99.4075 177.442 101.777 178.676 104.147L178.683 104.161L178.693 104.177C179.926 106.208 181.159 108.237 182.392 109.929C182.702 110.608 183.32 110.947 183.629 111.626C184.247 112.304 184.865 113.323 185.484 114.001C186.411 115.019 187.029 116.036 187.957 116.715C188.575 117.394 189.193 117.733 189.811 118.411C190.43 118.751 191.048 119.429 191.666 119.768C192.284 120.447 193.212 120.786 193.83 121.465C202.176 127.232 212.068 130.626 222.269 130.626Z" fill="#3381E7"/>
<path d="M264 126.573L255.035 129.626H222.269C212.068 129.626 202.176 126.232 193.83 120.465C193.212 119.786 192.284 119.447 191.666 118.768C191.048 118.429 190.43 117.751 189.811 117.411C189.193 116.733 188.575 116.394 187.957 115.715C187.029 115.036 186.411 114.019 185.484 113.001C184.865 112.323 184.247 111.304 183.629 110.626C183.32 109.947 182.702 109.608 182.392 108.929C181.156 107.233 179.92 105.196 178.683 103.161C177.447 100.786 176.21 98.4121 175.283 96.0371C175.283 96.0371 172.192 96.0371 167.246 96.0371H97.3847H89C79.9999 101 76.5001 115.715 76.5 129" stroke="#00008C" stroke-width="10" stroke-linecap="round" stroke-linejoin="round"/>
<rect x="83" y="289" width="47" height="26" rx="6" fill="#0051FF" stroke="#00008C" stroke-width="10"/>
<path d="M291.85 283.15C276.48 261.14 256.85 241.14 192.69 236.72L192.24 246.97C247.92 250.87 267.13 266.94 280.73 285.26C265.41 297.75 246.33 305.24 226.51 306.46L224.73 306.57L194.12 334.02V306.67H108.3C86.3 306.67 65.12 299.1 48.17 285.26C61.86 266.85 81.2 250.7 137.54 246.9L137.78 236.61C72.42 240.82 52.57 260.96 37.05 283.14L34.45 286.86L37.8199 289.9C57.1899 307.33 82.22 316.93 108.29 316.93H183.85V337.6C183.85 341.26 186.07 344.45 189.5 345.73C190.51 346.1 191.54 346.29 192.56 346.29C194.9 346.29 197.16 345.34 198.84 343.56L228.93 316.58C251.93 314.76 273.94 305.33 291.07 289.91L294.44 286.88L291.84 283.16L291.85 283.15Z" fill="#00008C"/>
<rect x="245" y="119" width="25" height="65" rx="12.5" fill="#02070D" stroke="#02070D" stroke-width="11.99" stroke-linejoin="round"/>
<rect x="190" y="197" width="16" height="25" rx="8" transform="rotate(90 190 197)" fill="#02070D" stroke="#02070D" stroke-width="11.99" stroke-linejoin="round"/>
<rect x="56" y="119" width="25" height="65" rx="12.5" fill="#02070D" stroke="#02070D" stroke-width="11.99" stroke-linejoin="round"/>
<path d="M250 167L214.773 197.768C211.979 200.208 208.563 201.823 204.904 202.433L177.5 207" stroke="#02070D" stroke-width="11.99" stroke-linejoin="round"/>
<path d="M69.5 125V125C69.5 79.1604 106.66 42 152.5 42H179.5C225.34 42 262.5 79.1604 262.5 125V125" stroke="#02070D" stroke-width="11.99" stroke-linejoin="round"/>
</svg>
