<svg width="250" height="250" viewBox="0 0 250 250" fill="none" xmlns="http://www.w3.org/2000/svg">
<path d="M69 30.3567C69 25.1892 73.1892 21 78.3567 21H170.643C175.811 21 180 25.1892 180 30.3567V35H69V30.3567Z" fill="#ACD0FF" stroke="#0051FF" stroke-width="2"/>
<rect x="69" y="35" width="111" height="174" fill="white" stroke="#0051FF" stroke-width="2"/>
<rect x="105.5" y="144" width="38" height="21" rx="3.11679" fill="#DFEEFD"/>
<rect x="105.5" y="144" width="38" height="21" rx="3.11679" stroke="#0051FF" stroke-width="2"/>
<path d="M118.294 158H115.387V151.34H118.186C119.293 151.34 120.607 151.511 120.607 152.978C120.607 153.941 120.013 154.373 119.347 154.499V154.517C120.157 154.661 120.769 155.048 120.769 156.155C120.769 157.604 119.419 158 118.294 158ZM117.151 152.717V153.995H118.006C118.654 153.995 118.897 153.743 118.897 153.356C118.897 152.96 118.654 152.717 118.024 152.717H117.151ZM117.151 155.237V156.65H118.051C118.726 156.65 119.014 156.389 119.014 155.93C119.014 155.471 118.717 155.237 118.033 155.237H117.151ZM124.476 158.099C122.532 158.099 121.677 157.091 121.677 155.327V151.34H123.477V155.318C123.477 156.236 123.774 156.65 124.494 156.65C125.214 156.65 125.502 156.236 125.502 155.318V151.34H127.266V155.327C127.266 157.091 126.42 158.099 124.476 158.099ZM131.888 158H130.088V155.219L127.766 151.34H129.62L130.997 153.698L132.383 151.34H134.219L131.888 155.219V158Z" fill="#0051FF"/>
<path d="M69 209H180V211C180 216.523 175.523 221 170 221H78.3567C73.1892 221 69 216.811 69 211.643V209Z" fill="#ACD0FF" stroke="#0051FF" stroke-width="2"/>
<rect x="110" y="26.0508" width="28.5651" height="3.6067" rx="1.55946" fill="#0051FF"/>
<rect width="31.8354" height="9.1833" rx="2.33942" transform="matrix(-1 0 0 1 189.216 181.183)" fill="#77B1FF" stroke="#0051FF" stroke-width="2" stroke-linejoin="round"/>
<rect width="31.8354" height="9.1833" rx="2.33942" transform="matrix(-1 0 0 1 184.931 190.367)" fill="#77B1FF" stroke="#0051FF" stroke-width="2" stroke-linejoin="round"/>
<rect width="31.8354" height="9.1833" rx="2.33942" transform="matrix(-1 0 0 1 184.931 172)" fill="#77B1FF" stroke="#0051FF" stroke-width="2" stroke-linejoin="round"/>
<rect width="31.8354" height="9.1833" rx="2.33942" transform="matrix(-1 0 0 1 184.931 199.549)" fill="#77B1FF" stroke="#0051FF" stroke-width="2" stroke-linejoin="round"/>
<rect width="31.8354" height="9.1833" rx="2.33942" transform="matrix(-1 0 0 1 184.931 208.733)" fill="#77B1FF" stroke="#0051FF" stroke-width="2" stroke-linejoin="round"/>
<rect width="31.8354" height="9.1833" rx="2.33942" transform="matrix(-1 0 0 1 184.931 217.916)" fill="#77B1FF" stroke="#0051FF" stroke-width="2" stroke-linejoin="round"/>
<rect width="31.8354" height="9.1833" rx="2.33942" transform="matrix(-1 0 0 1 210.644 217.916)" fill="#77B1FF" stroke="#0051FF" stroke-width="2" stroke-linejoin="round"/>
<rect width="31.8354" height="9.1833" rx="2.33942" transform="matrix(-1 0 0 1 210.644 199.549)" fill="#77B1FF" stroke="#0051FF" stroke-width="2" stroke-linejoin="round"/>
<path d="M168.777 199.115C170.518 202.543 171.203 206.411 170.746 210.229C170.289 214.047 168.709 217.644 166.208 220.564C163.706 223.485 160.395 225.599 156.692 226.637C152.99 227.676 149.062 227.592 145.407 226.399C141.752 225.205 138.532 222.954 136.156 219.93C133.78 216.907 132.354 213.248 132.058 209.414C131.762 205.58 132.609 201.743 134.493 198.391C136.377 195.039 139.213 192.32 142.642 190.58C147.24 188.247 152.576 187.836 157.477 189.436C162.378 191.037 166.442 194.518 168.777 199.115Z" fill="#5CA3FF" stroke="#0051FF" stroke-width="2" stroke-linejoin="round"/>
<path d="M163.239 209.336C163.519 207.001 163.099 204.636 162.034 202.54C160.607 199.731 158.123 197.604 155.128 196.626C152.133 195.648 148.872 195.9 146.062 197.325C143.965 198.388 142.231 200.05 141.078 202.099C139.926 204.149 139.407 206.493 139.588 208.837C139.768 211.181 140.64 213.42 142.093 215.268C143.545 217.117 145.513 218.493 147.749 219.223C149.983 219.952 152.385 220.003 154.648 219.368C156.912 218.733 158.937 217.44 160.466 215.655C161.995 213.869 162.96 211.67 163.239 209.336Z" fill="#F2F6FF" stroke="#0051FF" stroke-width="2"/>
<rect width="31.8354" height="9.1833" rx="2.33942" transform="matrix(-1 0 0 1 214.318 208.733)" fill="#77B1FF" stroke="#0051FF" stroke-width="2" stroke-linejoin="round"/>
<path d="M124.5 118C141.36 118 155 104.105 155 87C155 69.8951 141.36 56 124.5 56C107.64 56 94 69.8951 94 87C94 104.105 107.64 118 124.5 118Z" stroke="#DFEEFD" stroke-width="2"/>
<path d="M153 87C153 103.032 140.224 116 124.5 116C108.776 116 96 103.032 96 87C96 70.9678 108.776 58 124.5 58C140.224 58 153 70.9678 153 87Z" stroke="#5CA3FF" stroke-width="2"/>
<path d="M121.883 99.2643C122.775 99.2643 123.498 98.5412 123.498 97.6492C123.498 96.7573 122.775 96.0342 121.883 96.0342C120.991 96.0342 120.268 96.7573 120.268 97.6492C120.268 98.5412 120.991 99.2643 121.883 99.2643Z" fill="#0051FF"/>
<path d="M125.92 101.686C121.531 101.686 117.524 101.686 115.172 101.686C113.971 101.686 113 100.712 113 99.5111V73.1746C113 71.9736 113.974 71 115.175 71H128.591C129.792 71 130.765 71.9736 130.765 73.1746V84.7278" stroke="#0051FF" stroke-width="2" stroke-linecap="round"/>
<path d="M134.803 101.684C138.817 101.684 142.07 100.238 142.07 98.4542V92.9704C142.07 92.6702 141.827 92.4268 141.527 92.4268H128.079C127.779 92.4268 127.535 92.6702 127.535 92.9704V98.4542C127.535 100.238 130.789 101.684 134.803 101.684Z" fill="#DFEEFD" stroke="#0051FF" stroke-width="2" stroke-linecap="round"/>
<path d="M142.07 95.2246C142.07 97.0085 138.817 98.4547 134.803 98.4547C130.789 98.4547 127.535 97.0085 127.535 95.2246" stroke="#0051FF" stroke-width="2" stroke-linecap="round"/>
<path d="M134.803 95.2256C138.817 95.2256 142.07 93.4179 142.07 91.188C142.07 88.9581 138.817 87.1504 134.803 87.1504C130.789 87.1504 127.535 88.9581 127.535 91.188C127.535 93.4179 130.789 95.2256 134.803 95.2256Z" fill="#DFEEFD" stroke="#0051FF" stroke-width="2" stroke-linecap="round"/>
<path d="M127.535 91.9941V98.4543" stroke="#0051FF" stroke-width="2" stroke-linecap="round" stroke-linejoin="round"/>
<path d="M142.07 91.9941V98.4543" stroke="#0051FF" stroke-width="2" stroke-linecap="round" stroke-linejoin="round"/>
<path d="M200.917 50H177.262C168.281 50 161 57.281 161 66.2625C161 74.7456 167.495 81.7117 175.784 82.4586V88L190.568 82.5249H200.917C209.898 82.5249 217.179 75.244 217.179 66.2625C217.179 57.281 209.898 50 200.917 50Z" fill="white" stroke="#0051FF" stroke-width="2" stroke-linecap="round" stroke-linejoin="round"/>
<path d="M189.091 69.2173C190.724 69.2173 192.047 67.8935 192.047 66.2605C192.047 64.6275 190.724 63.3037 189.091 63.3037C187.458 63.3037 186.134 64.6275 186.134 66.2605C186.134 67.8935 187.458 69.2173 189.091 69.2173Z" fill="#0051FF"/>
<path d="M200.917 69.2173C202.55 69.2173 203.874 67.8935 203.874 66.2605C203.874 64.6275 202.55 63.3037 200.917 63.3037C199.284 63.3037 197.96 64.6275 197.96 66.2605C197.96 67.8935 199.284 69.2173 200.917 69.2173Z" fill="#0051FF"/>
<path d="M177.258 69.2173C178.891 69.2173 180.214 67.8935 180.214 66.2605C180.214 64.6275 178.891 63.3037 177.258 63.3037C175.625 63.3037 174.301 64.6275 174.301 66.2605C174.301 67.8935 175.625 69.2173 177.258 69.2173Z" fill="#0051FF"/>
<path d="M55.6572 88H75.5222C83.0649 88 89.1794 94.1145 89.1794 101.657C89.1794 108.781 83.7246 114.631 76.7638 115.259V119.912L64.3482 115.314H55.6572C48.1146 115.314 42 109.2 42 101.657C42 94.1145 48.1146 88 55.6572 88Z" fill="white" stroke="#0051FF" stroke-width="2" stroke-linecap="round" stroke-linejoin="round"/>
<path d="M65.5889 104.139C64.2175 104.139 63.1058 103.027 63.1058 101.656C63.1058 100.285 64.2175 99.1729 65.5889 99.1729C66.9603 99.1729 68.072 100.285 68.072 101.656C68.072 103.027 66.9603 104.139 65.5889 104.139Z" fill="#0051FF"/>
<path d="M55.6573 104.139C54.2859 104.139 53.1741 103.027 53.1741 101.656C53.1741 100.285 54.2859 99.1729 55.6573 99.1729C57.0286 99.1729 58.1404 100.285 58.1404 101.656C58.1404 103.027 57.0286 104.139 55.6573 104.139Z" fill="#0051FF"/>
<path d="M75.5264 104.139C74.155 104.139 73.0433 103.027 73.0433 101.656C73.0433 100.285 74.155 99.1729 75.5264 99.1729C76.8978 99.1729 78.0095 100.285 78.0095 101.656C78.0095 103.027 76.8978 104.139 75.5264 104.139Z" fill="#0051FF"/>
<path d="M83.4234 192.244C83.4234 178.17 72.0147 166.762 57.9414 166.762" stroke="white" stroke-width="2" stroke-linecap="round" stroke-linejoin="round"/>
<path d="M95.1844 192.243C95.1844 171.674 78.5101 155 57.9414 155" stroke="white" stroke-width="2" stroke-linecap="round" stroke-linejoin="round"/>
<path d="M83.4234 192.244C83.4234 178.17 72.0147 166.762 57.9414 166.762" stroke="#0051FF" stroke-width="2" stroke-linecap="round" stroke-linejoin="round"/>
<path d="M95.1844 192.243C95.1844 171.674 78.5101 155 57.9414 155" stroke="#0051FF" stroke-width="2" stroke-linecap="round" stroke-linejoin="round"/>
<path d="M75.1655 198.337L88.2364 205.065V204.958C89.0513 205.401 89.7667 206.006 90.3386 206.736C90.9105 207.467 91.3267 208.308 91.5616 209.206C91.7965 210.103 91.8451 211.038 91.7044 211.955C91.5637 212.872 91.2366 213.75 90.7434 214.535L88.0729 220.121C87.263 221.361 86.1575 222.381 84.8559 223.088C83.5542 223.795 82.0973 224.166 80.6161 224.17H80.0375C77.3909 224.047 74.7598 223.695 72.1736 223.12C61.5578 219.862 51.8991 214.061 44.0379 206.218C36.1766 198.376 30.3511 188.729 27.0684 178.122C26.4872 175.529 26.1359 172.891 26.0185 170.237C25.9177 168.668 26.2308 167.1 26.9265 165.69C27.6222 164.28 28.676 163.076 29.9826 162.201L35.4816 159.466C36.2733 158.944 37.1655 158.595 38.1007 158.439C39.036 158.282 39.9937 158.324 40.9121 158.56C41.8305 158.796 42.6892 159.221 43.4331 159.809C44.177 160.397 44.7895 161.136 45.2311 161.975L51.9594 174.959C52.6571 176.368 52.8527 177.973 52.5137 179.508C52.1746 181.044 51.3214 182.418 50.0952 183.403L45.6383 186.895C47.698 190.628 50.2892 194.041 53.3308 197.029C56.2387 200.044 59.5743 202.615 63.2303 204.659L66.723 200.201C67.6973 198.962 69.0713 198.097 70.6108 197.757C72.1502 197.417 73.7599 197.623 75.1655 198.337Z" fill="#DFEEFD" stroke="#0051FF" stroke-width="2" stroke-linecap="round" stroke-linejoin="round"/>
<path d="M83.4234 192.244C83.4234 178.17 72.0147 166.762 57.9414 166.762" stroke="#0051FF" stroke-width="2" stroke-linecap="round" stroke-linejoin="round"/>
<path d="M95.1844 192.243C95.1844 171.674 78.5101 155 57.9414 155" stroke="#0051FF" stroke-width="2" stroke-linecap="round" stroke-linejoin="round"/>
</svg>
