<svg width="250" height="250" viewBox="0 0 250 250" fill="none" xmlns="http://www.w3.org/2000/svg">
<rect width="250" height="250" fill="white"/>
<rect x="27" y="28" width="199.347" height="143.673" rx="10" fill="#9BD3FF" stroke="#004BE2" stroke-width="2"/>
<path d="M33 40.6728C33 36.9853 35.9893 33.9961 39.6767 33.9961H212.93C216.617 33.9961 219.607 36.9854 219.607 40.6728V141.164H33V40.6728Z" fill="white"/>
<path d="M27 148.326H226.347V161.673C226.347 167.196 221.87 171.673 216.347 171.673H37C31.4771 171.673 27 167.196 27 161.673V148.326Z" fill="#9BD3FF" stroke="#004BE2" stroke-width="2"/>
<path d="M101.263 187.837H152.084L159.206 201.051C159.924 202.384 158.959 204 157.446 204H95.9008C94.3871 204 93.4221 202.384 94.1403 201.051L101.263 187.837Z" fill="#9BD3FF" stroke="#004BE2" stroke-width="2"/>
<circle cx="126.673" cy="160.001" r="4.4898" fill="#9BD3FF" stroke="#004BE2" stroke-width="2"/>
<rect x="101.531" y="171.674" width="50.2857" height="16.1633" fill="#9BD3FF" stroke="#004BE2" stroke-width="2"/>
<circle cx="33" cy="148" r="30" fill="#5ED3A9" stroke="white" stroke-width="2"/>
<path d="M46.5794 151.297C45.6154 154.45 43.5877 157.171 40.842 158.997C38.0963 160.823 34.8024 161.64 31.5218 161.309C28.6018 161.014 25.8531 159.826 23.6441 157.921L23.6441 160.542C23.6441 160.98 23.2896 161.334 22.8524 161.334C22.4152 161.334 22.0608 160.98 22.0608 160.542L22.0608 156.064C22.0608 155.627 22.4152 155.272 22.8524 155.272H27.3308C27.768 155.272 28.1224 155.627 28.1224 156.064C28.1224 156.501 27.768 156.856 27.3308 156.856L24.8361 156.856C26.772 158.471 29.1542 159.479 31.6807 159.733C34.5968 160.028 37.5247 159.301 39.9653 157.679C42.406 156.056 44.2083 153.637 45.0652 150.834C45.9221 148.031 45.7806 145.018 44.6646 142.308C43.5487 139.598 41.5275 137.358 38.9454 135.972C36.3634 134.585 33.3803 134.136 30.5047 134.703C27.629 135.269 25.0387 136.815 23.1753 139.077C21.3118 141.339 20.2905 144.178 20.2854 147.109C20.2853 147.17 20.278 147.231 20.264 147.29C20.2687 147.658 20.2894 148.026 20.3263 148.395C20.3698 148.83 20.0523 149.218 19.6173 149.261C19.1822 149.305 18.7943 148.987 18.7508 148.552C18.7034 148.078 18.6797 147.604 18.6797 147.13C18.6797 147.064 18.6878 147 18.7034 146.938C18.7472 143.7 19.8925 140.572 21.9532 138.071C24.0496 135.526 26.9636 133.786 30.1988 133.149C33.4339 132.512 36.7898 133.017 39.6946 134.577C42.5994 136.137 44.8733 138.656 46.1287 141.705C47.3841 144.754 47.5434 148.144 46.5794 151.297Z" fill="white"/>
<path d="M37.9668 153.265C38.276 152.956 38.276 152.455 37.9668 152.146L33.071 147.25L33.071 141.062C33.071 140.624 32.7166 140.27 32.2793 140.27C31.8421 140.27 31.4877 140.624 31.4877 141.062L31.4877 147.578C31.4877 147.788 31.5711 147.989 31.7195 148.137L36.8472 153.265C37.1564 153.574 37.6577 153.574 37.9668 153.265Z" fill="white"/>
<path d="M46.5794 151.297C45.6154 154.45 43.5877 157.171 40.842 158.997C38.0963 160.823 34.8024 161.64 31.5218 161.309C28.6018 161.014 25.8531 159.826 23.6441 157.921L23.6441 160.542C23.6441 160.98 23.2896 161.334 22.8524 161.334C22.4152 161.334 22.0608 160.98 22.0608 160.542L22.0608 156.064C22.0608 155.627 22.4152 155.272 22.8524 155.272H27.3308C27.768 155.272 28.1224 155.627 28.1224 156.064C28.1224 156.501 27.768 156.856 27.3308 156.856L24.8361 156.856C26.772 158.471 29.1542 159.479 31.6807 159.733C34.5968 160.028 37.5247 159.301 39.9653 157.679C42.406 156.056 44.2083 153.637 45.0652 150.834C45.9221 148.031 45.7806 145.018 44.6646 142.308C43.5487 139.598 41.5275 137.358 38.9454 135.972C36.3634 134.585 33.3803 134.136 30.5047 134.703C27.629 135.269 25.0387 136.815 23.1753 139.077C21.3118 141.339 20.2905 144.178 20.2854 147.109C20.2853 147.17 20.278 147.231 20.264 147.29C20.2687 147.658 20.2894 148.026 20.3263 148.395C20.3698 148.83 20.0523 149.218 19.6173 149.261C19.1822 149.305 18.7943 148.987 18.7508 148.552C18.7034 148.078 18.6797 147.604 18.6797 147.13C18.6797 147.064 18.6878 147 18.7034 146.938C18.7472 143.7 19.8925 140.572 21.9532 138.071C24.0496 135.526 26.9636 133.786 30.1988 133.149C33.4339 132.512 36.7898 133.017 39.6946 134.577C42.5994 136.137 44.8733 138.656 46.1287 141.705C47.3841 144.754 47.5434 148.144 46.5794 151.297Z" stroke="white"/>
<path d="M37.9668 153.265C38.276 152.956 38.276 152.455 37.9668 152.146L33.071 147.25L33.071 141.062C33.071 140.624 32.7166 140.27 32.2793 140.27C31.8421 140.27 31.4877 140.624 31.4877 141.062L31.4877 147.578C31.4877 147.788 31.5711 147.989 31.7195 148.137L36.8472 153.265C37.1564 153.574 37.6577 153.574 37.9668 153.265Z" stroke="white"/>
<path d="M140.002 130.059C140.002 127.72 141.898 125.823 144.237 125.823H244.598C246.937 125.823 248.834 127.72 248.834 130.059V218.664C248.834 223.895 244.593 228.135 239.363 228.135H149.473C144.242 228.135 140.002 223.895 140.002 218.664V130.059Z" fill="white" stroke="#004BE2" stroke-width="2" stroke-linejoin="round"/>
<path d="M140.002 129.743C140.002 127.404 141.898 125.508 144.237 125.508H244.598C246.937 125.508 248.834 127.404 248.834 129.743V156.676H140.002V129.743Z" fill="#9BD3FF" stroke="#004BE2" stroke-width="2" stroke-linejoin="round"/>
<rect x="151.945" y="164.957" width="16.9891" height="15.3711" rx="1.55962" fill="#9BD3FF"/>
<rect x="151.945" y="184.373" width="16.9891" height="15.3711" rx="1.55962" fill="#9BD3FF"/>
<rect x="151.945" y="203.789" width="16.9891" height="15.3711" rx="1.55962" fill="#9BD3FF"/>
<rect x="174.598" y="164.957" width="16.9891" height="15.3711" rx="1.55962" fill="#9BD3FF"/>
<rect x="174.598" y="184.373" width="16.9891" height="15.3711" rx="1.55962" fill="#9BD3FF"/>
<rect x="174.598" y="203.789" width="16.9891" height="15.3711" rx="1.55962" fill="#9BD3FF"/>
<rect x="197.246" y="164.957" width="16.9891" height="15.3711" rx="1.55962" fill="#9BD3FF"/>
<rect x="197.246" y="184.373" width="16.9891" height="15.3711" rx="1.55962" fill="#9BD3FF"/>
<rect x="197.25" y="203.789" width="16.9891" height="15.3711" rx="1.55962" fill="#5ED3A9"/>
<path d="M201.801 212.376L203.962 214.46L208.285 209.597" stroke="white" stroke-width="2" stroke-linecap="round" stroke-linejoin="round"/>
<rect x="219.9" y="164.957" width="16.9891" height="15.3711" rx="1.55962" fill="#9BD3FF"/>
<rect x="219.9" y="184.373" width="16.9891" height="15.3711" rx="1.55962" fill="#9BD3FF"/>
<rect x="219.9" y="203.789" width="16.9891" height="15.3711" rx="1.55962" fill="#9BD3FF"/>
<rect x="222.518" y="119.036" width="5.28104" height="19.0341" rx="2.64052" fill="#9BD3FF" stroke="#004BE2" stroke-width="2"/>
<rect x="195.014" y="119.036" width="5.28104" height="19.0341" rx="2.64052" fill="#9BD3FF" stroke="#004BE2" stroke-width="2"/>
<rect x="165.889" y="119.036" width="5.28104" height="19.0341" rx="2.64052" fill="#9BD3FF" stroke="#004BE2" stroke-width="2"/>
<rect x="81" y="57" width="63" height="6" rx="3" fill="#9BD3FF"/>
<rect width="16" height="6" rx="3" transform="matrix(-1 0 0 1 164 57)" fill="#F874A4"/>
<path d="M177 60.9058L179.679 63.4887L185.036 57.4619" stroke="#004BE2" stroke-width="2" stroke-linecap="round" stroke-linejoin="round"/>
<circle cx="73.0687" cy="60.0687" r="5.06875" fill="#9BD3FF"/>
<rect x="81" y="78" width="63" height="6" rx="3" fill="#9BD3FF"/>
<rect width="16" height="6" rx="3" transform="matrix(-1 0 0 1 164 78)" fill="#F874A4"/>
<path d="M177 81.9058L179.679 84.4887L185.036 78.4619" stroke="#004BE2" stroke-width="2" stroke-linecap="round" stroke-linejoin="round"/>
<circle cx="73.0687" cy="81.0687" r="5.06875" fill="#9BD3FF"/>
<rect x="81" y="99" width="63" height="6" rx="3" fill="#9BD3FF"/>
<rect width="16" height="6" rx="3" transform="matrix(-1 0 0 1 164 99)" fill="#F874A4"/>
<path d="M177 102.906L179.679 105.489L185.036 99.4619" stroke="#004BE2" stroke-width="2" stroke-linecap="round" stroke-linejoin="round"/>
<circle cx="73.0687" cy="102.069" r="5.06875" fill="#9BD3FF"/>
</svg>
