<svg width="137" height="191" viewBox="0 0 137 191" fill="none" xmlns="http://www.w3.org/2000/svg">
<path d="M12.4338 189.331H124.374C130.462 189.331 135.397 184.396 135.397 178.308V48.3305C135.397 45.4069 134.236 42.6031 132.168 40.5358L95.8602 4.22772C93.7929 2.16042 90.9891 0.999023 88.0655 0.999023H12.4338C6.34577 0.999023 1.4104 5.93437 1.4104 12.0225V178.308C1.4104 184.396 6.34576 189.331 12.4338 189.331Z" fill="white" stroke="#0051FF" stroke-width="2" stroke-linecap="round" stroke-linejoin="round"/>
<path d="M42.7409 23.7173C42.708 23.2543 42.4024 22.8489 41.9412 22.7471C39.5627 22.2221 37.1275 21.9736 34.6881 21.9736C32.2487 21.9736 29.8133 22.2221 27.4351 22.7471C26.9739 22.8489 26.6682 23.2543 26.6354 23.7173C26.4944 25.7051 26.0085 30.7905 26.2266 32.8394C26.7284 37.4545 30.0661 40.4049 34.0737 41.9108C34.2712 41.9849 34.4679 42.0513 34.6759 42.1053C34.6794 42.1042 34.6847 42.1027 34.6884 42.1014C34.6921 42.1024 34.6974 42.1042 34.7008 42.1053C34.9089 42.0513 35.1059 41.9865 35.3031 41.9108C39.321 40.4321 42.6484 37.4547 43.1502 32.8394C43.3683 30.7905 42.8822 25.7048 42.7414 23.7173" fill="#0051FF"/>
<path d="M100.352 43.7645H132.739C133.721 43.7645 134.213 42.5771 133.519 41.8826L94.5171 2.88084C93.8226 2.18641 92.6353 2.67824 92.6353 3.66032V36.048C92.6353 40.3097 96.09 43.7645 100.352 43.7645Z" fill="#ACD0FF" stroke="#0051FF" stroke-width="2" stroke-linecap="round" stroke-linejoin="round"/>
<circle cx="26.7427" cy="97.5223" r="6.62092" fill="#77B1FF"/>
<circle cx="26.7427" cy="124.305" r="6.62092" fill="#77B1FF"/>
<rect x="37.103" y="94.7959" width="47.024" height="7.83734" rx="3.91867" fill="#77B1FF"/>
<rect width="11.756" height="7.83734" rx="3.91867" transform="matrix(-1 0 0 1 99.8015 94.7959)" fill="#5CA3FF"/>
<rect x="37.103" y="120.112" width="47.024" height="7.83734" rx="3.91867" fill="#77B1FF"/>
<rect width="11.756" height="7.83734" rx="3.91867" transform="matrix(-1 0 0 1 99.8015 120.112)" fill="#5CA3FF"/>
<rect x="37.103" y="147.377" width="47.024" height="7.83734" rx="3.91867" fill="#77B1FF"/>
<rect width="11.756" height="7.83734" rx="3.91867" transform="matrix(-1 0 0 1 99.8015 147.377)" fill="#5CA3FF"/>
<circle cx="26.7427" cy="151.737" r="6.62092" fill="#77B1FF"/>
<path fill-rule="evenodd" clip-rule="evenodd" d="M119.425 93.6393C119.87 94.0265 119.921 94.7066 119.54 95.1584L112.397 103.626C112.205 103.854 111.928 103.99 111.633 104.002C111.337 104.013 111.051 103.899 110.842 103.687L107.271 100.058C106.856 99.637 106.856 98.9549 107.271 98.5341C107.685 98.1134 108.356 98.1134 108.77 98.5341L111.532 101.34L117.93 93.7561C118.311 93.3044 118.98 93.252 119.425 93.6393Z" fill="#2DB56C"/>
<path fill-rule="evenodd" clip-rule="evenodd" d="M119.425 120.257C119.87 120.645 119.921 121.325 119.54 121.777L112.397 130.244C112.205 130.472 111.928 130.608 111.633 130.62C111.337 130.631 111.051 130.517 110.842 130.305L107.271 126.676C106.856 126.255 106.856 125.573 107.271 125.152C107.685 124.732 108.356 124.732 108.77 125.152L111.532 127.959L117.93 120.374C118.311 119.923 118.98 119.87 119.425 120.257Z" fill="#2DB56C"/>
<path fill-rule="evenodd" clip-rule="evenodd" d="M119.425 145.574C119.87 145.961 119.921 146.641 119.54 147.093L112.397 155.561C112.205 155.788 111.928 155.925 111.633 155.936C111.337 155.948 111.051 155.834 110.842 155.621L107.271 151.992C106.856 151.572 106.856 150.889 107.271 150.469C107.685 150.048 108.356 150.048 108.77 150.469L111.532 153.275L117.93 145.691C118.311 145.239 118.98 145.187 119.425 145.574Z" fill="#2DB56C"/>
<rect x="20.1282" y="66.8838" width="46.1088" height="7.71641" rx="3.85821" fill="#5CA3FF"/>
</svg>
