<svg width="92" height="92" viewBox="0 0 92 92" fill="none" xmlns="http://www.w3.org/2000/svg">
<rect width="91.4118" height="91.4118" transform="translate(0.236328)" fill="white"/>
<path d="M47.8467 53.7812L62.3583 57.5901C64.6888 58.0309 66.7942 59.2665 68.3154 61.0864C69.8365 62.9062 70.6792 65.1974 70.6996 67.5692V81.8904" stroke="#0051FF" stroke-width="3.80882" stroke-linecap="round" stroke-linejoin="round"/>
<path d="M35.5037 61.3218L30.1712 56.6369C29.1308 55.6937 27.7662 55.1888 26.3624 55.2277C25.6581 55.2155 24.9585 55.3439 24.3044 55.6055C23.6504 55.8671 23.0552 56.2566 22.5536 56.7512C22.0663 57.2235 21.679 57.7888 21.4145 58.4136C21.1499 59.0385 21.0137 59.7101 21.0137 60.3886C21.0137 61.0672 21.1499 61.7388 21.4145 62.3636C21.679 62.9885 22.0663 63.5538 22.5536 64.0261L40.0742 81.8894" stroke="#0051FF" stroke-width="3.80882" stroke-linecap="round" stroke-linejoin="round"/>
<path d="M42.1333 17.1396L42.1333 24.7573" stroke="#0051FF" stroke-width="3.80882" stroke-linecap="round" stroke-linejoin="round"/>
<path d="M57.3687 22.8525L51.9822 28.239" stroke="#0051FF" stroke-width="3.80882" stroke-linecap="round" stroke-linejoin="round"/>
<path d="M55.4644 36.1836H63.082" stroke="#0051FF" stroke-width="3.80882" stroke-linecap="round" stroke-linejoin="round"/>
<path d="M21.1851 36.1836H28.8027" stroke="#0051FF" stroke-width="3.80882" stroke-linecap="round" stroke-linejoin="round"/>
<path d="M26.8979 22.8525L32.2844 28.239" stroke="#0051FF" stroke-width="3.80882" stroke-linecap="round" stroke-linejoin="round"/>
<path d="M36.4199 62.8456V38.0882C36.4199 34.9329 38.9778 32.375 42.1332 32.375V32.375C45.2885 32.375 47.8464 34.9329 47.8464 38.0882V59.0368" stroke="#0051FF" stroke-width="3.80882" stroke-linecap="round"/>
<path d="M24.9939 47.6107H17.3762C15.2726 47.6107 13.5674 45.9054 13.5674 43.8019V13.3313C13.5674 11.2277 15.2727 9.52246 17.3762 9.52246H74.5086C76.6121 9.52246 78.3174 11.2277 78.3174 13.3313V43.8019C78.3174 45.9054 76.6121 47.6107 74.5086 47.6107H59.2733" stroke="#0051FF" stroke-width="3.80882" stroke-linecap="round" stroke-linejoin="round"/>
</svg>
