<svg width="250" height="250" viewBox="0 0 250 250" fill="none" xmlns="http://www.w3.org/2000/svg">
<rect width="250" height="250" fill="white"/>
<path d="M66.8895 108.365H201.941L235.235 228.906H37.9863L66.8895 108.365Z" fill="#9BD3FF"/>
<path d="M29.7695 228.906L62.2879 108.365H66.7537L44.5303 228.906H29.7695Z" fill="#9BD3FF"/>
<path d="M239.344 228.906L205.619 108.365H200.99L224.022 228.906H239.344Z" fill="#9BD3FF"/>
<path d="M29.1152 228.561L62.509 108.31H67.095L44.2734 228.561" stroke="#004BE2" stroke-width="2" stroke-linecap="round" stroke-linejoin="round"/>
<path d="M239.613 228.562L206.195 108.311H201.609L224.431 228.562" stroke="#004BE2" stroke-width="2" stroke-linecap="round" stroke-linejoin="round"/>
<path d="M125.654 228.906L130.357 109.734H134.65L139.352 228.906H125.654Z" fill="white"/>
<rect x="121.863" y="127.451" width="20.5648" height="5.45499" fill="#9BD3FF"/>
<rect x="121.863" y="113.789" width="20.5648" height="3.78953" fill="#9BD3FF"/>
<rect x="120.32" y="149.971" width="23.6303" height="7.57906" fill="#9BD3FF"/>
<rect x="113.199" y="185.719" width="37.9194" height="11.8031" fill="#9BD3FF"/>
<path d="M74.5105 77.6313L27.3827 77.523C27.1309 77.5187 26.9174 77.4379 26.9188 77.354L26.9683 64.8932C27.0197 64.8269 27.133 64.6811 27.4246 64.7163L117.404 64.9916C117.667 64.9826 117.857 65.0664 117.868 65.1606L117.839 77.5948C117.788 77.6611 117.675 77.807 117.383 77.7718L74.5105 77.6313Z" fill="#9BD3FF" stroke="#004BE2" stroke-width="2" stroke-linecap="round" stroke-linejoin="round"/>
<path d="M186.593 62.9533L223.878 91.7776C224.08 91.9287 224.298 91.9959 224.348 91.9287L231.953 82.0576C231.953 81.9736 231.953 81.789 231.701 81.6379L160.471 26.6584C160.27 26.4905 160.068 26.4401 160.001 26.5073L152.397 36.3448C152.397 36.4288 152.397 36.6135 152.648 36.7645L186.593 62.9533Z" fill="#9BD3FF" stroke="#004BE2" stroke-width="2" stroke-linecap="round" stroke-linejoin="round"/>
<path d="M11.2441 107.813L244.172 107.546" stroke="#004BE2" stroke-width="2" stroke-linecap="round" stroke-linejoin="round"/>
<path d="M49.6546 77.6214L33.1021 64.7641L55.8715 64.9585L72.4241 77.8157L49.6546 77.6214Z" fill="#3BA9FF" stroke="#004BE2" stroke-width="2" stroke-linejoin="round"/>
<path d="M206.228 78.1911H227.188L209.086 64.377H188.127L206.228 78.1911Z" fill="#3BA9FF" stroke="#004BE2" stroke-width="2" stroke-linejoin="round"/>
<path d="M94.4417 77.4241L77.8892 64.5669L100.659 64.7612L117.211 77.6185L94.4417 77.4241Z" fill="#3BA9FF" stroke="#004BE2" stroke-width="2" stroke-linejoin="round"/>
<path d="M170.982 50.5632H191.941L173.84 36.749H152.881L170.982 50.5632Z" fill="#3BA9FF" stroke="#004BE2" stroke-width="2" stroke-linejoin="round"/>
<path d="M40.8323 60.1192C42.3506 60.1236 43.8049 60.731 44.8753 61.8077C45.9457 62.8844 46.5446 64.3423 46.5401 65.8605L46.4394 107.83H34.9902L35.091 65.8605C35.0865 64.3365 35.6899 62.8735 36.7676 61.7958C37.8453 60.7181 39.3083 60.1147 40.8323 60.1192Z" fill="#9BD3FF" stroke="#004BE2" stroke-width="2" stroke-linecap="round" stroke-linejoin="round"/>
<path d="M220.888 60.1192C219.37 60.1236 217.916 60.731 216.845 61.8077C215.775 62.8844 215.176 64.3423 215.181 65.8605L215.281 107.83H226.73L226.63 65.8605C226.634 64.3365 226.031 62.8735 224.953 61.7958C223.875 60.7181 222.412 60.1147 220.888 60.1192Z" fill="#9BD3FF" stroke="#004BE2" stroke-width="2" stroke-linecap="round" stroke-linejoin="round"/>
<circle cx="40.7628" cy="71.215" r="2.21597" fill="#9BD3FF" stroke="#004BE2" stroke-width="2" stroke-linecap="round" stroke-linejoin="round"/>
<circle cx="2.21597" cy="2.21597" r="2.21597" transform="matrix(-1 0 0 1 223.176 68.998)" fill="#9BD3FF" stroke="#004BE2" stroke-width="2" stroke-linecap="round" stroke-linejoin="round"/>
<path d="M194.166 60.9861C194.166 60.5461 194.523 60.1895 194.963 60.1895H201.933C202.373 60.1895 202.73 60.5461 202.73 60.9861V62.6932C202.73 64.0131 201.66 65.0831 200.34 65.0831H195.759C194.879 65.0831 194.166 64.3698 194.166 63.4899V60.9861Z" fill="#9BD3FF" stroke="#004BE2" stroke-width="2"/>
<path d="M138.498 60.9861C138.498 60.5461 138.141 60.1895 137.701 60.1895H130.731C130.291 60.1895 129.934 60.5461 129.934 60.9861V62.6932C129.934 64.0131 131.004 65.0831 132.324 65.0831H136.905C137.785 65.0831 138.498 64.3698 138.498 63.4899V60.9861Z" fill="#9BD3FF" stroke="#004BE2" stroke-width="2"/>
<path d="M131.768 98.1162H145.837V107.097C145.837 109.232 144.107 110.962 141.972 110.962H135.632C133.498 110.962 131.768 109.232 131.768 107.097V98.1162Z" fill="#9BD3FF" stroke="#004BE2" stroke-width="2"/>
<path d="M186.211 98.1162H200.28V107.097C200.28 109.232 198.55 110.962 196.416 110.962H190.076C187.941 110.962 186.211 109.232 186.211 107.097V98.1162Z" fill="#9BD3FF" stroke="#004BE2" stroke-width="2"/>
<path d="M129.537 73.7125C130.067 68.8064 134.208 65.0879 139.143 65.0879H193.654C198.589 65.0879 202.73 68.8064 203.26 73.7125L205.46 94.0913C205.707 96.3766 203.916 98.3708 201.617 98.3708H131.179C128.881 98.3708 127.09 96.3766 127.337 94.0913L129.537 73.7125Z" fill="#9BD3FF" stroke="#004BE2" stroke-width="2"/>
<path d="M139.91 53.3463C141.095 48.0501 145.796 44.2852 151.223 44.2852H181.584C187.011 44.2852 191.712 48.0501 192.898 53.3463L195.526 65.0869H137.281L139.91 53.3463Z" fill="white" stroke="#004BE2" stroke-width="2"/>
<path d="M150.736 74.3877H182.062" stroke="#004BE2" stroke-width="2" stroke-linecap="round"/>
<path d="M154.404 78.542H178.39" stroke="#004BE2" stroke-width="2" stroke-linecap="round"/>
<path d="M150.736 82.6943H182.062" stroke="#004BE2" stroke-width="2" stroke-linecap="round"/>
<path d="M168.692 73.4556C168.692 73.4576 168.691 73.46 168.691 73.4629C168.69 73.4725 168.687 73.5004 168.684 73.5278C168.683 73.5421 168.682 73.5607 168.68 73.5825C168.664 73.7172 168.635 73.8505 168.594 73.9807C168.59 73.9928 168.586 74.005 168.583 74.0172C168.527 74.219 168.447 74.415 168.345 74.6011C168.03 75.1506 167.558 75.6116 166.974 75.9274L166.379 76.229C166.357 76.2376 166.337 76.2456 166.319 76.2532C165.466 75.9145 164.756 75.3259 164.289 74.5802C164.191 74.4053 164.116 74.2203 164.066 74.0297C164.026 73.8804 163.997 73.729 163.978 73.5762C163.977 73.5571 163.975 73.5407 163.974 73.5278C163.972 73.5034 163.969 73.4786 163.968 73.4667C163.968 73.4652 163.968 73.4639 163.968 73.4629C163.967 73.46 163.967 73.4576 163.967 73.4557C163.956 72.478 163.991 71.5006 164.073 70.5263C165.566 70.3113 167.084 70.3116 168.577 70.527C168.665 71.5008 168.703 72.478 168.692 73.4556Z" fill="#9BD3FF" stroke="#004BE2" stroke-width="2" stroke-linejoin="round"/>
<path d="M125.652 95.3634C125.652 93.5053 127.159 91.999 129.017 91.999H203.646C205.504 91.999 207.01 93.5053 207.01 95.3634C207.01 97.2216 205.504 98.7279 203.646 98.7279H129.017C127.159 98.7279 125.652 97.2216 125.652 95.3634Z" fill="#9BD3FF" stroke="#004BE2" stroke-width="2"/>
<path d="M186.213 76.2791C186.213 75.8391 186.57 75.4824 187.01 75.4824H198.262C198.702 75.4824 199.059 75.8391 199.059 76.2791V78.7584C199.059 80.3275 197.787 81.5995 196.218 81.5995H187.806C186.926 81.5995 186.213 80.8862 186.213 80.0063V76.2791Z" fill="white" stroke="#004BE2" stroke-width="2"/>
<path d="M146.451 76.2791C146.451 75.8391 146.095 75.4824 145.655 75.4824H134.402C133.962 75.4824 133.605 75.8391 133.605 76.2791V78.7584C133.605 80.3275 134.877 81.5995 136.446 81.5995H144.858C145.738 81.5995 146.451 80.8862 146.451 80.0063V76.2791Z" fill="white" stroke="#004BE2" stroke-width="2"/>
<path d="M10.2885 104.012C10.2737 103.731 10.2737 103.448 10.2885 103.167C10.3142 101.35 11.1787 99.6607 12.6045 98.6415C14.1719 97.5088 16.1701 97.2713 17.937 98.0079C20.0294 94.5318 23.8824 92.7043 27.7351 93.3605C31.5879 94.0168 34.7003 97.0307 35.6499 101.025H35.9215C39.7272 101.025 42.8123 104.28 42.8123 108.296H5.82812C6.26223 105.99 8.07156 104.252 10.2885 104.012Z" fill="white" stroke="#004BE2" stroke-width="2" stroke-linecap="round" stroke-linejoin="round"/>
<path d="M38.606 243.251L100.117 226.635C103.515 225.717 105.569 222.267 104.757 218.842L87.0532 144.181C86.6135 142.327 85.3839 140.758 83.6884 139.888L55.286 125.313C53.8482 124.575 52.1874 124.398 50.6263 124.816L9.62566 135.795C6.14524 136.727 4.08207 140.307 5.02059 143.786L30.6167 238.658C31.5542 242.133 35.1315 244.19 38.606 243.251Z" fill="#9BD3FF" stroke="#004BE2" stroke-width="2" stroke-linecap="round" stroke-linejoin="round"/>
<path d="M66.36 146.655L84.8413 141.668C85.4017 141.517 85.4996 140.764 84.9964 140.475L56.7366 124.224C56.2334 123.934 55.6316 124.398 55.7828 124.958L60.7689 143.439C61.425 145.871 63.9282 147.311 66.36 146.655Z" fill="#9BD3FF" stroke="#004BE2" stroke-width="2" stroke-linecap="round" stroke-linejoin="round"/>
<path d="M35.5203 239.738L100.877 229.464C104.432 228.905 106.86 225.571 106.302 222.016L94.3722 146.128C94.1039 144.421 93.1684 142.89 91.7717 141.873L67.2405 124.006C65.8438 122.989 64.1001 122.568 62.3932 122.837L18.235 129.778C14.6804 130.337 12.2518 133.672 12.8106 137.226L28.0724 234.313C28.6312 237.868 31.9657 240.297 35.5203 239.738Z" fill="white" stroke="#004BE2" stroke-width="2" stroke-linecap="round" stroke-linejoin="round"/>
<path d="M73.4889 146.679L92.3988 143.706C92.9722 143.616 93.1504 142.878 92.6812 142.536L66.33 123.344C65.8608 123.002 65.2127 123.398 65.3029 123.972L68.2754 142.882C68.6666 145.37 71.0007 147.07 73.4889 146.679Z" fill="#9BD3FF" stroke="#004BE2" stroke-width="2" stroke-linecap="round" stroke-linejoin="round"/>
<rect x="32.8496" y="169.688" width="46.7906" height="4.56062" rx="2.28031" transform="rotate(-8.93361 32.8496 169.688)" fill="#9BD3FF"/>
<rect x="34.7715" y="181.917" width="46.7906" height="4.56062" rx="2.28031" transform="rotate(-8.93361 34.7715 181.917)" fill="#9BD3FF"/>
<rect x="30.9277" y="157.46" width="27.2516" height="4.56062" rx="2.28031" transform="rotate(-8.93361 30.9277 157.46)" fill="#9BD3FF"/>
<circle cx="45.5644" cy="202.011" r="7.81821" transform="rotate(-8.93361 45.5644 202.011)" fill="#9BD3FF"/>
</svg>
