<svg xmlns="http://www.w3.org/2000/svg" viewBox="0 0 650 716" fill="#ff681d" xmlns:v="https://vecta.io/nano"><path d="M385 8.6c17.1 3.3 32.1 9.8 46 20.3 14.2-11 29.3-17 46.9-20.3 6.6.5 14-.7 20.5 0 72.1 7.8 98.1 93.7 51.2 147.5-34.8 40-79.7 75.7-115.4 115.4l-3.3 1.9L309.1 152c-45.4-50.5-13-135.3 54-143.4H385zm-16.7 41.3c-32.5 4-49.9 42.2-32.2 69.7l94.7 96.5 92.8-92.9c26.3-35.2-5.5-83.7-48.6-71.8-18.1 5-29.1 23.6-42.9 35-20.7-16.5-32.6-40.2-63.6-36.4zm127.3 255v20.5c25.5-19.8 46.4-58.4 81.3-61.4 23.3-2 42.9 7.4 55.2 22.5 19.9 24.4 17.3 60.1-5 82.3-42 42-83.3 90.9-127.4 129.3-59.4 51.8-136.1 28.3-208.4 33.4-1.7-.2-2.8.6-4.1 1.4-2 1.1-22.6 22.2-22.4 23.8l36.7 38.2-112.6 112.8-185-185 112-112.1c1-.9 1.7-.5 2.7 0 6 3.1 17.2 20.3 23.2 23.4 1.1.5 1.7.9 2.7 0l99.7-99.8c22.4-18.4 49.6-27.5 78.5-29.4h172.8zm-40.9 40.9H320.2c-15.3 0-38.6 10.9-50.5 20.5L172 463.9l63.5 63.5 37.2-36.6c47.6-3.1 98.7 3.2 145.9-.3 18-1.4 36.9-8.9 50.6-20.4 45.4-38.4 86-91.4 131.1-131.1 9-9.7 5.1-27.5-7.2-32.4-11.8-4.7-18.3-.9-27 6.4-34.2 28.7-64.7 70.9-99 99.1-16.3 13.3-34.6 17.4-55.3 18.5-19.7 1.1-56.4 2.2-75.3 0-2-.2-3.5-.2-4.7-2.1v-38.2l2-2h92.9c2 0 12.1-5.9 14.2-7.6 9.8-8 15.1-22.1 13.8-34.7zM118 467.4l-55.2 56.5 126.1 125 55.5-55.2-126.3-126.3z"/></svg>