<svg width="250" height="250" viewBox="0 0 250 250" fill="none" xmlns="http://www.w3.org/2000/svg">
<g clip-path="url(#clip0_2570_26670)">
<path d="M71 22.3567C71 17.1892 75.1892 13 80.3567 13H172.643C177.811 13 182 17.1892 182 22.3567V27H71V22.3567Z" fill="#ACD0FF" stroke="#0051FF" stroke-width="2"/>
<rect x="71" y="27" width="111" height="174" fill="white" stroke="#0051FF" stroke-width="2"/>
<rect x="107.5" y="136" width="38" height="21" rx="3.11679" fill="#DFEEFD"/>
<rect x="107.5" y="136" width="38" height="21" rx="3.11679" stroke="#0051FF" stroke-width="2"/>
<path d="M120.294 150H117.387V143.34H120.186C121.293 143.34 122.607 143.511 122.607 144.978C122.607 145.941 122.013 146.373 121.347 146.499V146.517C122.157 146.661 122.769 147.048 122.769 148.155C122.769 149.604 121.419 150 120.294 150ZM119.151 144.717V145.995H120.006C120.654 145.995 120.897 145.743 120.897 145.356C120.897 144.96 120.654 144.717 120.024 144.717H119.151ZM119.151 147.237V148.65H120.051C120.726 148.65 121.014 148.389 121.014 147.93C121.014 147.471 120.717 147.237 120.033 147.237H119.151ZM126.476 150.099C124.532 150.099 123.677 149.091 123.677 147.327V143.34H125.477V147.318C125.477 148.236 125.774 148.65 126.494 148.65C127.214 148.65 127.502 148.236 127.502 147.318V143.34H129.266V147.327C129.266 149.091 128.42 150.099 126.476 150.099ZM133.888 150H132.088V147.219L129.766 143.34H131.62L132.997 145.698L134.383 143.34H136.219L133.888 147.219V150Z" fill="#0051FF"/>
<path d="M71 201H182V203C182 208.523 177.523 213 172 213H80.3567C75.1892 213 71 208.811 71 203.643V201Z" fill="#ACD0FF" stroke="#0051FF" stroke-width="2"/>
<rect x="112" y="18.0508" width="28.5651" height="3.6067" rx="1.55946" fill="#0051FF"/>
<rect x="59" y="45" width="140.461" height="82.1816" rx="7.72043" fill="white" stroke="#0051FF" stroke-width="2"/>
<path d="M85.5429 75.9851C86.2141 75.9851 86.7583 75.441 86.7583 74.7697C86.7583 74.0984 86.2141 73.5542 85.5429 73.5542C84.8716 73.5542 84.3274 74.0984 84.3274 74.7697C84.3274 75.441 84.8716 75.9851 85.5429 75.9851Z" fill="#0051FF"/>
<path d="M96.4814 59.5762H89.1886C86.1678 59.5762 83.719 62.025 83.719 65.0458C83.719 68.0666 86.1678 70.5154 89.1886 70.5154H96.4814C99.5022 70.5154 101.951 68.0666 101.951 65.0458C101.951 62.025 99.5022 59.5762 96.4814 59.5762Z" fill="#DFEEFD" stroke="#0051FF" stroke-width="1.42857" stroke-linecap="round" stroke-linejoin="round"/>
<path d="M94.2933 68.5713H88.8237V71.0022H94.2933V68.5713Z" fill="#DFEEFD"/>
<path d="M94.1965 70.5156L88.5811 73.5543V70.5156" fill="#DFEEFD"/>
<path d="M94.1965 70.5156L88.5811 73.5543V70.5156" stroke="#0051FF" stroke-width="1.42857" stroke-linecap="round" stroke-linejoin="round"/>
<path d="M92.8363 66.261C93.5076 66.261 94.0518 65.7168 94.0518 65.0455C94.0518 64.3743 93.5076 63.8301 92.8363 63.8301C92.165 63.8301 91.6208 64.3743 91.6208 65.0455C91.6208 65.7168 92.165 66.261 92.8363 66.261Z" fill="#0051FF"/>
<path d="M96.4816 66.261C97.1529 66.261 97.6971 65.7168 97.6971 65.0455C97.6971 64.3743 97.1529 63.8301 96.4816 63.8301C95.8103 63.8301 95.2661 64.3743 95.2661 65.0455C95.2661 65.7168 95.8103 66.261 96.4816 66.261Z" fill="#0051FF"/>
<path d="M89.1881 66.261C89.8594 66.261 90.4036 65.7168 90.4036 65.0455C90.4036 64.3743 89.8594 63.8301 89.1881 63.8301C88.5168 63.8301 87.9727 64.3743 87.9727 65.0455C87.9727 65.7168 88.5168 66.261 89.1881 66.261Z" fill="#0051FF"/>
<path d="M92.2273 57.753V56.2402C92.2273 55.3975 91.5442 54.7144 90.7015 54.7144H80.383C79.5403 54.7144 78.8572 55.3975 78.8572 56.2402V76.2824C78.8572 77.1251 79.5403 77.8083 80.383 77.8083H90.7015C91.5442 77.8083 92.2273 77.1251 92.2273 76.2824V74.7696" stroke="#0051FF" stroke-width="1.42857" stroke-linecap="round"/>
<path d="M126.63 75.6168C127.268 75.6168 127.784 75.1003 127.784 74.4632C127.784 73.8261 127.268 73.3096 126.63 73.3096C125.993 73.3096 125.477 73.8261 125.477 74.4632C125.477 75.1003 125.993 75.6168 126.63 75.6168Z" fill="#0051FF"/>
<path d="M129.514 77.3466C126.379 77.3466 123.517 77.3466 121.837 77.3466C120.979 77.3466 120.286 76.6511 120.286 75.7933V56.9815C120.286 56.1236 120.981 55.4282 121.839 55.4282H131.422C132.28 55.4282 132.975 56.1236 132.975 56.9815V65.2338" stroke="#0051FF" stroke-width="1.42857" stroke-linecap="round"/>
<path d="M135.859 77.3459C138.726 77.3459 141.05 76.3129 141.05 75.0387V71.1217C141.05 70.9073 140.876 70.7334 140.662 70.7334H131.056C130.842 70.7334 130.668 70.9073 130.668 71.1217V75.0387C130.668 76.3129 132.992 77.3459 135.859 77.3459Z" fill="#DFEEFD" stroke="#0051FF" stroke-width="1.42857" stroke-linecap="round"/>
<path d="M141.05 72.7319C141.05 74.0062 138.726 75.0391 135.859 75.0391C132.992 75.0391 130.668 74.0062 130.668 72.7319" stroke="#0051FF" stroke-width="1.42857" stroke-linecap="round"/>
<path d="M135.859 72.7323C138.726 72.7323 141.05 71.4411 141.05 69.8483C141.05 68.2556 138.726 66.9644 135.859 66.9644C132.992 66.9644 130.668 68.2556 130.668 69.8483C130.668 71.4411 132.992 72.7323 135.859 72.7323Z" fill="#DFEEFD" stroke="#0051FF" stroke-width="1.42857" stroke-linecap="round"/>
<path d="M130.668 70.4243V75.0387" stroke="#0051FF" stroke-width="1.42857" stroke-linecap="round" stroke-linejoin="round"/>
<path d="M141.05 70.4243V75.0387" stroke="#0051FF" stroke-width="1.42857" stroke-linecap="round" stroke-linejoin="round"/>
<path d="M168.495 64.1639C169.504 64.1639 170.322 63.346 170.322 62.3371C170.322 61.3281 169.504 60.5103 168.495 60.5103C167.486 60.5103 166.668 61.3281 166.668 62.3371C166.668 63.346 167.486 64.1639 168.495 64.1639Z" fill="#DFEEFD" stroke="#0051FF" stroke-width="1.42857" stroke-linecap="round" stroke-linejoin="round"/>
<path d="M163.013 76.3443L167.885 64.1655" stroke="#0051FF" stroke-width="1.42857" stroke-linecap="round" stroke-linejoin="round"/>
<path d="M173.976 76.3443L169.104 64.1655" stroke="#0051FF" stroke-width="1.42857" stroke-linecap="round" stroke-linejoin="round"/>
<path d="M171.538 69.0366H165.449" stroke="#0051FF" stroke-width="1.42857" stroke-linejoin="round"/>
<path d="M164.232 72.6895H172.758" stroke="#0051FF" stroke-width="1.42857" stroke-linejoin="round"/>
<path d="M163.781 65.3833C163.268 64.4511 163.004 63.4026 163.013 62.3386C163.004 61.2747 163.268 60.2262 163.781 59.2939" stroke="#0051FF" stroke-width="1.42857" stroke-linecap="round" stroke-linejoin="round"/>
<path d="M173.207 59.2939C173.72 60.2262 173.984 61.2747 173.974 62.3386C173.984 63.4026 173.72 64.4511 173.207 65.3833" stroke="#0051FF" stroke-width="1.42857" stroke-linecap="round" stroke-linejoin="round"/>
<path d="M161.663 66.5999C160.946 65.2938 160.573 63.827 160.579 62.3373C160.573 60.8476 160.946 59.3808 161.663 58.0747" stroke="#0051FF" stroke-width="1.42857" stroke-linecap="round" stroke-linejoin="round"/>
<path d="M175.326 58.0747C176.043 59.3808 176.416 60.8476 176.41 62.3373C176.416 63.827 176.043 65.2938 175.326 66.5999" stroke="#0051FF" stroke-width="1.42857" stroke-linecap="round" stroke-linejoin="round"/>
<path d="M177.445 56.8574C178.373 58.5344 178.855 60.4213 178.846 62.3379C178.855 64.2544 178.373 66.1414 177.445 67.8183" stroke="#0051FF" stroke-width="1.42857" stroke-linecap="round" stroke-linejoin="round"/>
<path d="M159.544 67.8183C158.616 66.1414 158.133 64.2544 158.143 62.3379C158.133 60.4213 158.616 58.5344 159.544 56.8574" stroke="#0051FF" stroke-width="1.42857" stroke-linecap="round" stroke-linejoin="round"/>
<circle cx="88.5678" cy="104.574" r="8.80265" fill="#DFEEFD" stroke="#0051FF" stroke-width="1.29431"/>
<path d="M98.7822 108.676C99.2914 107.408 99.5717 106.025 99.5717 104.575C99.5717 103.372 99.3785 102.214 99.0215 101.13" stroke="#0051FF" stroke-width="1.29431" stroke-linecap="round"/>
<path d="M79.6184 98.1714C78.6291 99.5516 77.9511 101.17 77.6873 102.924" stroke="#0051FF" stroke-width="1.29431" stroke-linecap="round"/>
<circle cx="86.3682" cy="110.076" r="1.10033" fill="white" stroke="#0051FF" stroke-width="1.29431"/>
<circle cx="86.3682" cy="100.173" r="1.10033" fill="white" stroke="#0051FF" stroke-width="1.29431"/>
<circle cx="83.0666" cy="105.675" r="1.10033" fill="white" stroke="#0051FF" stroke-width="1.29431"/>
<circle cx="91.8706" cy="100.173" r="1.10033" fill="white" stroke="#0051FF" stroke-width="1.29431"/>
<circle cx="94.0698" cy="103.474" r="1.10033" fill="white" stroke="#0051FF" stroke-width="1.29431"/>
<path d="M94.6193 116.678L89.4644 103.557C89.1442 102.742 87.9907 102.742 87.6705 103.557L82.5156 116.678" stroke="#0051FF" stroke-width="1.29431" stroke-linecap="round"/>
<path d="M78.6648 116.678H98.4708" stroke="#0051FF" stroke-width="1.29431" stroke-linecap="round"/>
<path d="M136.336 101.518C136.615 102.884 136.495 104.302 135.991 105.602C135.487 106.902 134.62 108.03 133.493 108.851C132.765 109.389 132.944 111.347 132.944 112.231V114.62C131.845 115.683 130.46 117.14 129.361 118.203H128.166C127.068 117.14 125.682 115.683 124.583 114.62V112.231C124.583 111.371 124.786 109.401 124.07 108.875C123.118 108.197 122.343 107.301 121.809 106.262C121.274 105.223 120.997 104.071 121 102.903C121.032 101.763 121.317 100.645 121.835 99.6287C122.353 98.6127 123.09 97.7244 123.993 97.0282C124.896 96.332 125.942 95.8453 127.057 95.6034C128.171 95.3614 129.325 95.3702 130.436 95.6292C131.889 95.9229 133.223 96.6379 134.272 97.6851C135.322 98.7322 136.039 100.065 136.336 101.518V101.518Z" stroke="#0051FF" stroke-width="1.40236" stroke-linecap="round" stroke-linejoin="round"/>
<path d="M132.253 111.037H125.194V114.62H132.253V111.037Z" fill="#DFEEFD" stroke="#0051FF" stroke-width="1.40236" stroke-linecap="round" stroke-linejoin="round"/>
<path d="M126.604 102.677L128.718 103.871L130.832 102.677" stroke="#0051FF" stroke-width="1.40236" stroke-linecap="round" stroke-linejoin="round"/>
<path d="M128.717 104.468V110.918" stroke="#0051FF" stroke-width="1.40236" stroke-linecap="round" stroke-linejoin="round"/>
<path d="M177.681 98.2856H159.181C157.819 98.2856 156.714 99.39 156.714 100.752V111.852C156.714 113.215 157.819 114.319 159.181 114.319H177.681C179.044 114.319 180.148 113.215 180.148 111.852V100.752C180.148 99.39 179.044 98.2856 177.681 98.2856Z" fill="#F2F6FF" stroke="#0051FF" stroke-width="1.42857" stroke-linecap="round" stroke-linejoin="round"/>
<path d="M163.498 105.686H157.331" stroke="#0051FF" stroke-width="1.42857" stroke-linecap="round" stroke-linejoin="round"/>
<path d="M179.531 105.686H173.365" stroke="#0051FF" stroke-width="1.42857" stroke-linecap="round" stroke-linejoin="round"/>
<path d="M168.432 98.9038V113.704" stroke="#0051FF" stroke-width="1.42857" stroke-linecap="round" stroke-linejoin="round"/>
<path d="M165.965 106.92C167.328 106.92 168.432 105.815 168.432 104.453C168.432 103.091 167.328 101.986 165.965 101.986C164.603 101.986 163.499 103.091 163.499 104.453C163.499 105.815 164.603 106.92 165.965 106.92Z" fill="#F2F6FF" stroke="#0051FF" stroke-width="1.42857" stroke-linecap="round" stroke-linejoin="round"/>
<path d="M170.898 106.92C172.261 106.92 173.365 105.815 173.365 104.453C173.365 103.091 172.261 101.986 170.898 101.986C169.536 101.986 168.432 103.091 168.432 104.453C168.432 105.815 169.536 106.92 170.898 106.92Z" fill="#F2F6FF" stroke="#0051FF" stroke-width="1.42857" stroke-linecap="round" stroke-linejoin="round"/>
<path d="M163.499 110.619C163.499 110.619 166.424 110.619 168.432 105.686L163.499 110.619Z" fill="#F2F6FF"/>
<path d="M163.499 110.619C163.499 110.619 166.424 110.619 168.432 105.686" stroke="#0051FF" stroke-width="1.42857" stroke-linecap="round" stroke-linejoin="round"/>
<path d="M173.365 110.619C173.365 110.619 170.44 110.619 168.432 105.686L173.365 110.619Z" fill="#F2F6FF"/>
<path d="M173.365 110.619C173.365 110.619 170.44 110.619 168.432 105.686" stroke="#0051FF" stroke-width="1.42857" stroke-linecap="round" stroke-linejoin="round"/>
<rect width="31.8354" height="9.1833" rx="2.33942" transform="matrix(-1 0 0 1 194.216 172.183)" fill="#77B1FF" stroke="#0051FF" stroke-width="2" stroke-linejoin="round"/>
<rect width="31.8354" height="9.1833" rx="2.33942" transform="matrix(-1 0 0 1 189.931 181.367)" fill="#77B1FF" stroke="#0051FF" stroke-width="2" stroke-linejoin="round"/>
<rect width="31.8354" height="9.1833" rx="2.33942" transform="matrix(-1 0 0 1 189.931 163)" fill="#77B1FF" stroke="#0051FF" stroke-width="2" stroke-linejoin="round"/>
<rect width="31.8354" height="9.1833" rx="2.33942" transform="matrix(-1 0 0 1 189.931 190.549)" fill="#77B1FF" stroke="#0051FF" stroke-width="2" stroke-linejoin="round"/>
<rect width="31.8354" height="9.1833" rx="2.33942" transform="matrix(-1 0 0 1 189.931 199.733)" fill="#77B1FF" stroke="#0051FF" stroke-width="2" stroke-linejoin="round"/>
<rect width="31.8354" height="9.1833" rx="2.33942" transform="matrix(-1 0 0 1 189.931 208.916)" fill="#77B1FF" stroke="#0051FF" stroke-width="2" stroke-linejoin="round"/>
<rect width="31.8354" height="9.1833" rx="2.33942" transform="matrix(-1 0 0 1 215.644 208.916)" fill="#77B1FF" stroke="#0051FF" stroke-width="2" stroke-linejoin="round"/>
<rect width="31.8354" height="9.1833" rx="2.33942" transform="matrix(-1 0 0 1 215.644 190.549)" fill="#77B1FF" stroke="#0051FF" stroke-width="2" stroke-linejoin="round"/>
<path d="M173.777 190.115C175.518 193.543 176.203 197.411 175.746 201.229C175.289 205.047 173.709 208.644 171.208 211.564C168.706 214.485 165.395 216.599 161.692 217.637C157.99 218.676 154.062 218.592 150.407 217.399C146.752 216.205 143.532 213.954 141.156 210.93C138.78 207.907 137.354 204.248 137.058 200.414C136.762 196.58 137.609 192.743 139.493 189.391C141.377 186.039 144.213 183.32 147.642 181.58C152.24 179.247 157.576 178.836 162.477 180.436C167.378 182.037 171.442 185.518 173.777 190.115Z" fill="#5CA3FF" stroke="#0051FF" stroke-width="2" stroke-linejoin="round"/>
<path d="M168.239 200.336C168.519 198.001 168.099 195.636 167.034 193.54C165.607 190.731 163.123 188.604 160.128 187.626C157.133 186.648 153.872 186.9 151.062 188.325C148.965 189.388 147.231 191.05 146.078 193.099C144.926 195.149 144.407 197.493 144.588 199.837C144.768 202.181 145.64 204.42 147.093 206.268C148.545 208.117 150.513 209.493 152.749 210.223C154.983 210.952 157.385 211.003 159.648 210.368C161.912 209.733 163.937 208.44 165.466 206.655C166.995 204.869 167.96 202.67 168.239 200.336Z" fill="#F2F6FF" stroke="#0051FF" stroke-width="2"/>
<rect width="31.8354" height="9.1833" rx="2.33942" transform="matrix(-1 0 0 1 219.318 199.733)" fill="#77B1FF" stroke="#0051FF" stroke-width="2" stroke-linejoin="round"/>
<path d="M86.7591 144.508L19.3679 144.508L15.2183 148.902H88.8885L86.7591 144.508Z" fill="#4C9AFD" stroke="#0051FF" stroke-width="1.81818" stroke-linecap="round" stroke-linejoin="round"/>
<path d="M85.3857 229.301H18.5294C14.6182 229.301 11.5626 226.081 12.0515 222.4L15.1564 150.355C15.1914 149.543 15.8597 148.903 16.6721 148.903H87.3651C88.1776 148.903 88.8459 149.543 88.8808 150.355L91.9858 222.4C92.2302 226.081 89.2968 229.301 85.3857 229.301Z" fill="#F2F6FF" stroke="#0051FF" stroke-width="1.81818" stroke-linecap="round" stroke-linejoin="round"/>
<path d="M69.2727 159.182V146.138C69.2727 136.79 61.7455 129.182 51.8209 129.182C41.8963 129.182 33.8181 136.79 33.8181 146.138V159.182" stroke="#0051FF" stroke-width="1.81818" stroke-linecap="round" stroke-linejoin="round"/>
<path d="M33.3704 161.604C35.1408 161.604 36.5759 160.647 36.5759 159.467C36.5759 158.286 35.1408 157.33 33.3704 157.33C31.5999 157.33 30.1648 158.286 30.1648 159.467C30.1648 160.647 31.5999 161.604 33.3704 161.604Z" fill="#0051FF"/>
<path d="M69.7002 161.604C71.4706 161.604 72.9058 160.647 72.9058 159.467C72.9058 158.286 71.4706 157.33 69.7002 157.33C67.9298 157.33 66.4946 158.286 66.4946 159.467C66.4946 160.647 67.9298 161.604 69.7002 161.604Z" fill="#0051FF"/>
</g>
<defs>
<clipPath id="clip0_2570_26670">
<rect width="250" height="250" fill="white"/>
</clipPath>
</defs>
</svg>
