<svg xmlns="http://www.w3.org/2000/svg" viewBox="0 0 650 716" xmlns:v="https://vecta.io/nano"><path d="M1.5 290.6c2.5-20 18.6-38.8 35.4-48.8-19.7-35.1-3.3-76.7 32.8-92.2-21.6-39.2 5.9-89.1 50-93.1h295.9l75.2 27.9V52.1l1.9-1.9h156.1v426.3h-158v-36.7h-20.9l-67.6 77.7c-29.5 33.9-49.7 74.5-62.8 117.5-4.8 15.7-13.4 28-32.7 30-63.3 6.4-105.8-26.1-101.8-91.8 2.6-42.6 24-79.7 36.7-119.5-53.1 0-107.1 2.9-160.1 0-47.7-2.6-78.8-59.4-49.8-99.3-11.8-7.5-21.3-18.7-26.2-31.9-1.1-3-3.7-11.5-4.1-14.3-.5-4.1-.5-13.7 0-17.7zm295.9 125.2c.3 2.1-.6 3.8-1.2 5.7-13.9 44-65.7 137.4-51.2 180.2 4.6 13.4 17.6 23.6 31.7 25.2 4.9.6 19.5 1 23.9.1 1.5-.3 2.6-.4 2.9-2.1h0c7.7-42 26.5-81.2 54.3-113.5l94.4-109.6h38.6v-277L408 94.4H122.3c-23.8 3.2-30.4 35.2-9.9 47.9 1.6 1 8.6 4 9.9 4h99.3v38H86.9c-.8 0-8.1 3.6-9.4 4.5-15.4 10.6-14.4 34.5 1.8 43.6 1.2.7 8.4 3.8 8.9 3.8h99.3v38H59c-2.6 0-11.1 6.1-13.1 8.4-10.4 12.3-8.1 30.9 5.7 39.5 1.6 1 8.6 4 9.9 4h123.3v38H79.2c-.8 0-8.1 3.6-9.4 4.5-15.3 10.5-15.1 33.6.8 43.4 1.6 1 8.6 4 9.9 4h216.8zm231.3 22.8h82.2V88.1h-80.3l-1.9 1.9v348.5z" fill="#aa0050"/></svg>