<svg xmlns="http://www.w3.org/2000/svg" viewBox="0 0 650 716" xmlns:v="https://vecta.io/nano"><path d="M647 425.1c-2.5 19.9-18.5 38.6-35.2 48.6 19.6 34.9 3.3 76.3-32.6 91.8 21.5 39-5.9 88.7-49.8 92.6H234.8L160 630.4v32.1l-1.9 1.9H2.7V240H160v36.5h20.8l67.3-77.4c29.4-33.8 49.5-74.1 62.5-116.9 4.7-15.6 13.4-27.9 32.6-29.8 63-6.4 105.3 26 101.3 91.3-2.6 42.4-23.9 79.4-36.5 118.9 52.9 0 106.6-2.9 159.4 0 47.4 2.6 78.5 59.1 49.6 98.8 11.7 7.5 21.2 18.6 26.1 31.8 1.1 3 3.7 11.4 4.1 14.2.5 4.1.5 13.6 0 17.6zM352.5 300.5c-.3-2.1.6-3.8 1.2-5.7 13.9-43.8 65.4-136.7 51-179.3-4.5-13.4-17.5-23.4-31.6-25.1-4.9-.6-19.4-1-23.8-.1-1.4.3-2.6.4-2.9 2.1h0c-7.7 41.8-26.3 80.8-54.1 113l-94 109.1h-38.4v275.8l82.4 30.2h284.4c23.7-3.2 30.2-35.1 9.9-47.6-1.6-1-8.6-4-9.9-4h-98.8v-37.8h134c.8 0 8-3.6 9.4-4.5 15.3-10.5 14.4-34.3-1.8-43.4-1.2-.7-8.4-3.7-8.9-3.7h-98.8v-37.8h127.7c2.6 0 11.1-6.1 13-8.4 10.4-12.2 8-30.8-5.7-39.3-1.6-1-8.6-4-9.9-4H464.2v-37.8h105.1c.8 0 8-3.6 9.4-4.5 15.2-10.4 15-33.4-.8-43.2-1.6-1-8.6-4-9.9-4H352.2zm-230.3-22.7H40.4v348.8h79.9l1.9-1.9V277.8z" fill="#0051ff"/></svg>