<svg width="250" height="250" viewBox="0 0 250 250" fill="none" xmlns="http://www.w3.org/2000/svg">
<rect width="250" height="250" fill="white"/>
<rect x="54" y="44.7451" width="108.69" height="158.679" fill="white" stroke="#004BE2" stroke-width="2"/>
<path d="M54 34.3567C54 29.7414 57.7414 26 62.3567 26H154.333C158.948 26 162.69 29.7414 162.69 34.3567V45.4238H54V34.3567Z" fill="#5FB9FF" stroke="#004BE2" stroke-width="2"/>
<path d="M54 202.747H162.69V213.814C162.69 218.429 158.948 222.171 154.333 222.171H62.3567C57.7414 222.171 54 218.429 54 213.814V202.747Z" fill="#5FB9FF" stroke="#004BE2" stroke-width="2"/>
<mask id="path-4-inside-1_3592_21380" fill="white">
<rect x="93.5625" y="33.9277" width="28.5651" height="3.57064" rx="1.55946"/>
</mask>
<rect x="93.5625" y="33.9277" width="28.5651" height="3.57064" rx="1.55946" fill="#F874A4" stroke="#004BE2" stroke-width="3.57064" mask="url(#path-4-inside-1_3592_21380)"/>
<path d="M84.6802 61.6802L84.6802 61.6802C87.0798 59.2806 90.0894 58.1254 93.9501 57.559C97.7605 57 102.521 57 108.497 57H108.575H108.653C114.63 57 119.39 57 123.2 57.559C127.061 58.1254 130.07 59.2806 132.47 61.6802C134.87 64.0798 136.025 67.0894 136.591 70.9501C137.15 74.7605 137.15 79.5207 137.15 85.4973V85.5751V85.6529C137.15 91.6295 137.15 96.3897 136.591 100.2C136.025 104.061 134.87 107.07 132.47 109.47C132.47 109.47 132.47 109.47 132.47 109.47M84.6802 61.6802L85.3873 108.763C89.7746 113.15 96.4918 113.15 108.575 113.15H108.575H108.575C120.658 113.15 127.376 113.15 131.763 108.763L132.47 109.47M84.6802 61.6802C82.2806 64.0798 81.1254 67.0894 80.559 70.9501C80 74.7605 80 79.5207 80 85.4973V85.5751V85.6529C80 91.6295 80 96.3897 80.559 100.2C81.1254 104.061 82.2806 107.07 84.6802 109.47C87.0798 111.87 90.0894 113.025 93.9501 113.591C97.7605 114.15 102.521 114.15 108.497 114.15H108.575H108.653C114.63 114.15 119.39 114.15 123.2 113.591C127.061 113.025 130.07 111.87 132.47 109.47M84.6802 61.6802L132.47 109.47" fill="white" stroke="#004BE2" stroke-width="2"/>
<path d="M131.056 108.056L131.056 108.056C133.044 106.068 134.082 103.525 134.612 99.9099C135.148 96.2606 135.15 91.6452 135.15 85.5751C135.15 79.505 135.148 74.8897 134.612 71.2404C134.082 67.6248 133.044 65.0821 131.056 63.0944L131.763 62.3873L131.056 63.0944C129.068 61.1067 126.525 60.0683 122.91 59.5378C119.261 59.0024 114.645 59 108.575 59C102.505 59 97.8897 59.0024 94.2404 59.5378C90.6248 60.0683 88.0821 61.1067 86.0944 63.0944M131.056 108.056L86.0944 63.0944M131.056 108.056C129.068 110.044 126.525 111.082 122.91 111.612C119.261 112.148 114.645 112.15 108.575 112.15C102.505 112.15 97.8897 112.148 94.2404 111.612C90.6248 111.082 88.0821 110.044 86.0944 108.056L85.3873 108.763M131.056 108.056L85.3873 108.763M86.0944 63.0944C84.1067 65.0821 83.0683 67.6248 82.5378 71.2404C82.0024 74.8897 82 79.505 82 85.5751C82 91.6452 82.0024 96.2606 82.5378 99.9099C83.0683 103.525 84.1067 106.068 86.0944 108.056L85.3873 108.763M86.0944 63.0944L85.3873 108.763" fill="white" stroke="#9BD3FF" stroke-width="2"/>
<rect x="86.5" y="132" width="43" height="21" rx="2.11891" fill="white" stroke="#004BE2" stroke-width="2"/>
<path d="M102.511 145.463H100.927V139.543H103.143C104.407 139.543 105.703 139.807 105.703 141.559C105.703 143.311 104.303 143.575 103.143 143.575H102.511V145.463ZM102.511 140.839V142.359H103.199C103.943 142.359 104.143 142.047 104.143 141.599C104.143 141.151 103.943 140.839 103.199 140.839H102.511ZM108.122 141.583L107.554 143.223H108.682L108.138 141.583H108.122ZM106.794 145.463H105.338L107.434 139.519H108.922L111.018 145.463H109.402L109.042 144.359H107.178L106.794 145.463ZM114.023 145.463H112.423V142.991L110.359 139.543H112.007L113.231 141.639L114.463 139.543H116.095L114.023 142.991V145.463Z" fill="#004BE2"/>
<rect x="98.6133" y="75.6533" width="23.8133" height="19.8444" fill="#3FC9FF"/>
<rect width="5.10038" height="19.8444" transform="matrix(-1 0 0 1 97.7598 75.6533)" fill="#3FC9FF"/>
<path d="M113.062 85.092C113.062 82.6185 115.068 80.6133 117.541 80.6133H124.412V89.5708H117.541C115.068 89.5708 113.062 87.5656 113.062 85.092Z" fill="#3FC9FF"/>
<path d="M116.805 87.2296C117.719 87.2296 118.459 86.4892 118.459 85.5759C118.459 84.6626 117.719 83.9222 116.805 83.9222C115.892 83.9222 115.152 84.6626 115.152 85.5759C115.152 86.4892 115.892 87.2296 116.805 87.2296Z" fill="#004BE2"/>
<path fill-rule="evenodd" clip-rule="evenodd" d="M92 93.0175C92 95.2581 93.7315 97.1518 95.9602 97.1518H119.46C121.689 97.1518 123.42 95.2581 123.42 93.0175V90.537H124.247C124.704 90.537 125.074 90.1668 125.074 89.7101V81.4416C125.074 80.985 124.704 80.6148 124.247 80.6148H123.42V78.1342C123.42 75.8937 121.689 74 119.46 74H95.9602C93.7315 74 92 75.8937 92 78.1342V93.0175ZM93.6537 78.1342C93.6537 76.7216 94.7279 75.6537 95.9602 75.6537H96.9611V95.4981H95.9602C94.7279 95.4981 93.6537 94.4302 93.6537 93.0175V78.1342ZM113.498 85.5759C113.498 83.7493 114.979 82.2685 116.805 82.2685H123.42V88.8833H116.805C114.979 88.8833 113.498 87.4025 113.498 85.5759ZM111.844 85.5759C111.844 82.836 114.066 80.6148 116.805 80.6148H121.767V78.1342C121.767 76.7216 120.692 75.6537 119.46 75.6537H98.6148V95.4981H119.46C120.692 95.4981 121.767 94.4302 121.767 93.0175V90.537H116.805C114.066 90.537 111.844 88.3158 111.844 85.5759Z" fill="#004BE2"/>
<path d="M134.469 132.44C134.469 130.1 136.365 128.204 138.704 128.204H235.067C237.406 128.204 239.302 130.1 239.302 132.44V217.282C239.302 222.513 235.062 226.753 229.831 226.753H143.94C138.709 226.753 134.469 222.513 134.469 217.282V132.44Z" fill="white" stroke="#004BE2" stroke-width="2" stroke-linejoin="round"/>
<path d="M134.469 132.136C134.469 129.797 136.365 127.9 138.704 127.9H235.067C237.406 127.9 239.302 129.797 239.302 132.136V157.873H134.469V132.136Z" fill="#9BD3FF" stroke="#004BE2" stroke-width="2" stroke-linejoin="round"/>
<rect x="145.945" y="165.891" width="16.376" height="14.8163" rx="1.55962" fill="#9BD3FF"/>
<rect x="145.945" y="184.606" width="16.376" height="14.8163" rx="1.55962" fill="#9BD3FF"/>
<rect x="145.945" y="203.322" width="16.376" height="14.8163" rx="1.55962" fill="#9BD3FF"/>
<rect x="167.781" y="165.891" width="16.376" height="14.8163" rx="1.55962" fill="#9BD3FF"/>
<rect x="167.781" y="184.606" width="16.376" height="14.8163" rx="1.55962" fill="#9BD3FF"/>
<rect x="167.781" y="203.322" width="16.376" height="14.8163" rx="1.55962" fill="#9BD3FF"/>
<rect x="189.613" y="165.891" width="16.376" height="14.8163" rx="1.55962" fill="#9BD3FF"/>
<rect x="189.613" y="184.606" width="16.376" height="14.8163" rx="1.55962" fill="#9BD3FF"/>
<rect x="189.613" y="203.322" width="16.376" height="14.8163" rx="1.55962" fill="#5ED3A9"/>
<rect x="211.449" y="165.891" width="16.376" height="14.8163" rx="1.55962" fill="#9BD3FF"/>
<rect x="211.449" y="184.606" width="16.376" height="14.8163" rx="1.55962" fill="#9BD3FF"/>
<rect x="211.449" y="203.322" width="16.376" height="14.8163" rx="1.55962" fill="#9BD3FF"/>
<rect x="214.008" y="121.662" width="5.01827" height="18.275" rx="2.50913" fill="#9BD3FF" stroke="#004BE2" stroke-width="2"/>
<rect x="187.496" y="121.662" width="5.01827" height="18.275" rx="2.50913" fill="#9BD3FF" stroke="#004BE2" stroke-width="2"/>
<rect x="159.422" y="121.662" width="5.01827" height="18.275" rx="2.50913" fill="#9BD3FF" stroke="#004BE2" stroke-width="2"/>
<circle cx="51" cy="178" r="30" fill="#5ED3A9" stroke="white" stroke-width="2"/>
<path d="M51.4188 194.09C59.9344 194.09 66.8377 187.186 66.8377 178.671C66.8377 170.155 59.9344 163.252 51.4188 163.252C42.9032 163.252 36 170.155 36 178.671C36 187.186 42.9032 194.09 51.4188 194.09Z" stroke="white" stroke-width="2" stroke-linecap="round" stroke-linejoin="round"/>
<path d="M37.9277 164.906C39.5901 163.276 41.5464 161.945 43.7098 161M64.9107 164.906C63.2483 163.276 61.292 161.945 59.1286 161" stroke="white" stroke-width="2" stroke-linecap="round" stroke-linejoin="round"/>
<path d="M58.1657 185.415L51.4199 178.67V171.924" stroke="white" stroke-width="2" stroke-linecap="round" stroke-linejoin="round"/>
<path d="M43.3809 193.126L41.7827 195.586" stroke="white" stroke-width="2" stroke-linecap="round"/>
<path d="M59.1289 193.126L60.727 195.586" stroke="white" stroke-width="2" stroke-linecap="round"/>
<rect x="112.75" y="182.056" width="31.3895" height="9.05467" rx="2.33918" fill="#5FB9FF" stroke="#004BE2" stroke-width="2" stroke-linejoin="round"/>
<rect x="116.975" y="191.109" width="31.3895" height="9.05467" rx="2.33918" fill="#5FB9FF" stroke="#004BE2" stroke-width="2" stroke-linejoin="round"/>
<rect x="116.975" y="173" width="31.3895" height="9.05467" rx="2.33918" fill="#5FB9FF" stroke="#004BE2" stroke-width="2" stroke-linejoin="round"/>
<rect x="116.975" y="200.164" width="31.3895" height="9.05467" rx="2.33918" fill="#5FB9FF" stroke="#004BE2" stroke-width="2" stroke-linejoin="round"/>
<rect x="116.975" y="209.219" width="31.3895" height="9.05467" rx="2.33918" fill="#5FB9FF" stroke="#004BE2" stroke-width="2" stroke-linejoin="round"/>
<rect x="116.975" y="218.273" width="31.3895" height="9.05467" rx="2.33918" fill="#5FB9FF" stroke="#004BE2" stroke-width="2" stroke-linejoin="round"/>
<rect x="91.623" y="218.273" width="31.3895" height="9.05467" rx="2.33918" fill="#5FB9FF" stroke="#004BE2" stroke-width="2" stroke-linejoin="round"/>
<rect x="91.623" y="200.164" width="31.3895" height="9.05467" rx="2.33918" fill="#5FB9FF" stroke="#004BE2" stroke-width="2" stroke-linejoin="round"/>
<path d="M133.402 199.758C131.685 203.139 131.009 206.953 131.46 210.718C131.911 214.483 133.469 218.029 135.935 220.909C138.402 223.789 141.668 225.874 145.319 226.898C148.97 227.922 152.842 227.84 156.447 226.662C160.052 225.485 163.226 223.265 165.569 220.284C167.913 217.303 169.319 213.694 169.611 209.914C169.903 206.133 169.067 202.35 167.209 199.044C165.351 195.739 162.555 193.058 159.173 191.342C154.64 189.041 149.378 188.636 144.545 190.214C139.712 191.792 135.704 195.225 133.402 199.758Z" fill="#5FB9FF" stroke="#004BE2" stroke-width="2" stroke-linejoin="round"/>
<path d="M138.876 209.835C138.601 207.536 139.014 205.207 140.063 203.142C141.469 200.376 143.915 198.281 146.865 197.317C149.815 196.354 153.027 196.602 155.794 198.006C157.859 199.053 159.568 200.69 160.703 202.708C161.838 204.726 162.349 207.035 162.171 209.344C161.993 211.653 161.134 213.858 159.704 215.679C158.273 217.499 156.334 218.854 154.133 219.573C151.932 220.292 149.567 220.342 147.337 219.716C145.108 219.091 143.114 217.818 141.608 216.059C140.101 214.3 139.151 212.135 138.876 209.835Z" fill="#9BD3FF" stroke="#004BE2" stroke-width="2"/>
<rect x="88" y="209.22" width="31.3895" height="9.05467" rx="2.33918" fill="#5FB9FF" stroke="#004BE2" stroke-width="2" stroke-linejoin="round"/>
</svg>
