<svg width="250" height="250" viewBox="0 0 250 250" fill="none" xmlns="http://www.w3.org/2000/svg">
<rect width="250" height="250" fill="white"/>
<rect x="70" y="40.7451" width="108.69" height="158.679" fill="white" stroke="#004BE2" stroke-width="2"/>
<path d="M70 30.3567C70 25.7414 73.7414 22 78.3567 22H170.333C174.948 22 178.69 25.7414 178.69 30.3567V41.4238H70V30.3567Z" fill="#5FB9FF" stroke="#004BE2" stroke-width="2"/>
<path d="M70 198.747H178.69V209.814C178.69 214.429 174.948 218.171 170.333 218.171H78.3567C73.7414 218.171 70 214.429 70 209.814V198.747Z" fill="#5FB9FF" stroke="#004BE2" stroke-width="2"/>
<mask id="path-4-inside-1_3592_9536" fill="white">
<rect x="110.062" y="29.9277" width="28.5651" height="3.57064" rx="1.55946"/>
</mask>
<rect x="110.062" y="29.9277" width="28.5651" height="3.57064" rx="1.55946" fill="#F874A4" stroke="#004BE2" stroke-width="3.57064" mask="url(#path-4-inside-1_3592_9536)"/>
<rect x="103" y="145" width="43" height="21" rx="2.11891" fill="white" stroke="#004BE2" stroke-width="2"/>
<path d="M119.224 158.463H116.64V152.543H119.128C120.112 152.543 121.28 152.695 121.28 153.999C121.28 154.855 120.752 155.239 120.16 155.351V155.367C120.88 155.495 121.424 155.839 121.424 156.823C121.424 158.111 120.224 158.463 119.224 158.463ZM118.208 153.767V154.903H118.968C119.544 154.903 119.76 154.679 119.76 154.335C119.76 153.983 119.544 153.767 118.984 153.767H118.208ZM118.208 156.007V157.263H119.008C119.608 157.263 119.864 157.031 119.864 156.623C119.864 156.215 119.6 156.007 118.992 156.007H118.208ZM124.719 158.551C122.991 158.551 122.231 157.655 122.231 156.087V152.543H123.831V156.079C123.831 156.895 124.095 157.263 124.735 157.263C125.375 157.263 125.631 156.895 125.631 156.079V152.543H127.199V156.087C127.199 157.655 126.447 158.551 124.719 158.551ZM131.307 158.463H129.707V155.991L127.643 152.543H129.291L130.515 154.639L131.747 152.543H133.379L131.307 155.991V158.463Z" fill="#004BE2"/>
<rect width="30.2101" height="8.71445" rx="2.33942" transform="matrix(-1 0 0 1 186.295 180.714)" fill="#5FB9FF" stroke="#004BE2" stroke-width="2" stroke-linejoin="round"/>
<rect width="30.2101" height="8.71445" rx="2.33942" transform="matrix(-1 0 0 1 182.229 189.429)" fill="#5FB9FF" stroke="#004BE2" stroke-width="2" stroke-linejoin="round"/>
<rect width="30.2101" height="8.71445" rx="2.33942" transform="matrix(-1 0 0 1 182.229 172)" fill="#5FB9FF" stroke="#004BE2" stroke-width="2" stroke-linejoin="round"/>
<rect width="30.2101" height="8.71445" rx="2.33942" transform="matrix(-1 0 0 1 182.229 198.143)" fill="#5FB9FF" stroke="#004BE2" stroke-width="2" stroke-linejoin="round"/>
<rect width="30.2101" height="8.71445" rx="2.33942" transform="matrix(-1 0 0 1 182.229 206.857)" fill="#5FB9FF" stroke="#004BE2" stroke-width="2" stroke-linejoin="round"/>
<rect width="30.2101" height="8.71445" rx="2.33942" transform="matrix(-1 0 0 1 182.229 215.571)" fill="#5FB9FF" stroke="#004BE2" stroke-width="2" stroke-linejoin="round"/>
<rect width="30.2101" height="8.71445" rx="2.33942" transform="matrix(-1 0 0 1 206.629 215.571)" fill="#5FB9FF" stroke="#004BE2" stroke-width="2" stroke-linejoin="round"/>
<rect width="30.2101" height="8.71445" rx="2.33942" transform="matrix(-1 0 0 1 206.629 198.143)" fill="#5FB9FF" stroke="#004BE2" stroke-width="2" stroke-linejoin="round"/>
<path d="M166.899 197.73C168.551 200.983 169.201 204.654 168.767 208.277C168.333 211.9 166.835 215.313 164.461 218.084C162.087 220.856 158.945 222.862 155.431 223.847C151.918 224.832 148.191 224.754 144.722 223.621C141.253 222.488 138.198 220.352 135.943 217.483C133.689 214.614 132.335 211.141 132.054 207.503C131.773 203.865 132.578 200.224 134.366 197.043C136.154 193.862 138.845 191.282 142.098 189.631C146.461 187.417 151.525 187.027 156.176 188.546C160.826 190.064 164.684 193.368 166.899 197.73Z" fill="#5FB9FF" stroke="#004BE2" stroke-width="2" stroke-linejoin="round"/>
<path d="M161.594 207.423C161.858 205.218 161.462 202.983 160.456 201.003C159.108 198.35 156.761 196.341 153.932 195.417C151.102 194.493 148.022 194.731 145.368 196.077C143.387 197.081 141.749 198.651 140.66 200.587C139.571 202.523 139.081 204.737 139.252 206.952C139.423 209.166 140.246 211.281 141.618 213.027C142.99 214.774 144.85 216.073 146.961 216.763C149.072 217.452 151.34 217.5 153.479 216.9C155.617 216.3 157.53 215.079 158.974 213.392C160.419 211.705 161.331 209.628 161.594 207.423Z" fill="#9BD3FF" stroke="#004BE2" stroke-width="2"/>
<rect width="30.2101" height="8.71445" rx="2.33942" transform="matrix(-1 0 0 1 210.115 206.857)" fill="#5FB9FF" stroke="#004BE2" stroke-width="2" stroke-linejoin="round"/>
<path d="M121.36 100.572C122.3 100.572 123.062 99.8104 123.062 98.8706C123.062 97.9308 122.3 97.1689 121.36 97.1689C120.42 97.1689 119.658 97.9308 119.658 98.8706C119.658 99.8104 120.42 100.572 121.36 100.572Z" fill="#004BE2"/>
<path d="M136.674 77.5996H126.464C122.235 77.5996 118.807 81.028 118.807 85.2571C118.807 89.4862 122.235 92.9145 126.464 92.9145H136.674C140.903 92.9145 144.331 89.4862 144.331 85.2571C144.331 81.028 140.903 77.5996 136.674 77.5996Z" fill="#9BD3FF" stroke="#004BE2" stroke-width="2" stroke-linecap="round" stroke-linejoin="round"/>
<path d="M133.611 90.1924H125.953V93.5957H133.611V90.1924Z" fill="#9BD3FF"/>
<path d="M133.475 92.915L125.613 97.1692V92.915" fill="#9BD3FF"/>
<path d="M133.475 92.915L125.613 97.1692V92.915" stroke="#004BE2" stroke-width="2" stroke-linecap="round" stroke-linejoin="round"/>
<path d="M131.571 86.958C132.511 86.958 133.272 86.1961 133.272 85.2563C133.272 84.3165 132.511 83.5547 131.571 83.5547C130.631 83.5547 129.869 84.3165 129.869 85.2563C129.869 86.1961 130.631 86.958 131.571 86.958Z" fill="#004BE2"/>
<path d="M136.674 86.958C137.614 86.958 138.376 86.1961 138.376 85.2563C138.376 84.3165 137.614 83.5547 136.674 83.5547C135.735 83.5547 134.973 84.3165 134.973 85.2563C134.973 86.1961 135.735 86.958 136.674 86.958Z" fill="#004BE2"/>
<path d="M126.463 86.958C127.403 86.958 128.165 86.1961 128.165 85.2563C128.165 84.3165 127.403 83.5547 126.463 83.5547C125.524 83.5547 124.762 84.3165 124.762 85.2563C124.762 86.1961 125.524 86.958 126.463 86.958Z" fill="#004BE2"/>
<path d="M130.718 75.0471V72.9292C130.718 71.7494 129.762 70.793 128.582 70.793H114.136C112.956 70.793 112 71.7494 112 72.9292V100.988C112 102.168 112.956 103.124 114.136 103.124H128.582C129.762 103.124 130.718 102.168 130.718 100.988V98.8703" stroke="#004BE2" stroke-width="2" stroke-linecap="round"/>
<path d="M124.5 118C141.36 118 155 104.105 155 87C155 69.8951 141.36 56 124.5 56C107.64 56 94 69.8951 94 87C94 104.105 107.64 118 124.5 118Z" stroke="#9BD3FF" stroke-width="2"/>
<path d="M153 87C153 103.032 140.224 116 124.5 116C108.776 116 96 103.032 96 87C96 70.9678 108.776 58 124.5 58C140.224 58 153 70.9678 153 87Z" stroke="#5FB9FF" stroke-width="2"/>
<mask id="path-29-inside-2_3592_9536" fill="white">
<path fill-rule="evenodd" clip-rule="evenodd" d="M21 111.493C15.4772 111.493 11 115.97 11 121.493V135.649C11 141.171 15.4771 145.649 21 145.649H24.8366C27.2824 145.649 29.6465 146.542 31.4428 148.202C32.083 148.793 32.7263 149.392 33.3656 149.987C39.0499 155.278 44.417 160.274 44.417 157.223C44.417 156.08 44.3923 154.878 44.3671 153.654C44.2739 149.128 47.9415 145.649 52.4682 145.649H88.4379C93.9608 145.649 98.4379 141.171 98.4379 135.649V121.493C98.4379 115.97 93.9608 111.493 88.4379 111.493H21Z"/>
</mask>
<path fill-rule="evenodd" clip-rule="evenodd" d="M21 111.493C15.4772 111.493 11 115.97 11 121.493V135.649C11 141.171 15.4771 145.649 21 145.649H24.8366C27.2824 145.649 29.6465 146.542 31.4428 148.202C32.083 148.793 32.7263 149.392 33.3656 149.987C39.0499 155.278 44.417 160.274 44.417 157.223C44.417 156.08 44.3923 154.878 44.3671 153.654C44.2739 149.128 47.9415 145.649 52.4682 145.649H88.4379C93.9608 145.649 98.4379 141.171 98.4379 135.649V121.493C98.4379 115.97 93.9608 111.493 88.4379 111.493H21Z" fill="#9BD3FF"/>
<path d="M33.3656 149.987L32.0029 151.451L33.3656 149.987ZM13 121.493C13 117.075 16.5817 113.493 21 113.493V109.493C14.3726 109.493 9 114.866 9 121.493H13ZM13 135.649V121.493H9V135.649H13ZM21 143.649C16.5817 143.649 13 140.067 13 135.649H9C9 142.276 14.3726 147.649 21 147.649V143.649ZM24.8366 143.649H21V147.649H24.8366V143.649ZM30.0855 149.671C30.7225 150.259 31.3632 150.855 32.0029 151.451L34.7282 148.523C34.0894 147.928 33.4434 147.327 32.8002 146.733L30.0855 149.671ZM32.0029 151.451C34.8091 154.063 37.6666 156.727 39.8281 158.337C40.3777 158.746 40.9173 159.115 41.4269 159.406C41.9123 159.683 42.4863 159.959 43.0859 160.082C43.6734 160.203 44.6901 160.248 45.5285 159.478C46.3042 158.765 46.417 157.805 46.417 157.223H42.417C42.417 157.403 42.3622 156.955 42.8221 156.532C43.0634 156.31 43.3363 156.205 43.5554 156.169C43.7524 156.136 43.8792 156.162 43.8933 156.165C43.9008 156.166 43.7546 156.129 43.4112 155.933C43.0921 155.75 42.6943 155.484 42.2178 155.129C40.2746 153.682 37.6063 151.202 34.7282 148.523L32.0029 151.451ZM46.417 157.223C46.417 156.056 46.3918 154.832 46.3666 153.613L42.3675 153.695C42.3928 154.923 42.417 156.105 42.417 157.223H46.417ZM88.4379 143.649H52.4682V147.649H88.4379V143.649ZM96.4379 135.649C96.4379 140.067 92.8562 143.649 88.4379 143.649V147.649C95.0653 147.649 100.438 142.276 100.438 135.649H96.4379ZM96.4379 121.493V135.649H100.438V121.493H96.4379ZM88.4379 113.493C92.8562 113.493 96.4379 117.075 96.4379 121.493H100.438C100.438 114.866 95.0653 109.493 88.4379 109.493V113.493ZM21 113.493H88.4379V109.493H21V113.493ZM46.3666 153.613C46.2983 150.292 48.9756 147.649 52.4682 147.649V143.649C46.9075 143.649 42.2495 147.964 42.3675 153.695L46.3666 153.613ZM24.8366 147.649C26.7971 147.649 28.6716 148.364 30.0855 149.671L32.8002 146.733C30.6214 144.719 27.7677 143.649 24.8366 143.649V147.649Z" fill="#004BE2" mask="url(#path-29-inside-2_3592_9536)"/>
<rect x="24.6621" y="121.057" width="60.1136" height="5.46487" rx="2.73243" fill="#3BA9FF"/>
<rect x="24.6621" y="130.62" width="39.6203" height="5.46487" rx="2.73243" fill="#3BA9FF"/>
<mask id="path-33-inside-3_3592_9536" fill="white">
<path fill-rule="evenodd" clip-rule="evenodd" d="M236.82 99C242.343 99 246.82 103.477 246.82 109V123.155C246.82 128.678 242.343 133.155 236.82 133.155H232.984C230.538 133.155 228.174 134.049 226.377 135.708C225.737 136.3 225.094 136.899 224.455 137.494C218.77 142.785 213.403 147.781 213.403 144.73C213.403 143.587 213.428 142.384 213.453 141.161C213.546 136.635 209.879 133.155 205.352 133.155H169.382C163.86 133.155 159.382 128.678 159.382 123.155V109C159.382 103.477 163.86 99 169.382 99H236.82Z"/>
</mask>
<path fill-rule="evenodd" clip-rule="evenodd" d="M236.82 99C242.343 99 246.82 103.477 246.82 109V123.155C246.82 128.678 242.343 133.155 236.82 133.155H232.984C230.538 133.155 228.174 134.049 226.377 135.708C225.737 136.3 225.094 136.899 224.455 137.494C218.77 142.785 213.403 147.781 213.403 144.73C213.403 143.587 213.428 142.384 213.453 141.161C213.546 136.635 209.879 133.155 205.352 133.155H169.382C163.86 133.155 159.382 128.678 159.382 123.155V109C159.382 103.477 163.86 99 169.382 99H236.82Z" fill="#9BD3FF"/>
<path d="M224.455 137.494L225.817 138.958L224.455 137.494ZM244.82 109C244.82 104.582 241.239 101 236.82 101V97C243.448 97 248.82 102.373 248.82 109H244.82ZM244.82 123.155V109H248.82V123.155H244.82ZM236.82 131.155C241.239 131.155 244.82 127.574 244.82 123.155H248.82C248.82 129.783 243.448 135.155 236.82 135.155V131.155ZM232.984 131.155H236.82V135.155H232.984V131.155ZM227.735 137.177C227.098 137.766 226.457 138.362 225.817 138.958L223.092 136.03C223.731 135.435 224.377 134.834 225.02 134.24L227.735 137.177ZM225.817 138.958C223.011 141.57 220.154 144.233 217.992 145.844C217.443 146.253 216.903 146.621 216.393 146.913C215.908 147.19 215.334 147.465 214.734 147.589C214.147 147.71 213.13 147.755 212.292 146.984C211.516 146.272 211.403 145.312 211.403 144.73H215.403C215.403 144.91 215.458 144.462 214.998 144.039C214.757 143.817 214.484 143.712 214.265 143.675C214.068 143.643 213.941 143.668 213.927 143.671C213.919 143.673 214.066 143.636 214.409 143.439C214.728 143.257 215.126 142.991 215.603 142.636C217.546 141.188 220.214 138.709 223.092 136.03L225.817 138.958ZM211.403 144.73C211.403 143.563 211.429 142.339 211.454 141.12L215.453 141.202C215.428 142.43 215.403 143.612 215.403 144.73H211.403ZM169.382 131.155H205.352V135.155H169.382V131.155ZM161.382 123.155C161.382 127.574 164.964 131.155 169.382 131.155V135.155C162.755 135.155 157.382 129.783 157.382 123.155H161.382ZM161.382 109V123.155H157.382V109H161.382ZM169.382 101C164.964 101 161.382 104.582 161.382 109H157.382C157.382 102.373 162.755 97 169.382 97V101ZM236.82 101H169.382V97H236.82V101ZM211.454 141.12C211.522 137.799 208.845 135.155 205.352 135.155V131.155C210.913 131.155 215.571 135.471 215.453 141.202L211.454 141.12ZM232.984 135.155C231.023 135.155 229.149 135.871 227.735 137.177L225.02 134.24C227.199 132.226 230.053 131.155 232.984 131.155V135.155Z" fill="#004BE2" mask="url(#path-33-inside-3_3592_9536)"/>
<rect x="173.045" y="108.563" width="60.1136" height="5.46487" rx="2.73243" fill="white"/>
<rect x="173.045" y="118.127" width="39.6203" height="5.46487" rx="2.73243" fill="white"/>
</svg>
