<svg width="250" height="250" viewBox="0 0 250 250" fill="none" xmlns="http://www.w3.org/2000/svg">
<rect x="15" y="28" width="220.653" height="159.029" rx="11.0688" fill="#F2F6FF" stroke="#0051FF" stroke-width="2"/>
<path d="M21.6406 42.027C21.6406 37.9455 24.9494 34.6367 29.0309 34.6367H220.802C224.883 34.6367 228.192 37.9455 228.192 42.027V153.258H21.6406V42.027Z" fill="white"/>
<path d="M14.9998 161.187H235.653V175.96C235.653 182.073 230.697 187.029 224.584 187.029H26.0686C19.9554 187.029 14.9998 182.073 14.9998 175.96V161.187Z" fill="#ACD0FF" stroke="#0051FF" stroke-width="2"/>
<path d="M97.1999 204.92H153.452L161.336 219.547C162.131 221.021 161.063 222.811 159.387 222.811H91.2647C89.5892 222.811 88.521 221.021 89.316 219.547L97.1999 204.92Z" fill="#ACD0FF" stroke="#0051FF" stroke-width="2"/>
<circle cx="125.326" cy="174.108" r="4.96966" fill="#5CA3FF" stroke="#0051FF" stroke-width="2"/>
<rect x="97.4961" y="187.029" width="55.6602" height="17.8908" fill="#5CA3FF" stroke="#0051FF" stroke-width="2"/>
<rect x="104.279" y="125.6" width="41.7101" height="22.855" rx="3.34303" fill="#DFEEFD"/>
<rect x="104.279" y="125.6" width="41.7101" height="22.855" rx="3.34303" stroke="#0051FF" stroke-width="2"/>
<path d="M118.265 140.028H115.047V132.656H118.146C119.371 132.656 120.825 132.845 120.825 134.469C120.825 135.535 120.168 136.013 119.431 136.153V136.173C120.327 136.332 121.005 136.76 121.005 137.986C121.005 139.59 119.51 140.028 118.265 140.028ZM117 134.18V135.595H117.946C118.664 135.595 118.933 135.316 118.933 134.887C118.933 134.449 118.664 134.18 117.966 134.18H117ZM117 136.97V138.534H117.996C118.743 138.534 119.062 138.245 119.062 137.737C119.062 137.229 118.733 136.97 117.976 136.97H117ZM125.108 140.137C122.956 140.137 122.009 139.022 122.009 137.069V132.656H124.002V137.059C124.002 138.075 124.331 138.534 125.128 138.534C125.924 138.534 126.243 138.075 126.243 137.059V132.656H128.196V137.069C128.196 139.022 127.259 140.137 125.108 140.137ZM133.311 140.028H131.319V136.95L128.749 132.656H130.801L132.325 135.266L133.859 132.656H135.892L133.311 136.95V140.028Z" fill="#0051FF"/>
<path d="M29 144.885C29 142.463 30.9634 140.5 33.3854 140.5H76.6396C79.0616 140.5 81.025 142.463 81.025 144.885V147.062H29V144.885Z" fill="#ACD0FF" stroke="#0051FF" stroke-width="2"/>
<rect x="29" y="147.062" width="52.025" height="81.5527" fill="white" stroke="#0051FF" stroke-width="2"/>
<rect x="40.1899" y="187.5" width="30" height="14" rx="2.11679" fill="#B6D8FF"/>
<path d="M49.132 196.591C47.8645 196.591 46.8765 195.856 46.8765 194.095C46.8765 192.333 47.91 191.599 49.132 191.599C50.445 191.599 50.965 192.275 51.1665 193.133L49.938 193.497C49.808 193.035 49.626 192.671 49.1255 192.671C48.482 192.671 48.1765 193.198 48.1765 194.095C48.1765 194.979 48.495 195.551 49.1385 195.551C49.6455 195.551 49.8535 195.232 50.003 194.634L51.2315 194.907C50.9975 195.882 50.445 196.591 49.132 196.591ZM53.5719 193.347L53.1104 194.68H54.0269L53.5849 193.347H53.5719ZM52.4929 196.5H51.3099L53.0129 191.67H54.2219L55.9249 196.5H54.6119L54.3194 195.603H52.8049L52.4929 196.5ZM59.7629 196.5H56.4414V191.69H57.7414V195.453H59.7629V196.5ZM63.6286 196.5H60.3071V191.69H61.6071V195.453H63.6286V196.5Z" fill="#0051FF"/>
<path d="M29 228.614H81.025V229.552C81.025 232.14 78.9266 234.239 76.3381 234.239H33.3854C30.9634 234.239 29 232.275 29 229.853V228.614Z" fill="#ACD0FF" stroke="#0051FF" stroke-width="2"/>
<rect x="48.2168" y="142.867" width="13.3883" height="1.69044" rx="0.730907" fill="#0051FF"/>
<path d="M68.6191 161.711L68.6191 157.195C68.6191 156.259 67.8603 155.5 66.9242 155.5L62.4082 155.5" stroke="#0051FF" stroke-width="2" stroke-linecap="round"/>
<path d="M48.2109 155.5H43.6949C42.7588 155.5 42 156.259 42 157.195V161.711" stroke="#0051FF" stroke-width="2" stroke-linecap="round"/>
<path d="M62.8497 182.118L67.3656 182.118C68.3017 182.118 69.0605 181.359 69.0605 180.423L69.0605 175.907" stroke="#0051FF" stroke-width="2" stroke-linecap="round"/>
<path d="M42.4434 175.907L42.4434 180.423C42.4434 181.359 43.2022 182.118 44.1383 182.118L48.6543 182.118" stroke="#0051FF" stroke-width="2" stroke-linecap="round"/>
<path d="M65.36 168.5C65.36 173.669 61.1694 177.86 56 177.86C50.8306 177.86 46.64 173.669 46.64 168.5C46.64 163.331 50.8306 159.14 56 159.14C61.1694 159.14 65.36 163.331 65.36 168.5Z" stroke="#0051FF" stroke-width="1.28" stroke-linecap="round"/>
<mask id="path-21-inside-1_2568_22451" fill="white">
<path d="M62.9045 175.88C62.771 174.319 62.041 172.863 60.8598 171.805C59.6787 170.746 58.1331 170.161 56.5309 170.166H55.4686C53.8663 170.161 52.3207 170.746 51.1396 171.805C49.9585 172.863 49.2285 174.319 49.095 175.88"/>
</mask>
<path d="M61.6291 175.989C61.6894 176.694 62.3092 177.216 63.0135 177.156C63.7179 177.095 64.2401 176.476 64.1798 175.771L61.6291 175.989ZM56.5309 170.166V171.446L56.5352 171.446L56.5309 170.166ZM55.4686 170.166L55.4642 171.446H55.4686V170.166ZM47.8196 175.771C47.7594 176.476 48.2816 177.095 48.9859 177.156C49.6903 177.216 50.3101 176.694 50.3703 175.989L47.8196 175.771ZM64.1798 175.771C64.0182 173.881 63.1348 172.125 61.7143 170.851L60.0054 172.758C60.9472 173.602 61.5238 174.757 61.6291 175.989L64.1798 175.771ZM61.7143 170.851C60.2946 169.579 58.4421 168.88 56.5265 168.886L56.5352 171.446C57.8241 171.442 59.0628 171.913 60.0054 172.758L61.7143 170.851ZM56.5309 168.886H55.4686V171.446H56.5309V168.886ZM55.4729 168.886C53.5573 168.88 51.7048 169.579 50.2852 170.851L51.9941 172.758C52.9366 171.913 54.1753 171.442 55.4642 171.446L55.4729 168.886ZM50.2852 170.851C48.8647 172.125 47.9813 173.881 47.8196 175.771L50.3703 175.989C50.4757 174.757 51.0523 173.602 51.9941 172.758L50.2852 170.851Z" fill="#0051FF" mask="url(#path-21-inside-1_2568_22451)"/>
<path d="M58.9316 166.952C58.9316 168.657 57.5995 170.003 56.0001 170.003C54.4008 170.003 53.0687 168.657 53.0687 166.952C53.0687 165.248 54.4008 163.902 56.0001 163.902C57.5995 163.902 58.9316 165.248 58.9316 166.952Z" stroke="#0051FF" stroke-width="1.28" stroke-linecap="round"/>
<path d="M231.917 46H208.262C199.281 46 192 53.281 192 62.2625C192 70.7456 198.495 77.7117 206.784 78.4586V84L221.568 78.5249H231.917C240.898 78.5249 248.179 71.244 248.179 62.2625C248.179 53.281 240.898 46 231.917 46Z" fill="white" stroke="#0051FF" stroke-width="2" stroke-linecap="round" stroke-linejoin="round"/>
<path d="M220.091 65.2173C221.724 65.2173 223.047 63.8935 223.047 62.2605C223.047 60.6275 221.724 59.3037 220.091 59.3037C218.458 59.3037 217.134 60.6275 217.134 62.2605C217.134 63.8935 218.458 65.2173 220.091 65.2173Z" fill="#0051FF"/>
<path d="M231.917 65.2173C233.55 65.2173 234.874 63.8935 234.874 62.2605C234.874 60.6275 233.55 59.3037 231.917 59.3037C230.284 59.3037 228.96 60.6275 228.96 62.2605C228.96 63.8935 230.284 65.2173 231.917 65.2173Z" fill="#0051FF"/>
<path d="M208.258 65.2173C209.891 65.2173 211.214 63.8935 211.214 62.2605C211.214 60.6275 209.891 59.3037 208.258 59.3037C206.625 59.3037 205.301 60.6275 205.301 62.2605C205.301 63.8935 206.625 65.2173 208.258 65.2173Z" fill="#0051FF"/>
<path d="M16.6572 68H36.5222C44.0649 68 50.1794 74.1145 50.1794 81.6572C50.1794 88.7813 44.7246 94.6315 37.7638 95.2587V99.9124L25.3482 95.3144H16.6572C9.11456 95.3144 3.00003 89.1999 3.00003 81.6572C3.00003 74.1145 9.11456 68 16.6572 68Z" fill="white" stroke="#0051FF" stroke-width="2" stroke-linecap="round" stroke-linejoin="round"/>
<path d="M26.5889 84.1391C25.2175 84.1391 24.1058 83.0274 24.1058 81.656C24.1058 80.2846 25.2175 79.1729 26.5889 79.1729C27.9603 79.1729 29.072 80.2846 29.072 81.656C29.072 83.0274 27.9603 84.1391 26.5889 84.1391Z" fill="#0051FF"/>
<path d="M16.6573 84.1391C15.2859 84.1391 14.1741 83.0274 14.1741 81.656C14.1741 80.2846 15.2859 79.1729 16.6573 79.1729C18.0286 79.1729 19.1404 80.2846 19.1404 81.656C19.1404 83.0274 18.0286 84.1391 16.6573 84.1391Z" fill="#0051FF"/>
<path d="M36.5264 84.1391C35.155 84.1391 34.0433 83.0274 34.0433 81.656C34.0433 80.2846 35.155 79.1729 36.5264 79.1729C37.8978 79.1729 39.0095 80.2846 39.0095 81.656C39.0095 83.0274 37.8978 84.1391 36.5264 84.1391Z" fill="#0051FF"/>
<rect width="31.8354" height="9.1833" rx="2.33942" transform="matrix(-1 0 0 1 194.216 180.183)" fill="#77B1FF" stroke="#0051FF" stroke-width="2" stroke-linejoin="round"/>
<rect width="31.8354" height="9.1833" rx="2.33942" transform="matrix(-1 0 0 1 189.931 189.367)" fill="#77B1FF" stroke="#0051FF" stroke-width="2" stroke-linejoin="round"/>
<rect width="31.8354" height="9.1833" rx="2.33942" transform="matrix(-1 0 0 1 189.931 171)" fill="#77B1FF" stroke="#0051FF" stroke-width="2" stroke-linejoin="round"/>
<rect width="31.8354" height="9.1833" rx="2.33942" transform="matrix(-1 0 0 1 189.931 198.549)" fill="#77B1FF" stroke="#0051FF" stroke-width="2" stroke-linejoin="round"/>
<rect width="31.8354" height="9.1833" rx="2.33942" transform="matrix(-1 0 0 1 189.931 207.733)" fill="#77B1FF" stroke="#0051FF" stroke-width="2" stroke-linejoin="round"/>
<rect width="31.8354" height="9.1833" rx="2.33942" transform="matrix(-1 0 0 1 189.931 216.916)" fill="#77B1FF" stroke="#0051FF" stroke-width="2" stroke-linejoin="round"/>
<rect width="31.8354" height="9.1833" rx="2.33942" transform="matrix(-1 0 0 1 215.644 216.916)" fill="#77B1FF" stroke="#0051FF" stroke-width="2" stroke-linejoin="round"/>
<rect width="31.8354" height="9.1833" rx="2.33942" transform="matrix(-1 0 0 1 215.644 198.549)" fill="#77B1FF" stroke="#0051FF" stroke-width="2" stroke-linejoin="round"/>
<path d="M173.777 198.115C175.518 201.543 176.203 205.411 175.746 209.229C175.289 213.047 173.709 216.644 171.208 219.564C168.706 222.485 165.395 224.599 161.692 225.637C157.99 226.676 154.062 226.592 150.407 225.399C146.752 224.205 143.532 221.954 141.156 218.93C138.78 215.907 137.354 212.248 137.058 208.414C136.762 204.58 137.609 200.743 139.493 197.391C141.377 194.039 144.213 191.32 147.642 189.58C152.24 187.247 157.576 186.836 162.477 188.436C167.378 190.037 171.442 193.518 173.777 198.115Z" fill="#5CA3FF" stroke="#0051FF" stroke-width="2" stroke-linejoin="round"/>
<path d="M168.239 208.336C168.519 206.001 168.099 203.636 167.034 201.54C165.607 198.731 163.123 196.604 160.128 195.626C157.133 194.648 153.872 194.9 151.062 196.325C148.965 197.388 147.231 199.05 146.078 201.099C144.926 203.149 144.407 205.493 144.588 207.837C144.768 210.181 145.64 212.42 147.093 214.268C148.545 216.117 150.513 217.493 152.749 218.223C154.983 218.952 157.385 219.003 159.648 218.368C161.912 217.733 163.937 216.44 165.466 214.655C166.995 212.869 167.96 210.67 168.239 208.336Z" fill="#F2F6FF" stroke="#0051FF" stroke-width="2"/>
<rect width="31.8354" height="9.1833" rx="2.33942" transform="matrix(-1 0 0 1 219.318 207.733)" fill="#77B1FF" stroke="#0051FF" stroke-width="2" stroke-linejoin="round"/>
<path d="M127.5 104C144.36 104 158 90.1049 158 73C158 55.8951 144.36 42 127.5 42C110.64 42 97 55.8951 97 73C97 90.1049 110.64 104 127.5 104Z" stroke="#DFEEFD" stroke-width="2"/>
<path d="M156 73C156 89.0322 143.224 102 127.5 102C111.776 102 99 89.0322 99 73C99 56.9678 111.776 44 127.5 44C143.224 44 156 56.9678 156 73Z" stroke="#5CA3FF" stroke-width="2"/>
<path d="M124.883 85.2643C125.775 85.2643 126.498 84.5412 126.498 83.6492C126.498 82.7573 125.775 82.0342 124.883 82.0342C123.991 82.0342 123.268 82.7573 123.268 83.6492C123.268 84.5412 123.991 85.2643 124.883 85.2643Z" fill="#0051FF"/>
<path d="M128.92 87.6857C124.531 87.6857 120.524 87.6857 118.172 87.6857C116.971 87.6857 116 86.7121 116 85.5111V59.1746C116 57.9736 116.974 57 118.175 57H131.591C132.792 57 133.765 57.9736 133.765 59.1746V70.7278" stroke="#0051FF" stroke-width="2" stroke-linecap="round"/>
<path d="M137.803 87.6842C141.817 87.6842 145.07 86.2381 145.07 84.4542V78.9704C145.07 78.6702 144.827 78.4268 144.527 78.4268H131.079C130.779 78.4268 130.535 78.6702 130.535 78.9704V84.4542C130.535 86.2381 133.789 87.6842 137.803 87.6842Z" fill="#DFEEFD" stroke="#0051FF" stroke-width="2" stroke-linecap="round"/>
<path d="M145.07 81.2246C145.07 83.0085 141.817 84.4547 137.803 84.4547C133.789 84.4547 130.535 83.0085 130.535 81.2246" stroke="#0051FF" stroke-width="2" stroke-linecap="round"/>
<path d="M137.803 81.2256C141.817 81.2256 145.07 79.4179 145.07 77.188C145.07 74.9581 141.817 73.1504 137.803 73.1504C133.789 73.1504 130.535 74.9581 130.535 77.188C130.535 79.4179 133.789 81.2256 137.803 81.2256Z" fill="#DFEEFD" stroke="#0051FF" stroke-width="2" stroke-linecap="round"/>
<path d="M130.535 77.9941V84.4543" stroke="#0051FF" stroke-width="2" stroke-linecap="round" stroke-linejoin="round"/>
<path d="M145.07 77.9941V84.4543" stroke="#0051FF" stroke-width="2" stroke-linecap="round" stroke-linejoin="round"/>
</svg>
