<svg width="250" height="250" viewBox="0 0 250 250" fill="none" xmlns="http://www.w3.org/2000/svg">
<rect width="250" height="250" fill="white"/>
<path d="M70 32.3567C70 27.1892 74.1892 23 79.3567 23H171.643C176.811 23 181 27.1892 181 32.3567V37H70V32.3567Z" fill="#ACD0FF" stroke="#0051FF" stroke-width="2"/>
<rect x="70" y="37" width="111" height="174" fill="white" stroke="#0051FF" stroke-width="2"/>
<rect x="104" y="146" width="43" height="21" rx="3.11679" fill="#DFEEFD"/>
<rect x="104" y="146" width="43" height="21" rx="3.11679" stroke="#0051FF" stroke-width="2"/>
<path d="M117.188 160H115.388V154.834H113.471V153.34H119.105V154.834H117.188V160ZM124.786 160H119.881V153.34H124.633V154.834H121.681V155.914H123.787V157.318H121.681V158.551H124.786V160ZM127.248 160H125.349L127.41 156.499L125.493 153.34H127.545L128.544 155.095L129.462 153.34H131.307L129.453 156.517L131.541 160H129.534L128.355 157.966L127.248 160ZM135.61 160H133.81V154.834H131.893V153.34H137.527V154.834H135.61V160Z" fill="#0051FF"/>
<path d="M70 211H181V213C181 218.523 176.523 223 171 223H79.3567C74.1892 223 70 218.811 70 213.643V211Z" fill="#ACD0FF" stroke="#0051FF" stroke-width="2"/>
<rect x="111" y="28.0508" width="28.5651" height="3.6067" rx="1.55946" fill="#0051FF"/>
<rect x="43" y="58" width="167" height="70" rx="10.1828" fill="white" stroke="#0051FF" stroke-width="2"/>
<path d="M88.1158 70.236V73.386H90.0338C91.4898 73.386 92.2738 73.022 92.2738 71.79C92.2738 70.6 91.5038 70.236 90.0198 70.236H88.1158ZM88.1158 79H86.3938V68.64H90.1038C92.5678 68.64 93.9958 69.634 93.9958 71.748C93.9958 73.4 93.1418 74.338 91.6998 74.688L94.1358 79H92.2598L89.9358 74.912H88.1158V79ZM97.9807 77.782C98.8627 77.782 99.5487 77.446 100.095 76.928V75.29C98.0367 75.57 96.9447 76.074 96.9447 76.886C96.9447 77.474 97.3507 77.782 97.9807 77.782ZM97.3507 79.112C96.1467 79.112 95.2507 78.44 95.2507 77.208C95.2507 75.598 96.6227 74.52 100.095 74.128V73.904C100.095 73.162 99.7027 72.84 98.8767 72.84C97.8407 72.84 97.0007 73.344 96.3707 73.848L95.5307 72.77C96.3287 72.042 97.5747 71.426 99.1147 71.426C101.103 71.426 101.789 72.378 101.789 74.114V77.18C101.789 78.076 101.845 78.622 101.999 79H100.263C100.165 78.692 100.095 78.468 100.095 78.048C99.3387 78.818 98.4567 79.112 97.3507 79.112ZM106.527 79.098C104.637 79.098 104.231 78.398 104.231 77.054V72.938H102.943V71.566H104.231V68.976H105.953V71.566H107.871V72.938H105.953V76.62C105.953 77.418 106.191 77.74 107.045 77.74C107.297 77.74 107.619 77.698 107.787 77.642V79C107.605 79.042 106.961 79.098 106.527 79.098ZM111.109 70.278H109.345V68.78H111.109V70.278ZM111.095 79H109.359V71.566H111.095V79ZM114.84 79H113.118V71.566H114.84V72.756C115.4 72.112 116.268 71.426 117.5 71.426C118.858 71.426 119.698 72.126 119.698 73.596V79H117.976V74.086C117.976 73.274 117.64 72.854 116.856 72.854C116.1 72.854 115.47 73.232 114.84 73.82V79ZM124.381 75.542C125.319 75.542 125.879 75.052 125.879 74.142C125.879 73.218 125.347 72.714 124.367 72.714C123.415 72.714 122.855 73.232 122.855 74.142C122.855 75.052 123.429 75.542 124.381 75.542ZM124.339 81.884C121.777 81.884 120.755 81.142 120.755 80.064C120.755 79.322 121.217 78.79 121.973 78.496C121.595 78.3 121.399 77.992 121.399 77.586C121.399 77.026 121.847 76.564 122.407 76.228C121.651 75.752 121.231 74.996 121.231 74.086C121.231 72.56 122.407 71.426 124.353 71.426C125.375 71.426 126.131 71.762 126.635 72.21C127.111 71.832 127.867 71.538 128.483 71.482V72.882C128.147 72.882 127.671 72.924 127.181 73.078C127.349 73.344 127.447 73.694 127.447 74.086C127.447 75.64 126.285 76.732 124.353 76.732C123.933 76.732 123.681 76.676 123.317 76.578C123.093 76.704 122.939 76.858 122.939 77.054C122.939 77.348 123.135 77.446 123.793 77.502L125.109 77.586C127.307 77.726 128.175 78.314 128.175 79.616C128.175 81.142 126.635 81.884 124.339 81.884ZM124.605 80.638C125.865 80.638 126.649 80.302 126.649 79.77C126.649 79.238 126.271 79.042 124.759 78.944L123.471 78.86C123.317 78.86 123.177 78.846 123.023 78.818C122.533 79.042 122.337 79.392 122.337 79.77C122.337 80.428 123.093 80.638 124.605 80.638ZM131.744 73.4H129.826V71.566H131.744V73.4ZM131.744 79H129.826V77.18H131.744V79Z" fill="#0051FF"/>
<path d="M67.7451 93.093C67.8313 92.8052 68.008 92.5529 68.2489 92.3735C68.4899 92.1941 68.7823 92.0972 69.0827 92.0972C69.3832 92.0972 69.6756 92.1941 69.9166 92.3735C70.1575 92.5529 70.3342 92.8052 70.4204 93.093L71.805 97.5636C71.8925 97.8507 72.0695 98.1023 72.3102 98.2818C72.5508 98.4612 72.8425 98.559 73.1427 98.561H77.6485C77.9509 98.5764 78.2412 98.6844 78.4803 98.8702C78.7193 99.0561 78.8956 99.3108 78.9852 99.6001C79.0747 99.8893 79.0734 100.199 78.9812 100.488C78.889 100.776 78.7105 101.029 78.4698 101.213L74.8558 103.97C74.6106 104.155 74.4283 104.41 74.3338 104.702C74.2393 104.994 74.2372 105.308 74.3278 105.601L75.7124 110.072C75.8165 110.357 75.8268 110.667 75.7415 110.959C75.6563 111.25 75.4801 111.506 75.2387 111.689C74.9973 111.873 74.7034 111.975 74.4001 111.979C74.0969 111.984 73.8001 111.891 73.5533 111.715L69.9159 108.957C69.6784 108.775 69.3877 108.677 69.0886 108.677C68.7896 108.677 68.4989 108.775 68.2614 108.957L64.6239 111.773C64.3759 111.946 64.0797 112.036 63.7776 112.03C63.4756 112.024 63.1831 111.922 62.9422 111.74C62.7013 111.558 62.5242 111.304 62.4364 111.015C62.3485 110.726 62.3544 110.416 62.4531 110.131L63.8495 105.601C63.9424 105.304 63.9403 104.984 63.8436 104.688C63.7469 104.391 63.5603 104.132 63.3097 103.947L59.6957 101.248C59.4409 101.069 59.2494 100.813 59.1483 100.519C59.0472 100.224 59.0419 99.9049 59.1329 99.6069C59.224 99.309 59.4069 99.0474 59.6554 98.8596C59.904 98.6718 60.2056 98.5672 60.517 98.561H65.0228C65.3229 98.5576 65.614 98.4576 65.8528 98.2759C66.0916 98.0941 66.2656 97.8402 66.3488 97.5519L67.7451 93.093Z" fill="#0051FF" stroke="#0051FF" stroke-width="1.17338" stroke-linecap="round" stroke-linejoin="round"/>
<path d="M95.9023 93.093C95.9885 92.8052 96.1652 92.5529 96.4062 92.3735C96.6471 92.1941 96.9396 92.0972 97.24 92.0972C97.5404 92.0972 97.8328 92.1941 98.0738 92.3735C98.3148 92.5529 98.4915 92.8052 98.5776 93.093L99.9622 97.5636C100.05 97.8507 100.227 98.1023 100.467 98.2818C100.708 98.4612 101 98.559 101.3 98.561H105.806C106.108 98.5764 106.398 98.6844 106.637 98.8702C106.877 99.0561 107.053 99.3108 107.142 99.6001C107.232 99.8893 107.231 100.199 107.138 100.488C107.046 100.776 106.868 101.029 106.627 101.213L103.013 103.97C102.768 104.155 102.585 104.41 102.491 104.702C102.396 104.994 102.394 105.308 102.485 105.601L103.87 110.072C103.974 110.357 103.984 110.667 103.899 110.959C103.814 111.25 103.637 111.506 103.396 111.689C103.155 111.873 102.861 111.975 102.557 111.979C102.254 111.984 101.957 111.891 101.711 111.715L98.0731 108.957C97.8356 108.775 97.5449 108.677 97.2458 108.677C96.9468 108.677 96.6561 108.775 96.4186 108.957L92.7811 111.773C92.5331 111.946 92.2369 112.036 91.9349 112.03C91.6328 112.024 91.3404 111.922 91.0994 111.74C90.8585 111.558 90.6815 111.304 90.5936 111.015C90.5058 110.726 90.5116 110.416 90.6104 110.131L92.0067 105.601C92.0996 105.304 92.0976 104.984 92.0008 104.688C91.9041 104.391 91.7175 104.132 91.4669 103.947L87.8529 101.248C87.5982 101.069 87.4066 100.813 87.3055 100.519C87.2045 100.224 87.1991 99.9049 87.2902 99.6069C87.3812 99.309 87.5641 99.0474 87.8127 98.8596C88.0612 98.6718 88.3628 98.5672 88.6743 98.561H93.1801C93.4802 98.5576 93.7712 98.4576 94.01 98.2759C94.2489 98.0941 94.4228 97.8402 94.506 97.5519L95.9023 93.093Z" fill="#0051FF" stroke="#0051FF" stroke-width="1.17338" stroke-linecap="round" stroke-linejoin="round"/>
<path d="M124.067 93.093C124.154 92.8052 124.33 92.5529 124.571 92.3735C124.812 92.1941 125.105 92.0972 125.405 92.0972C125.705 92.0972 125.998 92.1941 126.239 92.3735C126.48 92.5529 126.657 92.8052 126.743 93.093L128.127 97.5636C128.215 97.8507 128.392 98.1023 128.632 98.2818C128.873 98.4612 129.165 98.559 129.465 98.561H133.971C134.273 98.5764 134.563 98.6844 134.803 98.8702C135.042 99.0561 135.218 99.3108 135.307 99.6001C135.397 99.8893 135.396 100.199 135.303 100.488C135.211 100.776 135.033 101.029 134.792 101.213L131.178 103.97C130.933 104.155 130.751 104.41 130.656 104.702C130.562 104.994 130.559 105.308 130.65 105.601L132.035 110.072C132.139 110.357 132.149 110.667 132.064 110.959C131.979 111.25 131.802 111.506 131.561 111.689C131.32 111.873 131.026 111.975 130.722 111.979C130.419 111.984 130.122 111.891 129.876 111.715L126.238 108.957C126.001 108.775 125.71 108.677 125.411 108.677C125.112 108.677 124.821 108.775 124.584 108.957L120.946 111.773C120.698 111.946 120.402 112.036 120.1 112.03C119.798 112.024 119.505 111.922 119.264 111.74C119.024 111.558 118.846 111.304 118.759 111.015C118.671 110.726 118.677 110.416 118.775 110.131L120.172 105.601C120.265 105.304 120.263 104.984 120.166 104.688C120.069 104.391 119.883 104.132 119.632 103.947L116.018 101.248C115.763 101.069 115.572 100.813 115.471 100.519C115.37 100.224 115.364 99.9049 115.455 99.6069C115.546 99.309 115.729 99.0474 115.978 98.8596C116.226 98.6718 116.528 98.5672 116.839 98.561H121.345C121.645 98.5576 121.936 98.4576 122.175 98.2759C122.414 98.0941 122.588 97.8402 122.671 97.5519L124.067 93.093Z" fill="#0051FF" stroke="#0051FF" stroke-width="1.17338" stroke-linecap="round" stroke-linejoin="round"/>
<path d="M152.229 93.093C152.316 92.8052 152.492 92.5529 152.733 92.3735C152.974 92.1941 153.267 92.0972 153.567 92.0972C153.868 92.0972 154.16 92.1941 154.401 92.3735C154.642 92.5529 154.819 92.8052 154.905 93.093L156.289 97.5636C156.377 97.8507 156.554 98.1023 156.795 98.2818C157.035 98.4612 157.327 98.559 157.627 98.561H162.133C162.435 98.5764 162.726 98.6844 162.965 98.8702C163.204 99.0561 163.38 99.3108 163.47 99.6001C163.559 99.8893 163.558 100.199 163.466 100.488C163.373 100.776 163.195 101.029 162.954 101.213L159.34 103.97C159.095 104.155 158.913 104.41 158.818 104.702C158.724 104.994 158.722 105.308 158.812 105.601L160.197 110.072C160.301 110.357 160.311 110.667 160.226 110.959C160.141 111.25 159.964 111.506 159.723 111.689C159.482 111.873 159.188 111.975 158.885 111.979C158.581 111.984 158.284 111.891 158.038 111.715L154.4 108.957C154.163 108.775 153.872 108.677 153.573 108.677C153.274 108.677 152.983 108.775 152.746 108.957L149.108 111.773C148.86 111.946 148.564 112.036 148.262 112.03C147.96 112.024 147.668 111.922 147.427 111.74C147.186 111.558 147.009 111.304 146.921 111.015C146.833 110.726 146.839 110.416 146.938 110.131L148.334 105.601C148.427 105.304 148.425 104.984 148.328 104.688C148.231 104.391 148.045 104.132 147.794 103.947L144.18 101.248C143.925 101.069 143.734 100.813 143.633 100.519C143.532 100.224 143.526 99.9049 143.617 99.6069C143.708 99.309 143.891 99.0474 144.14 98.8596C144.388 98.6718 144.69 98.5672 145.001 98.561H149.507C149.807 98.5576 150.098 98.4576 150.337 98.2759C150.576 98.0941 150.75 97.8402 150.833 97.5519L152.229 93.093Z" fill="#0051FF" stroke="#0051FF" stroke-width="1.17338" stroke-linecap="round" stroke-linejoin="round"/>
<path d="M180.229 93.093C180.316 92.8052 180.492 92.5529 180.733 92.3735C180.974 92.1941 181.267 92.0972 181.567 92.0972C181.868 92.0972 182.16 92.1941 182.401 92.3735C182.642 92.5529 182.819 92.8052 182.905 93.093L184.289 97.5636C184.377 97.8507 184.554 98.1023 184.795 98.2818C185.035 98.4612 185.327 98.559 185.627 98.561H190.133C190.435 98.5764 190.726 98.6844 190.965 98.8702C191.204 99.0561 191.38 99.3108 191.47 99.6001C191.559 99.8893 191.558 100.199 191.466 100.488C191.373 100.776 191.195 101.029 190.954 101.213L187.34 103.97C187.095 104.155 186.913 104.41 186.818 104.702C186.724 104.994 186.722 105.308 186.812 105.601L188.197 110.072C188.301 110.357 188.311 110.667 188.226 110.959C188.141 111.25 187.964 111.506 187.723 111.689C187.482 111.873 187.188 111.975 186.885 111.979C186.581 111.984 186.284 111.891 186.038 111.715L182.4 108.957C182.163 108.775 181.872 108.677 181.573 108.677C181.274 108.677 180.983 108.775 180.746 108.957L177.108 111.773C176.86 111.946 176.564 112.036 176.262 112.03C175.96 112.024 175.668 111.922 175.427 111.74C175.186 111.558 175.009 111.304 174.921 111.015C174.833 110.726 174.839 110.416 174.938 110.131L176.334 105.601C176.427 105.304 176.425 104.984 176.328 104.688C176.231 104.391 176.045 104.132 175.794 103.947L172.18 101.248C171.925 101.069 171.734 100.813 171.633 100.519C171.532 100.224 171.526 99.9049 171.617 99.6069C171.708 99.309 171.891 99.0474 172.14 98.8596C172.388 98.6718 172.69 98.5672 173.001 98.561H177.507C177.807 98.5576 178.098 98.4576 178.337 98.2759C178.576 98.0941 178.75 97.8402 178.833 97.5519L180.229 93.093Z" fill="#0051FF" stroke="#0051FF" stroke-width="1.17338" stroke-linecap="round" stroke-linejoin="round"/>
<path d="M191.795 188.388C188.598 188.52 185.429 187.731 182.658 186.113H171L176.405 179.764C174.555 176.51 173.808 172.733 174.278 169.009C174.749 165.285 176.411 161.82 179.012 159.142C181.612 156.464 185.008 154.721 188.679 154.18C192.351 153.638 196.096 154.328 199.344 156.143C202.592 157.958 205.163 160.8 206.665 164.233C208.166 167.666 208.516 171.502 207.66 175.155C206.804 178.807 204.79 182.077 201.925 184.462C199.06 186.848 195.502 188.219 191.795 188.366V188.388Z" fill="white" stroke="#0051FF" stroke-width="2" stroke-linecap="round" stroke-linejoin="round"/>
<path d="M51.7025 182.104C55.7574 182.27 59.776 181.281 63.2906 179.252H78.0765L71.2211 171.294C73.5684 167.216 74.516 162.481 73.919 157.813C73.322 153.145 71.2134 148.802 67.9152 145.445C64.6171 142.089 60.3108 139.904 55.6542 139.225C50.9977 138.547 46.247 139.411 42.128 141.686C38.0089 143.962 34.748 147.523 32.8435 151.826C30.939 156.129 30.4956 160.938 31.581 165.516C32.6664 170.095 35.221 174.193 38.8545 177.183C42.4879 180.174 47.0004 181.892 51.7025 182.077V182.104Z" fill="white" stroke="#0051FF" stroke-width="2" stroke-linecap="round" stroke-linejoin="round"/>
</svg>
