<svg xmlns="http://www.w3.org/2000/svg" viewBox="0 0 650 716" xmlns:v="https://vecta.io/nano"><path d="M282.5 712.1c-50.3-5.2-95.7-27.6-130.1-64.3-38.9-46.9-91.1-88.3-129.4-135-30.9-37.7-23-95.1 17.7-122.1 33.4-22.2 75-17 104.8 8.6V134.2c0-2.6 2.9-12.3 3.8-15.6 13.4-47.8 65-71.4 111.1-54.3 21.2-81.2 136.5-80 159.2 0 43.4-16.9 93.4 5.9 109 49.4 1 2.7 4.5 14.4 4.5 16.3v43.6c51.4-16.8 105.2 17.6 110.8 71.2-4.9 94.6 6.4 195.5 0 289.3-6.3 91.9-85.5 170.7-177.2 177.9H282.6zM367 379.9V80.2c0-.6-3.6-8.3-4.4-9.5-11.7-17.8-39.6-15.1-48.1 4.1-.6 1.3-2.9 7.6-2.9 8.2v296.9h-55.4V135.6c0-.6-3.6-8.3-4.4-9.5-11.7-17.8-39.6-15.1-48.1 4.1-.6 1.3-2.9 7.6-2.9 8.2v395.2l-95.5-94.8c-30.6-22.1-62.6 16.5-36.1 43 47.6 42.4 89.2 100.1 137.1 141.2 66.9 57.4 172.7 25.7 254 33.9 67.1-5.5 121-58.3 128-125.3V250.4c-2.5-29.2-41.4-34.7-52.4-9.5-.6 1.3-2.9 7.6-2.9 8.2v130.8h-55.4V135.6c0-.6-3.6-8.3-4.4-9.5-11.7-17.8-39.6-15.1-48.1 4.1-.6 1.3-2.9 7.6-2.9 8.2v241.5h-55.4z" fill="#b150c5"/></svg>