<svg width="70" height="70" viewBox="0 0 70 70" fill="none" xmlns="http://www.w3.org/2000/svg">
<circle opacity="0.16" cx="35" cy="35" r="35" fill="url(#paint0_linear_563_2195)"/>
<path fill-rule="evenodd" clip-rule="evenodd" d="M26.3281 19.531C28.628 17.1277 31.7473 15.7776 34.9999 15.7776C38.2525 15.7776 41.3718 17.1277 43.6717 19.531C45.9716 21.9342 47.2637 25.1938 47.2637 28.5925V42.4754C47.2637 44.2448 48.6363 45.6791 50.3296 45.6791C52.0229 45.6791 53.3956 44.2448 53.3956 42.4754V31.7963C53.3956 30.0269 52.0229 28.5925 50.3296 28.5925C49.9713 28.5925 49.6273 28.6568 49.3076 28.7748V28.5925C49.3076 24.6273 47.8002 20.8245 45.117 18.0207C42.4338 15.2169 38.7946 13.6417 34.9999 13.6417C31.2053 13.6417 27.566 15.2169 24.8828 18.0207C22.1996 20.8245 20.6922 24.6273 20.6922 28.5925V28.7748C20.3725 28.6568 20.0285 28.5925 19.6702 28.5925C17.9769 28.5925 16.6042 30.0269 16.6042 31.7963V42.4754C16.6042 44.2448 17.9769 45.6791 19.6702 45.6791C20.0285 45.6791 20.3725 45.6149 20.6922 45.4968V47.0461L20.6922 47.0516C20.7043 49.5159 21.6465 51.8758 23.3142 53.6184C24.9819 55.361 27.2402 56.3456 29.5986 56.3583L29.6038 56.3583H37.3913C38.3283 56.3583 39.0878 55.5646 39.0878 54.5855V53.8593C39.0878 52.8803 38.3283 52.0866 37.3913 52.0866H32.6085C31.6715 52.0866 30.912 52.8803 30.912 53.8593V54.2224H29.6069C27.7877 54.2121 26.0459 53.4523 24.7595 52.1081C23.4732 50.764 22.7461 48.944 22.7361 47.0432V28.5925C22.7361 25.1938 24.0282 21.9342 26.3281 19.531ZM49.3076 31.7963C49.3076 31.2065 49.7652 30.7283 50.3296 30.7283C50.8941 30.7283 51.3516 31.2065 51.3516 31.7963V42.4754C51.3516 43.0652 50.8941 43.5433 50.3296 43.5433C49.7652 43.5433 49.3076 43.0652 49.3076 42.4754V31.7963ZM19.6702 43.5433C20.2346 43.5433 20.6922 43.0652 20.6922 42.4754V31.7963C20.6922 31.2065 20.2346 30.7283 19.6702 30.7283C19.1058 30.7283 18.6482 31.2065 18.6482 31.7963V42.4754C18.6482 43.0652 19.1058 43.5433 19.6702 43.5433Z" fill="#0062E1"/>
<defs>
<linearGradient id="paint0_linear_563_2195" x1="0.91954" y1="4.34671e-07" x2="43.5064" y2="2.72913" gradientUnits="userSpaceOnUse">
<stop stop-color="#00BFFF"/>
<stop offset="1" stop-color="#006EFC"/>
</linearGradient>
</defs>
</svg>
