<svg width="250" height="250" viewBox="0 0 250 250" fill="none" xmlns="http://www.w3.org/2000/svg">
<path d="M80.9369 220.904L192.642 213.666C198.718 213.273 203.324 208.029 202.93 201.953L194.526 72.2477C194.337 69.3302 192.997 66.6073 190.8 64.678L152.221 30.7934C150.024 28.8641 147.151 27.8864 144.234 28.0755L68.7601 32.9655C62.6848 33.3591 58.0789 38.6032 58.4725 44.6786L69.2238 210.616C69.6174 216.692 74.8616 221.297 80.9369 220.904Z" fill="#DFEEFD" stroke="#0051FF" stroke-width="2" stroke-linecap="round" stroke-linejoin="round"/>
<path fill-rule="evenodd" clip-rule="evenodd" d="M84.0001 154.144C83.1511 154.302 82.5903 155.117 82.7474 155.966L88.1494 185.153C88.3066 186.002 89.1222 186.563 89.9712 186.406L128.406 179.292C129.453 179.098 130.459 179.79 130.653 180.837C130.847 181.885 130.155 182.891 129.108 183.085L90.6732 190.199C87.7294 190.744 84.9012 188.799 84.3564 185.855L78.9543 156.668C78.4095 153.724 80.3542 150.896 83.298 150.351L91.1801 148.892C92.2275 148.699 93.2337 149.391 93.4276 150.438C93.6215 151.485 92.9295 152.492 91.8821 152.686L84.0001 154.144ZM98.6871 149.465C98.4933 148.417 99.1852 147.411 100.233 147.217L145.496 138.84C146.543 138.646 147.549 139.338 147.743 140.385C147.937 141.432 147.245 142.439 146.198 142.633L100.935 151.01C99.8873 151.204 98.881 150.512 98.6871 149.465ZM154.134 139.202C153.94 138.155 154.632 137.148 155.68 136.955L176.009 133.192C178.953 132.647 181.781 134.592 182.326 137.536L187.728 166.722C188.273 169.666 186.328 172.494 183.384 173.039L156.265 178.059C155.218 178.252 154.212 177.56 154.018 176.513C153.824 175.466 154.516 174.459 155.563 174.265L182.682 169.246C183.531 169.089 184.092 168.273 183.935 167.424L178.533 138.238C178.376 137.389 177.56 136.828 176.711 136.985L156.382 140.748C155.334 140.941 154.328 140.25 154.134 139.202ZM134.781 180.073C134.587 179.026 135.279 178.02 136.327 177.826L146.511 175.941C147.558 175.747 148.565 176.439 148.758 177.487C148.952 178.534 148.26 179.54 147.213 179.734L137.029 181.619C135.981 181.813 134.975 181.121 134.781 180.073Z" fill="#0051FF"/>
<path fill-rule="evenodd" clip-rule="evenodd" d="M83.3887 150.843C80.7164 151.337 78.951 153.905 79.4456 156.577L84.8477 185.764C85.3423 188.436 87.9095 190.201 90.5818 189.707L129.016 182.593C129.792 182.45 130.305 181.704 130.161 180.928C130.018 180.152 129.272 179.64 128.496 179.783L90.0618 186.897C88.9413 187.104 87.8648 186.364 87.6574 185.244L82.2554 156.057C82.048 154.936 82.7882 153.86 83.9087 153.653L91.7907 152.194C92.5666 152.05 93.0792 151.305 92.9356 150.529C92.792 149.753 92.0466 149.24 91.2707 149.384L83.3887 150.843ZM78.4623 156.759C77.8672 153.544 79.9913 150.455 83.2067 149.859L91.0887 148.401C92.4076 148.157 93.6748 149.028 93.9189 150.347C94.163 151.666 93.2917 152.933 91.9727 153.177L84.0907 154.636C83.5133 154.743 83.1318 155.297 83.2387 155.875L88.6407 185.062C88.7476 185.639 89.3024 186.021 89.8798 185.914L128.314 178.8C129.633 178.556 130.9 179.427 131.145 180.746C131.389 182.065 130.517 183.332 129.198 183.576L90.7638 190.69C87.5485 191.285 84.4595 189.161 83.8644 185.946L78.4623 156.759ZM100.323 147.708C99.5474 147.852 99.0348 148.597 99.1784 149.373C99.322 150.149 100.067 150.662 100.843 150.518L146.106 142.141C146.882 141.997 147.395 141.252 147.251 140.476C147.108 139.7 146.362 139.187 145.586 139.331L100.323 147.708ZM98.1951 149.555C97.951 148.236 98.8223 146.969 100.141 146.725L145.404 138.348C146.723 138.104 147.99 138.975 148.234 140.294C148.479 141.613 147.607 142.88 146.288 143.124L101.025 151.501C99.7064 151.746 98.4392 150.874 98.1951 149.555ZM155.77 137.446C154.995 137.59 154.482 138.335 154.626 139.111C154.769 139.887 155.515 140.399 156.29 140.256L176.62 136.493C177.74 136.286 178.817 137.026 179.024 138.146L184.426 167.333C184.634 168.454 183.893 169.53 182.773 169.738L155.654 174.757C154.878 174.901 154.366 175.646 154.509 176.422C154.653 177.198 155.398 177.71 156.174 177.567L183.293 172.547C185.965 172.053 187.731 169.486 187.236 166.813L181.834 137.626C181.339 134.954 178.772 133.189 176.1 133.683L155.77 137.446ZM153.642 139.293C153.398 137.974 154.269 136.707 155.588 136.463L175.918 132.7C179.133 132.105 182.222 134.229 182.817 137.444L188.219 166.631C188.814 169.847 186.69 172.936 183.475 173.531L156.356 178.55C155.037 178.794 153.77 177.923 153.526 176.604C153.282 175.285 154.153 174.018 155.472 173.774L182.591 168.754C183.168 168.647 183.55 168.093 183.443 167.515L178.041 138.328C177.934 137.751 177.379 137.37 176.802 137.476L156.472 141.239C155.154 141.483 153.886 140.612 153.642 139.293ZM136.417 178.317C135.641 178.461 135.129 179.206 135.272 179.982C135.416 180.758 136.161 181.271 136.937 181.127L147.122 179.242C147.897 179.099 148.41 178.353 148.266 177.577C148.123 176.801 147.377 176.289 146.601 176.432L136.417 178.317ZM134.289 180.164C134.045 178.845 134.916 177.578 136.235 177.334L146.42 175.449C147.738 175.205 149.006 176.076 149.25 177.395C149.494 178.714 148.622 179.981 147.304 180.225L137.119 182.11C135.8 182.355 134.533 181.483 134.289 180.164Z" fill="white"/>
<path d="M173.284 158.763L170.537 159.271L169.078 151.387L166.152 151.929L165.73 149.649L174.329 148.058L174.751 150.338L171.825 150.879L173.284 158.763Z" fill="#0051FF"/>
<path d="M159.975 161.226L157.461 161.691L155.58 151.527L158.286 151.026L163.063 156.037L163.091 156.032L162.036 150.332L164.549 149.867L166.43 160.031L163.889 160.501L158.95 155.534L158.922 155.539L159.975 161.226Z" fill="#0051FF"/>
<path d="M156.097 161.943L148.612 163.329L146.73 153.165L153.983 151.823L154.405 154.103L149.899 154.937L150.205 156.585L153.418 155.99L153.815 158.133L150.601 158.727L150.949 160.609L155.688 159.732L156.097 161.943Z" fill="#0051FF"/>
<path d="M138.38 165.223L135.935 165.676L134.054 155.512L137.693 154.838L140.755 161.403L140.783 161.397L141.113 154.205L144.836 153.516L146.717 163.68L144.093 164.166L142.929 157.875L142.902 157.88C142.93 158.954 142.885 159.63 142.81 160.454L142.445 164.471L140.028 164.918L138.277 161.293C137.891 160.512 137.684 160.082 137.217 158.79L137.19 158.795L138.38 165.223Z" fill="#0051FF"/>
<path d="M134.569 165.928L127.083 167.314L125.202 157.15L132.454 155.808L132.876 158.088L128.371 158.921L128.676 160.57L131.89 159.975L132.287 162.117L129.073 162.712L129.421 164.594L134.16 163.717L134.569 165.928Z" fill="#0051FF"/>
<path d="M122.973 168.074L120.226 168.583L118.766 160.699L115.841 161.24L115.419 158.96L124.017 157.369L124.439 159.649L121.513 160.191L122.973 168.074Z" fill="#0051FF"/>
<path d="M111.954 163.226L111.5 166.222L113.437 165.864L111.982 163.221L111.954 163.226ZM110.907 170.309L108.407 170.772L110.117 159.901L112.672 159.428L118.159 168.967L115.385 169.481L114.416 167.7L111.216 168.292L110.907 170.309Z" fill="#0051FF"/>
<path d="M106.34 171.153L103.593 171.661L102.134 163.778L99.2081 164.319L98.7861 162.039L107.384 160.448L107.806 162.728L104.881 163.269L106.34 171.153Z" fill="#0051FF"/>
<path d="M95.947 173.276C93.6258 173.705 92.0454 172.918 90.9233 171.691L92.7222 170.051C93.507 170.915 94.6139 171.292 95.6715 171.096C96.5093 170.941 97.0954 170.577 96.9784 169.945C96.859 169.3 96.0028 169.203 94.9544 169.141C93.2137 169.023 90.9236 169.006 90.4965 166.699C90.1126 164.625 91.4674 163.195 93.7749 162.768C95.9313 162.369 97.4079 163.132 98.4013 163.971L96.8405 165.823C96.1502 165.24 95.052 164.833 94.173 164.995C93.3901 165.14 93.0401 165.475 93.129 165.956C93.2536 166.629 94.096 166.729 95.1444 166.79C96.8801 166.881 99.1992 166.977 99.6212 169.257C99.9212 170.878 99.0786 172.696 95.947 173.276Z" fill="#0051FF"/>
<path d="M100.49 53.676C100.427 53.2161 100.096 52.8313 99.6288 52.7595C97.2214 52.3895 94.7753 52.2989 92.341 52.4567C89.9066 52.6144 87.4924 53.0198 85.1531 53.6974C84.6994 53.8288 84.4206 54.2531 84.4178 54.7174C84.4056 56.7101 84.2495 61.8163 84.5997 63.8468C85.3988 68.4197 88.9203 71.1482 93.0169 72.3918C93.2187 72.4531 93.4193 72.5065 93.6304 72.547C93.6338 72.5457 93.639 72.5438 93.6426 72.5423C93.6464 72.5431 93.6518 72.5445 93.6553 72.5454C93.8594 72.478 94.0518 72.4007 94.2437 72.3124C98.1576 70.5769 101.285 67.3907 101.488 62.7526C101.573 60.6939 100.759 55.6503 100.49 53.676" fill="#0051FF"/>
<path d="M159.5 69.9412L191.82 67.8471C192.8 67.7836 193.214 66.5669 192.477 65.9189L151.035 29.5204C150.297 28.8723 149.144 29.4399 149.207 30.4199L151.301 62.7398C151.577 66.9926 155.248 70.2167 159.5 69.9412Z" fill="#ACD0FF" stroke="#0051FF" stroke-width="2" stroke-linecap="round" stroke-linejoin="round"/>
<rect x="86.3057" y="114.92" width="88.2696" height="7.74294" rx="3.87147" transform="rotate(-3.70709 86.3057 114.92)" fill="#5CA3FF"/>
<rect x="84.9033" y="93.2861" width="51.1034" height="7.74294" rx="3.87147" transform="rotate(-3.70709 84.9033 93.2861)" fill="#5CA3FF"/>
<path d="M90.7832 222.151H202.723C208.811 222.151 213.746 217.215 213.746 211.127V81.1499C213.746 78.2263 212.585 75.4224 210.518 73.3551L174.21 37.0471C172.142 34.9798 169.338 33.8184 166.415 33.8184H90.7832C84.6951 33.8184 79.7598 38.7537 79.7598 44.8418V211.127C79.7598 217.215 84.6951 222.151 90.7832 222.151Z" fill="white" stroke="#0051FF" stroke-width="2" stroke-linecap="round" stroke-linejoin="round"/>
<path fill-rule="evenodd" clip-rule="evenodd" d="M98.1556 155.729C97.2983 155.831 96.6858 156.608 96.7878 157.466L100.291 186.941C100.393 187.798 101.171 188.41 102.028 188.309L140.842 183.695C141.9 183.569 142.86 184.325 142.985 185.382C143.111 186.44 142.355 187.4 141.298 187.525L102.484 192.139C99.5107 192.492 96.8143 190.369 96.4609 187.396L92.9572 157.921C92.6039 154.948 94.7274 152.252 97.7003 151.898L105.66 150.952C106.718 150.826 107.677 151.582 107.803 152.64C107.929 153.697 107.173 154.657 106.115 154.783L98.1556 155.729ZM113.115 152.008C112.989 150.951 113.744 149.991 114.802 149.865L160.512 144.432C161.57 144.306 162.529 145.062 162.655 146.12C162.781 147.177 162.025 148.137 160.967 148.262L115.257 153.696C114.2 153.822 113.24 153.066 113.115 152.008ZM169.109 145.352C168.983 144.295 169.739 143.335 170.797 143.209L191.327 140.769C194.3 140.416 196.996 142.539 197.35 145.512L200.853 174.987C201.207 177.96 199.083 180.656 196.11 181.01L168.724 184.265C167.666 184.391 166.706 183.635 166.581 182.578C166.455 181.52 167.211 180.56 168.268 180.435L195.655 177.179C196.512 177.077 197.125 176.3 197.023 175.442L193.519 145.967C193.417 145.11 192.64 144.498 191.782 144.6L171.252 147.04C170.194 147.166 169.235 146.41 169.109 145.352ZM147.154 184.887C147.028 183.829 147.784 182.87 148.842 182.744L159.126 181.521C160.184 181.396 161.144 182.151 161.269 183.209C161.395 184.267 160.639 185.226 159.582 185.352L149.297 186.574C148.239 186.7 147.28 185.945 147.154 184.887Z" fill="#0051FF"/>
<path fill-rule="evenodd" clip-rule="evenodd" d="M97.7592 152.395C95.0605 152.716 93.1328 155.163 93.4536 157.862L96.9572 187.337C97.278 190.036 99.7258 191.963 102.424 191.643L141.239 187.029C142.022 186.936 142.582 186.225 142.489 185.441C142.395 184.658 141.685 184.098 140.901 184.191L102.087 188.805C100.956 188.94 99.9293 188.131 99.7948 187L96.2911 157.525C96.1566 156.393 96.9649 155.367 98.0965 155.232L106.056 154.286C106.84 154.193 107.4 153.482 107.306 152.699C107.213 151.915 106.503 151.355 105.719 151.449L97.7592 152.395ZM92.4606 157.98C92.0746 154.733 94.394 151.788 97.6411 151.402L105.601 150.456C106.933 150.297 108.141 151.249 108.299 152.581C108.458 153.913 107.506 155.121 106.174 155.279L98.2145 156.225C97.6314 156.295 97.2148 156.823 97.2841 157.407L100.788 186.882C100.857 187.465 101.386 187.881 101.969 187.812L140.783 183.198C142.115 183.04 143.323 183.991 143.482 185.323C143.64 186.655 142.689 187.863 141.357 188.022L102.543 192.636C99.2954 193.022 96.3502 190.702 95.9642 187.455L92.4606 157.98ZM114.861 150.362C114.077 150.455 113.518 151.166 113.611 151.949C113.704 152.733 114.415 153.293 115.198 153.199L160.908 147.766C161.692 147.673 162.251 146.962 162.158 146.179C162.065 145.395 161.354 144.835 160.571 144.928L114.861 150.362ZM112.618 152.067C112.46 150.735 113.411 149.527 114.743 149.369L160.453 143.935C161.785 143.777 162.993 144.728 163.151 146.06C163.31 147.392 162.358 148.601 161.026 148.759L115.316 154.192C113.984 154.351 112.776 153.399 112.618 152.067ZM170.856 143.706C170.072 143.799 169.512 144.51 169.606 145.293C169.699 146.077 170.409 146.637 171.193 146.543L191.723 144.103C192.855 143.969 193.881 144.777 194.015 145.908L197.519 175.383C197.654 176.515 196.845 177.541 195.714 177.676L168.327 180.931C167.544 181.024 166.984 181.735 167.077 182.519C167.17 183.302 167.881 183.862 168.664 183.769L196.051 180.513C198.75 180.193 200.677 177.745 200.357 175.046L196.853 145.571C196.532 142.872 194.084 140.945 191.386 141.266L170.856 143.706ZM168.613 145.411C168.454 144.079 169.406 142.871 170.738 142.713L191.268 140.273C194.515 139.887 197.46 142.206 197.846 145.453L201.35 174.928C201.736 178.175 199.416 181.12 196.169 181.506L168.783 184.762C167.451 184.92 166.242 183.969 166.084 182.637C165.926 181.305 166.877 180.097 168.209 179.938L195.596 176.683C196.179 176.613 196.595 176.085 196.526 175.501L193.022 146.026C192.953 145.443 192.424 145.027 191.841 145.096L171.311 147.536C169.979 147.695 168.771 146.743 168.613 145.411ZM148.9 183.24C148.117 183.334 147.557 184.044 147.65 184.828C147.743 185.611 148.454 186.171 149.238 186.078L159.522 184.855C160.306 184.762 160.866 184.052 160.773 183.268C160.679 182.484 159.969 181.925 159.185 182.018L148.9 183.24ZM146.657 184.946C146.499 183.614 147.45 182.406 148.782 182.247L159.067 181.025C160.399 180.867 161.607 181.818 161.766 183.15C161.924 184.482 160.973 185.69 159.641 185.848L149.356 187.071C148.024 187.229 146.816 186.278 146.657 184.946Z" fill="white"/>
<path d="M186.955 166.111L184.18 166.44L183.234 158.479L180.28 158.83L180.006 156.527L188.689 155.495L188.963 157.798L186.008 158.149L186.955 166.111Z" fill="#0051FF"/>
<path d="M173.514 167.708L170.976 168.009L169.756 157.745L172.488 157.42L176.932 162.73L176.959 162.726L176.275 156.97L178.813 156.668L180.033 166.933L177.467 167.238L172.859 161.962L172.832 161.965L173.514 167.708Z" fill="#0051FF"/>
<path d="M169.598 168.173L162.038 169.072L160.818 158.808L168.142 157.937L168.416 160.24L163.866 160.78L164.064 162.445L167.31 162.059L167.567 164.223L164.321 164.609L164.547 166.509L169.332 165.94L169.598 168.173Z" fill="#0051FF"/>
<path d="M151.707 170.3L149.238 170.594L148.018 160.33L151.693 159.893L154.324 166.641L154.352 166.638L155.147 159.482L158.906 159.035L160.126 169.3L157.477 169.614L156.722 163.262L156.694 163.265C156.653 164.339 156.564 165.011 156.436 165.828L155.812 169.812L153.371 170.102L151.859 166.372C151.524 165.568 151.345 165.125 150.963 163.806L150.935 163.809L151.707 170.3Z" fill="#0051FF"/>
<path d="M147.858 170.758L140.298 171.657L139.078 161.393L146.402 160.522L146.675 162.825L142.126 163.365L142.324 165.03L145.57 164.644L145.827 166.808L142.581 167.194L142.807 169.094L147.592 168.525L147.858 170.758Z" fill="#0051FF"/>
<path d="M136.147 172.15L133.373 172.479L132.426 164.518L129.472 164.869L129.198 162.566L137.881 161.534L138.155 163.837L135.2 164.188L136.147 172.15Z" fill="#0051FF"/>
<path d="M125.464 166.599L124.817 169.559L126.773 169.327L125.492 166.595L125.464 166.599ZM123.961 173.6L121.437 173.9L123.846 163.162L126.426 162.855L131.285 172.729L128.483 173.062L127.632 171.222L124.4 171.606L123.961 173.6Z" fill="#0051FF"/>
<path d="M119.35 174.147L116.576 174.477L115.63 166.515L112.675 166.866L112.401 164.563L121.084 163.531L121.358 165.834L118.404 166.185L119.35 174.147Z" fill="#0051FF"/>
<path d="M108.841 175.593C106.497 175.871 104.971 174.984 103.93 173.687L105.832 172.167C106.559 173.079 107.639 173.527 108.707 173.4C109.553 173.3 110.162 172.974 110.086 172.336C110.008 171.684 109.16 171.532 108.118 171.403C106.389 171.172 104.104 171.008 103.827 168.677C103.578 166.583 105.023 165.244 107.353 164.967C109.531 164.708 110.955 165.565 111.892 166.467L110.215 168.213C109.564 167.587 108.494 167.11 107.606 167.215C106.816 167.309 106.445 167.621 106.502 168.106C106.583 168.786 107.417 168.94 108.46 169.069C110.186 169.272 112.494 169.518 112.768 171.82C112.962 173.457 112.004 175.217 108.841 175.593Z" fill="#0051FF"/>
<path d="M121.108 56.5372C121.075 56.0741 120.769 55.6687 120.308 55.5669C117.93 55.042 115.494 54.7935 113.055 54.7935C110.616 54.7935 108.18 55.042 105.802 55.5669C105.341 55.6687 105.035 56.0741 105.002 56.5372C104.861 58.5249 104.375 63.6104 104.594 65.6592C105.095 70.2743 108.433 73.2247 112.441 74.7306C112.638 74.8048 112.835 74.8711 113.043 74.9251C113.046 74.9241 113.052 74.9225 113.055 74.9212C113.059 74.9222 113.064 74.9241 113.068 74.9251C113.276 74.8711 113.473 74.8063 113.67 74.7306C117.688 73.2519 121.015 70.2745 121.517 65.6592C121.735 63.6104 121.249 58.5247 121.108 56.5372" fill="#0051FF"/>
<path d="M178.943 76.5838H211.331C212.313 76.5838 212.805 75.3964 212.11 74.702L173.108 35.7002C172.414 35.0057 171.227 35.4976 171.227 36.4797V68.8674C171.227 73.129 174.681 76.5838 178.943 76.5838Z" fill="#ACD0FF" stroke="#0051FF" stroke-width="2" stroke-linecap="round" stroke-linejoin="round"/>
<rect x="102.992" y="116.736" width="88.2696" height="7.74294" rx="3.87147" fill="#5CA3FF"/>
<rect x="102.992" y="95.0562" width="51.1034" height="7.74294" rx="3.87147" fill="#5CA3FF"/>
<path d="M60.0006 189.985C64.0006 187.485 69.6006 178.785 60.0006 163.985C48.0302 145.531 55.0004 129 72.371 129H74.2493C92.0005 129 98.5901 145.531 86.6198 163.985C77.0198 178.785 82.6198 187.485 86.6198 189.985H60.0006Z" fill="#77B1FF"/>
<path fill-rule="evenodd" clip-rule="evenodd" d="M54.2456 139.221C56.833 132.329 63.3386 128 72.3699 128H74.2481C83.4615 128 89.9764 132.323 92.5174 139.227C95.0326 146.061 93.5474 155.141 87.4576 164.529C82.7543 171.78 81.8553 177.407 82.5058 181.438C83.1588 185.484 85.3876 188.036 87.1486 189.137C87.5269 189.373 87.7028 189.832 87.5799 190.261C87.4569 190.689 87.0647 190.985 86.6186 190.985H59.9994C59.5533 190.985 59.1611 190.689 59.0381 190.261C58.9151 189.832 59.0911 189.373 59.4694 189.137C61.2304 188.036 63.4591 185.484 64.1122 181.438C64.7627 177.407 63.8637 171.78 59.1604 164.529C53.066 155.134 51.681 146.052 54.2456 139.221ZM56.118 139.924C53.8473 145.972 54.9624 154.382 60.8383 163.441C65.735 170.99 66.836 177.113 66.0866 181.757C65.5787 184.904 64.2274 187.321 62.7105 188.985H83.9075C82.3906 187.321 81.0393 184.904 80.5314 181.757C79.782 177.113 80.8829 170.99 85.7796 163.441C91.6602 154.375 92.8653 145.963 90.6405 139.918C88.4414 133.942 82.7859 130 74.2481 130H72.3699C64.0305 130 58.3657 133.937 56.118 139.924Z" fill="#0051FF"/>
<path d="M87.9996 189.984C92.2828 189.984 95.8672 192.976 96.7766 196.984H48.2227C49.1321 192.976 52.7165 189.984 56.9996 189.984H87.9996Z" fill="#DFEEFD"/>
<path fill-rule="evenodd" clip-rule="evenodd" d="M47.2475 196.763C48.258 192.31 52.2393 188.984 56.9996 188.984H87.9997C92.76 188.984 96.7413 192.31 97.7519 196.763C97.8191 197.06 97.7478 197.371 97.5581 197.608C97.3683 197.846 97.0807 197.984 96.7766 197.984H48.2227C47.9186 197.984 47.631 197.846 47.4412 197.608C47.2515 197.371 47.1802 197.06 47.2475 196.763ZM49.5808 195.984H95.4185C94.2317 193.052 91.3563 190.984 87.9997 190.984H56.9996C53.6431 190.984 50.7676 193.052 49.5808 195.984Z" fill="#0051FF"/>
<path d="M42 196.984C38.6863 196.984 36 199.671 36 202.984V211.984C36 215.298 38.6863 217.984 42 217.984H103C106.314 217.984 109 215.298 109 211.984V202.984C109 199.671 106.314 196.984 103 196.984H42Z" fill="#DFEEFD"/>
<path fill-rule="evenodd" clip-rule="evenodd" d="M42 197.984C39.2386 197.984 37 200.223 37 202.984V211.984C37 214.746 39.2386 216.984 42 216.984H103C105.761 216.984 108 214.746 108 211.984V202.984C108 200.223 105.761 197.984 103 197.984H42ZM35 202.984C35 199.118 38.134 195.984 42 195.984H103C106.866 195.984 110 199.118 110 202.984V211.984C110 215.85 106.866 218.984 103 218.984H42C38.134 218.984 35 215.85 35 211.984V202.984Z" fill="#0051FF"/>
<path d="M48 224.984C45.7909 224.984 44 223.194 44 220.984V217.984H101V220.984C101 223.194 99.2091 224.984 97 224.984H48Z" fill="#5CA3FF"/>
<path fill-rule="evenodd" clip-rule="evenodd" d="M43 217.984C43 217.432 43.4477 216.984 44 216.984H101C101.552 216.984 102 217.432 102 217.984V220.984C102 223.746 99.7614 225.984 97 225.984H48C45.2386 225.984 43 223.746 43 220.984V217.984ZM45 218.984V220.984C45 222.641 46.3431 223.984 48 223.984H97C98.6569 223.984 100 222.641 100 220.984V218.984H45Z" fill="#0051FF"/>
</svg>
