<svg width="250" height="250" viewBox="0 0 250 250" fill="none" xmlns="http://www.w3.org/2000/svg">
<rect width="250" height="250" fill="white"/>
<rect x="80.5039" y="38.7451" width="108.69" height="158.679" fill="white" stroke="#004BE2" stroke-width="2"/>
<path d="M80.5039 28.3567C80.5039 23.7414 84.2453 20 88.8606 20H180.837C185.452 20 189.194 23.7414 189.194 28.3567V39.4238H80.5039V28.3567Z" fill="#5FB9FF" stroke="#004BE2" stroke-width="2"/>
<path d="M80.5039 196.747H189.194V207.814C189.194 212.429 185.452 216.171 180.837 216.171H88.8606C84.2454 216.171 80.5039 212.429 80.5039 207.814V196.747Z" fill="#5FB9FF" stroke="#004BE2" stroke-width="2"/>
<mask id="path-4-inside-1_3592_19952" fill="white">
<rect x="120.566" y="27.9277" width="28.5651" height="3.57064" rx="1.55946"/>
</mask>
<rect x="120.566" y="27.9277" width="28.5651" height="3.57064" rx="1.55946" fill="#F874A4" stroke="#004BE2" stroke-width="3.57064" mask="url(#path-4-inside-1_3592_19952)"/>
<path fill-rule="evenodd" clip-rule="evenodd" d="M93 115C104.831 115 111.408 115 115.704 110.704C120 106.408 120 99.8313 120 88C120 76.1687 120 69.5916 115.704 65.2958C111.408 61 104.831 61 93 61C81.1687 61 74.5916 61 70.2958 65.2958C66 69.5916 66 76.1687 66 88C66 99.8313 66 106.408 70.2958 110.704C74.5916 115 81.1687 115 93 115Z" fill="white"/>
<path fill-rule="evenodd" clip-rule="evenodd" d="M70.3873 65.3873C74.7746 61 81.4918 61 93.5751 61C105.658 61 112.376 61 116.763 65.3873C121.15 69.7746 121.15 76.4918 121.15 88.5751C121.15 100.658 121.15 107.376 116.763 111.763C112.376 116.15 105.658 116.15 93.5751 116.15C81.4919 116.15 74.7746 116.15 70.3873 111.763C66 107.376 66 100.658 66 88.5751C66 76.4918 66 69.7746 70.3873 65.3873ZM68.9731 113.177C66.3676 110.572 65.154 107.329 64.5696 103.345C63.9999 99.4623 64 94.6412 64 88.7251V88.4251C64 82.509 63.9999 77.6879 64.5696 73.8049C65.154 69.8217 66.3676 66.5786 68.9731 63.9731C71.5786 61.3676 74.8217 60.154 78.8049 59.5696C82.6879 58.9999 87.509 59 93.4251 59H93.7251C99.6412 59 104.462 58.9999 108.345 59.5696C112.329 60.154 115.572 61.3676 118.177 63.9731C120.783 66.5786 121.996 69.8217 122.581 73.8049C123.15 77.6879 123.15 82.509 123.15 88.4251V88.7252C123.15 94.6412 123.15 99.4623 122.581 103.345C121.996 107.329 120.783 110.572 118.177 113.177M118.177 113.177C115.572 115.783 112.329 116.996 108.345 117.581C104.462 118.15 99.6412 118.15 93.7252 118.15H93.4251C87.509 118.15 82.6879 118.15 78.8049 117.581C74.8217 116.996 71.5786 115.783 68.9731 113.177" fill="#004BE2"/>
<path fill-rule="evenodd" clip-rule="evenodd" d="M70.3873 65.3873C74.7746 61 81.4918 61 93.5751 61C105.658 61 112.376 61 116.763 65.3873C121.15 69.7746 121.15 76.4918 121.15 88.5751C121.15 100.658 121.15 107.376 116.763 111.763C112.376 116.15 105.658 116.15 93.5751 116.15C81.4919 116.15 74.7746 116.15 70.3873 111.763C66 107.376 66 100.658 66 88.5751C66 76.4918 66 69.7746 70.3873 65.3873ZM68.9731 113.177C66.3676 110.572 65.154 107.329 64.5696 103.345C63.9999 99.4623 64 94.6412 64 88.7251V88.4251C64 82.509 63.9999 77.6879 64.5696 73.8049C65.154 69.8217 66.3676 66.5786 68.9731 63.9731C71.5786 61.3676 74.8217 60.154 78.8049 59.5696C82.6879 58.9999 87.509 59 93.4251 59H93.7251C99.6412 59 104.462 58.9999 108.345 59.5696C112.329 60.154 115.572 61.3676 118.177 63.9731C120.783 66.5786 121.996 69.8217 122.581 73.8049C123.15 77.6879 123.15 82.509 123.15 88.4251V88.7252C123.15 94.6412 123.15 99.4623 122.581 103.345C121.996 107.329 120.783 110.572 118.177 113.177M118.177 113.177C115.572 115.783 112.329 116.996 108.345 117.581C104.462 118.15 99.6412 118.15 93.7252 118.15H93.4251C87.509 118.15 82.6879 118.15 78.8049 117.581C74.8217 116.996 71.5786 115.783 68.9731 113.177" fill="#004BE2"/>
<path fill-rule="evenodd" clip-rule="evenodd" d="M116.763 65.3873C112.376 61 105.658 61 93.5751 61C81.4918 61 74.7746 61 70.3873 65.3873C66 69.7746 66 76.4918 66 88.5751C66 100.658 66 107.376 70.3873 111.763C74.7746 116.15 81.4919 116.15 93.5751 116.15C105.658 116.15 112.376 116.15 116.763 111.763C121.15 107.376 121.15 100.658 121.15 88.5751C121.15 76.4918 121.15 69.7746 116.763 65.3873ZM71.8015 66.8015C71.8015 66.8015 71.8015 66.8015 71.8015 66.8015C73.5833 65.0197 75.8925 64.0397 79.3855 63.5272C82.946 63.0049 87.4765 63 93.5751 63C99.6737 63 104.204 63.0049 107.765 63.5272C111.258 64.0397 113.567 65.0197 115.349 66.8015L115.349 66.8015C117.13 68.5833 118.111 70.8925 118.623 74.3855C119.145 77.946 119.15 82.4765 119.15 88.5751C119.15 94.6737 119.145 99.2042 118.623 102.765C118.111 106.258 117.13 108.567 115.349 110.349L115.349 110.349C113.567 112.13 111.258 113.111 107.765 113.623C104.204 114.145 99.6738 114.15 93.5751 114.15C87.4765 114.15 82.946 114.145 79.3855 113.623C75.8925 113.111 73.5833 112.13 71.8015 110.349L71.8015 110.349C70.0197 108.567 69.0397 106.258 68.5272 102.765C68.0049 99.2042 68 94.6737 68 88.5751C68 82.4765 68.0049 77.946 68.5272 74.3855C69.0397 70.8925 70.0197 68.5833 71.8015 66.8015Z" fill="#9BD3FF"/>
<rect x="83.2305" y="78.7266" width="23.6358" height="19.6965" fill="#3FC9FF"/>
<rect width="5.06237" height="19.6965" transform="matrix(-1 0 0 1 82.3828 78.7266)" fill="#3FC9FF"/>
<path d="M97.5684 88.0958C97.5684 85.6407 99.5586 83.6504 102.014 83.6504H108.833V92.5412H102.014C99.5586 92.5412 97.5684 90.5509 97.5684 88.0958Z" fill="#3FC9FF"/>
<path d="M101.287 90.2169C102.193 90.2169 102.928 89.4821 102.928 88.5756C102.928 87.6691 102.193 86.9342 101.287 86.9342C100.38 86.9342 99.6453 87.6691 99.6453 88.5756C99.6453 89.4821 100.38 90.2169 101.287 90.2169Z" fill="#004BE2"/>
<path fill-rule="evenodd" clip-rule="evenodd" d="M76.666 95.9618C76.666 98.1856 78.3846 100.065 80.5967 100.065H103.921C106.134 100.065 107.852 98.1856 107.852 95.9618V93.4997H108.673C109.126 93.4997 109.494 93.1323 109.494 92.679V84.4721C109.494 84.0189 109.126 83.6514 108.673 83.6514H107.852V81.1894C107.852 78.9655 106.134 77.0859 103.921 77.0859H80.5967C78.3846 77.0859 76.666 78.9655 76.666 81.1894V95.9618ZM78.3074 81.1894C78.3074 79.7872 79.3736 78.7273 80.5967 78.7273H81.5901V98.4238H80.5967C79.3736 98.4238 78.3074 97.3639 78.3074 95.9618V81.1894ZM98.0039 88.5756C98.0039 86.7626 99.4736 85.2928 101.287 85.2928H107.852V91.8583H101.287C99.4736 91.8583 98.0039 90.3886 98.0039 88.5756ZM96.3625 88.5756C96.3625 85.856 98.5671 83.6514 101.287 83.6514H106.211V81.1894C106.211 79.7872 105.145 78.7273 103.921 78.7273H83.2315V98.4238H103.921C105.145 98.4238 106.211 97.3639 106.211 95.9618V93.4997H101.287C98.5671 93.4997 96.3625 91.2951 96.3625 88.5756Z" fill="#004BE2"/>
<path fill-rule="evenodd" clip-rule="evenodd" d="M177 166C188.831 166 195.408 166 199.704 161.704C204 157.408 204 150.831 204 139C204 127.169 204 120.592 199.704 116.296C195.408 112 188.831 112 177 112C165.169 112 158.592 112 154.296 116.296C150 120.592 150 127.169 150 139C150 150.831 150 157.408 154.296 161.704C158.592 166 165.169 166 177 166Z" fill="white"/>
<path fill-rule="evenodd" clip-rule="evenodd" d="M154.387 116.387C158.775 112 165.492 112 177.575 112C189.658 112 196.376 112 200.763 116.387C205.15 120.775 205.15 127.492 205.15 139.575C205.15 151.658 205.15 158.376 200.763 162.763C196.376 167.15 189.658 167.15 177.575 167.15C165.492 167.15 158.775 167.15 154.387 162.763C150 158.376 150 151.658 150 139.575C150 127.492 150 120.775 154.387 116.387ZM152.973 164.177C150.368 161.572 149.154 158.329 148.57 154.345C148 150.462 148 145.641 148 139.725V139.425C148 133.509 148 128.688 148.57 124.805C149.154 120.822 150.368 117.579 152.973 114.973C155.579 112.368 158.822 111.154 162.805 110.57C166.688 110 171.509 110 177.425 110H177.725C183.641 110 188.462 110 192.345 110.57C196.329 111.154 199.572 112.368 202.177 114.973C204.783 117.579 205.996 120.822 206.581 124.805C207.15 128.688 207.15 133.509 207.15 139.425V139.725C207.15 145.641 207.15 150.462 206.581 154.345C205.996 158.329 204.783 161.572 202.177 164.177M202.177 164.177C199.572 166.783 196.329 167.996 192.345 168.581C188.462 169.15 183.641 169.15 177.725 169.15H177.425C171.509 169.15 166.688 169.15 162.805 168.581C158.822 167.996 155.579 166.783 152.973 164.177" fill="#004BE2"/>
<path fill-rule="evenodd" clip-rule="evenodd" d="M154.387 116.387C158.775 112 165.492 112 177.575 112C189.658 112 196.376 112 200.763 116.387C205.15 120.775 205.15 127.492 205.15 139.575C205.15 151.658 205.15 158.376 200.763 162.763C196.376 167.15 189.658 167.15 177.575 167.15C165.492 167.15 158.775 167.15 154.387 162.763C150 158.376 150 151.658 150 139.575C150 127.492 150 120.775 154.387 116.387ZM152.973 164.177C150.368 161.572 149.154 158.329 148.57 154.345C148 150.462 148 145.641 148 139.725V139.425C148 133.509 148 128.688 148.57 124.805C149.154 120.822 150.368 117.579 152.973 114.973C155.579 112.368 158.822 111.154 162.805 110.57C166.688 110 171.509 110 177.425 110H177.725C183.641 110 188.462 110 192.345 110.57C196.329 111.154 199.572 112.368 202.177 114.973C204.783 117.579 205.996 120.822 206.581 124.805C207.15 128.688 207.15 133.509 207.15 139.425V139.725C207.15 145.641 207.15 150.462 206.581 154.345C205.996 158.329 204.783 161.572 202.177 164.177M202.177 164.177C199.572 166.783 196.329 167.996 192.345 168.581C188.462 169.15 183.641 169.15 177.725 169.15H177.425C171.509 169.15 166.688 169.15 162.805 168.581C158.822 167.996 155.579 166.783 152.973 164.177" fill="#004BE2"/>
<path fill-rule="evenodd" clip-rule="evenodd" d="M200.763 116.387C196.376 112 189.658 112 177.575 112C165.492 112 158.775 112 154.387 116.387C150 120.775 150 127.492 150 139.575C150 151.658 150 158.376 154.387 162.763C158.775 167.15 165.492 167.15 177.575 167.15C189.658 167.15 196.376 167.15 200.763 162.763C205.15 158.376 205.15 151.658 205.15 139.575C205.15 127.492 205.15 120.775 200.763 116.387ZM155.802 117.802C155.802 117.802 155.802 117.802 155.802 117.802C157.583 116.02 159.893 115.04 163.386 114.527C166.946 114.005 171.476 114 177.575 114C183.674 114 188.204 114.005 191.765 114.527C195.258 115.04 197.567 116.02 199.349 117.801L199.349 117.802C201.13 119.583 202.111 121.893 202.623 125.386C203.145 128.946 203.15 133.476 203.15 139.575C203.15 145.674 203.145 150.204 202.623 153.765C202.111 157.258 201.13 159.567 199.349 161.349L199.349 161.349C197.567 163.13 195.258 164.111 191.765 164.623C188.204 165.145 183.674 165.15 177.575 165.15C171.477 165.15 166.946 165.145 163.386 164.623C159.893 164.111 157.583 163.13 155.802 161.349L155.801 161.349C154.02 159.567 153.04 157.258 152.527 153.765C152.005 150.204 152 145.674 152 139.575C152 133.476 152.005 128.946 152.527 125.386C153.04 121.893 154.02 119.583 155.802 117.802Z" fill="#9BD3FF"/>
<rect x="161.322" y="129.727" width="31.5144" height="19.6965" fill="#3FC9FF"/>
<path d="M163.949 143.679C163.949 143.226 164.316 142.858 164.769 142.858H171.335C171.788 142.858 172.156 143.226 172.156 143.679C172.156 144.132 171.788 144.5 171.335 144.5H164.769C164.316 144.5 163.949 144.132 163.949 143.679Z" fill="#004BE2"/>
<path fill-rule="evenodd" clip-rule="evenodd" d="M160.666 132.189C160.666 129.923 162.503 128.086 164.769 128.086H189.39C191.656 128.086 193.494 129.923 193.494 132.189V146.962C193.494 149.228 191.656 151.065 189.39 151.065H164.769C162.503 151.065 160.666 149.228 160.666 146.962V132.189ZM162.307 132.189C162.307 130.83 163.41 129.727 164.769 129.727H189.39C190.75 129.727 191.852 130.83 191.852 132.189V134.651H162.307V132.189ZM191.852 146.962C191.852 148.322 190.75 149.424 189.39 149.424H164.769C163.41 149.424 162.307 148.322 162.307 146.962V139.576H191.852V146.962Z" fill="#004BE2"/>
<path d="M99.5039 122C99.5039 121.448 99.0562 121 98.5039 121C97.9516 121 97.5039 121.448 97.5039 122H99.5039ZM140.211 142.707C140.602 142.317 140.602 141.683 140.211 141.293L133.847 134.929C133.457 134.538 132.823 134.538 132.433 134.929C132.042 135.319 132.042 135.953 132.433 136.343L138.09 142L132.433 147.657C132.042 148.047 132.042 148.681 132.433 149.071C132.823 149.462 133.457 149.462 133.847 149.071L140.211 142.707ZM118.504 143H139.504V141H118.504V143ZM97.5039 122C97.5039 133.598 106.906 143 118.504 143V141C108.01 141 99.5039 132.493 99.5039 122H97.5039Z" fill="#004BE2"/>
<path d="M168.504 106C168.504 106.552 168.952 107 169.504 107C170.056 107 170.504 106.552 170.504 106L168.504 106ZM127.797 85.2929C127.406 85.6834 127.406 86.3166 127.797 86.7071L134.161 93.0711C134.551 93.4616 135.184 93.4616 135.575 93.0711C135.966 92.6805 135.966 92.0474 135.575 91.6569L129.918 86L135.575 80.3431C135.966 79.9526 135.966 79.3195 135.575 78.9289C135.184 78.5384 134.551 78.5384 134.161 78.9289L127.797 85.2929ZM149.504 85L128.504 85L128.504 87L149.504 87L149.504 85ZM170.504 106C170.504 94.402 161.102 85 149.504 85L149.504 87C159.997 87 168.504 95.5066 168.504 106L170.504 106Z" fill="#004BE2"/>
<rect width="31.8354" height="9.1833" rx="2.33942" transform="matrix(-1 0 0 1 91.7969 174.183)" fill="#5FB9FF" stroke="#004BE2" stroke-width="2" stroke-linejoin="round"/>
<rect width="31.8354" height="9.1833" rx="2.33942" transform="matrix(-1 0 0 1 87.5117 183.367)" fill="#5FB9FF" stroke="#004BE2" stroke-width="2" stroke-linejoin="round"/>
<rect width="31.8354" height="9.1833" rx="2.33942" transform="matrix(-1 0 0 1 87.5117 165)" fill="#5FB9FF" stroke="#004BE2" stroke-width="2" stroke-linejoin="round"/>
<rect width="31.8354" height="9.1833" rx="2.33942" transform="matrix(-1 0 0 1 87.5117 192.549)" fill="#5FB9FF" stroke="#004BE2" stroke-width="2" stroke-linejoin="round"/>
<rect width="31.8354" height="9.1833" rx="2.33942" transform="matrix(-1 0 0 1 87.5117 201.733)" fill="#5FB9FF" stroke="#004BE2" stroke-width="2" stroke-linejoin="round"/>
<rect width="31.8354" height="9.1833" rx="2.33942" transform="matrix(-1 0 0 1 87.5117 210.916)" fill="#5FB9FF" stroke="#004BE2" stroke-width="2" stroke-linejoin="round"/>
<rect width="31.8354" height="9.1833" rx="2.33942" transform="matrix(-1 0 0 1 113.225 210.916)" fill="#5FB9FF" stroke="#004BE2" stroke-width="2" stroke-linejoin="round"/>
<rect width="31.8354" height="9.1833" rx="2.33942" transform="matrix(-1 0 0 1 113.225 192.549)" fill="#5FB9FF" stroke="#004BE2" stroke-width="2" stroke-linejoin="round"/>
<path d="M71.358 192.115C73.099 195.543 73.7842 199.411 73.3268 203.229C72.8695 207.047 71.2902 210.644 68.7886 213.564C66.2871 216.485 62.9757 218.599 59.2731 219.637C55.5706 220.676 51.6433 220.592 47.9878 219.399C44.3324 218.205 41.113 215.954 38.7368 212.93C36.3606 209.907 34.9344 206.248 34.6384 202.414C34.3425 198.58 35.1901 194.743 37.0742 191.391C38.9582 188.039 41.794 185.32 45.223 183.58C49.8206 181.247 55.1565 180.836 60.0575 182.436C64.9584 184.037 69.0232 187.518 71.358 192.115Z" fill="#5FB9FF" stroke="#004BE2" stroke-width="2" stroke-linejoin="round"/>
<path d="M65.8202 202.336C66.0994 200.001 65.6799 197.636 64.6148 195.54C63.1876 192.731 60.7035 190.604 57.7085 189.626C54.7135 188.648 51.4527 188.9 48.6427 190.325C46.546 191.388 44.8117 193.05 43.6592 195.099C42.5068 197.149 41.9881 199.493 42.1687 201.837C42.3492 204.181 43.221 206.42 44.6736 208.268C46.1261 210.117 48.0943 211.493 50.3294 212.223C52.5642 212.952 54.9654 213.003 57.2292 212.368C59.4929 211.733 61.5174 210.44 63.0466 208.655C64.5759 206.869 65.5411 204.67 65.8202 202.336Z" fill="#9BD3FF" stroke="#004BE2" stroke-width="2"/>
<rect width="31.8354" height="9.1833" rx="2.33942" transform="matrix(-1 0 0 1 116.898 201.733)" fill="#5FB9FF" stroke="#004BE2" stroke-width="2" stroke-linejoin="round"/>
</svg>
