<svg width="290" height="80" viewBox="0 0 290 80" fill="none" xmlns="http://www.w3.org/2000/svg">
<rect x="0.5" y="0.5" width="289" height="79" rx="4.5" stroke="#7B61FF" stroke-dasharray="10 5"/>
<g clip-path="url(#clip0_1044_1423)">
<path d="M40 60C51.0457 60 60 51.0457 60 40C60 28.9543 51.0457 20 40 20C28.9543 20 20 28.9543 20 40C20 51.0457 28.9543 60 40 60Z" fill="white"/>
<path d="M30.8101 47.826L25.8584 54.1414C29.4775 57.761 34.4769 60 39.9999 60C48.2678 60 55.3627 54.9821 58.4085 47.826H30.8101Z" fill="#FFDA2C"/>
<path d="M58.4396 32.2463C55.4108 25.0517 48.2958 20 39.9999 20C34.4769 20 29.4775 22.239 25.8584 25.8585L30.867 32.2463H58.4396Z" fill="#0A6A30"/>
<path d="M24.3477 34.7102V45.2174H59.3109C59.7595 43.554 59.9998 41.8053 59.9998 40C59.9998 38.1686 59.7531 36.3952 59.2919 34.7102H24.3477Z" fill="#0B0F14"/>
<path d="M25.8578 25.8578C18.0474 33.6683 18.0474 46.3316 25.8578 54.1422C29.0854 50.9146 32.1896 47.8104 40 40L25.8578 25.8578Z" fill="#F93939"/>
<path d="M28.0943 34.7826L29.3892 38.7682H33.5803L30.1898 41.2317L31.4847 45.2174L28.0943 42.7541L24.7037 45.2174L25.9989 41.2317L22.6084 38.7682H26.7992L28.0943 34.7826Z" fill="#FFDA2C"/>
<path d="M24.3057 40H31.8857V43.4783H24.3057V40Z" fill="white"/>
<path d="M33.3205 36.0124L32.0908 34.7826L28.0948 38.7785L24.0989 34.7826L22.8691 36.0124L26.8686 40.0048L22.8691 44.0043L24.0989 45.2174L28.0948 41.2287L32.0908 45.2174L33.3205 44.0043L29.3211 40.0048L33.3205 36.0124Z" fill="#0B0F14"/>
</g>
<g clip-path="url(#clip1_1044_1423)">
<path d="M119 50C127.284 50 134 43.2843 134 35C134 26.7157 127.284 20 119 20C110.716 20 104 26.7157 104 35C104 43.2843 110.716 50 119 50Z" fill="white"/>
<path d="M112.107 40.8696L108.394 45.6062C111.108 48.3208 114.857 50.0001 119 50.0001C125.201 50.0001 130.522 46.2366 132.806 40.8696H112.107Z" fill="#FFDA2C"/>
<path d="M132.829 29.1847C130.558 23.7888 125.222 20 119 20C114.857 20 111.108 21.6792 108.394 24.3939L112.15 29.1847H132.829Z" fill="#0A6A30"/>
<path d="M107.261 31.0326V38.913H133.483C133.82 37.6655 134 36.3539 134 35C134 33.6264 133.815 32.2963 133.469 31.0326H107.261Z" fill="#0B0F14"/>
<path d="M108.393 24.3933C102.536 30.2512 102.536 39.7487 108.393 45.6066C110.814 43.1859 113.142 40.8578 119 34.9999L108.393 24.3933Z" fill="#F93939"/>
<path d="M110.07 31.0869L111.042 34.0761H114.185L111.642 35.9237L112.613 38.913L110.07 37.0655L107.528 38.913L108.499 35.9237L105.956 34.0761H109.099L110.07 31.0869Z" fill="#FFDA2C"/>
<path d="M107.229 35H112.914V37.6087H107.229V35Z" fill="white"/>
<path d="M113.99 32.0093L113.068 31.0869L110.071 34.0839L107.074 31.0869L106.151 32.0093L109.151 35.0036L106.151 38.0032L107.074 38.913L110.071 35.9215L113.068 38.913L113.99 38.0032L110.99 35.0036L113.99 32.0093Z" fill="#0B0F14"/>
</g>
<g clip-path="url(#clip2_1044_1423)">
<path d="M192 48C199.732 48 206 41.732 206 34C206 26.268 199.732 20 192 20C184.268 20 178 26.268 178 34C178 41.732 184.268 48 192 48Z" fill="white"/>
<path d="M185.567 39.4783L182.101 43.899C184.634 46.4327 188.134 48 192 48C197.787 48 202.754 44.4875 204.886 39.4783H185.567Z" fill="#FFDA2C"/>
<path d="M204.907 28.5724C202.787 23.5362 197.807 20 192 20C188.134 20 184.634 21.5673 182.101 24.101L185.607 28.5724H204.907Z" fill="#0A6A30"/>
<path d="M181.044 30.2971V37.6522H205.518C205.832 36.4878 206 35.2637 206 34C206 32.718 205.828 31.4766 205.505 30.2971H181.044Z" fill="#0B0F14"/>
<path d="M182.1 24.1005C176.633 29.5678 176.633 38.4321 182.1 43.8995C184.36 41.6402 186.533 39.4673 192 34L182.1 24.1005Z" fill="#F93939"/>
<path d="M183.666 30.3478L184.573 33.1377H187.506L185.133 34.8621L186.04 37.6522L183.666 35.9278L181.293 37.6522L182.2 34.8621L179.826 33.1377H182.76L183.666 30.3478Z" fill="#FFDA2C"/>
<path d="M181.014 34H186.32V36.4348H181.014V34Z" fill="white"/>
<path d="M187.324 31.2087L186.463 30.3478L183.666 33.1449L180.869 30.3478L180.008 31.2087L182.807 34.0033L180.008 36.803L180.869 37.6522L183.666 34.86L186.463 37.6522L187.324 36.803L184.524 34.0033L187.324 31.2087Z" fill="#0B0F14"/>
</g>
<g clip-path="url(#clip3_1044_1423)">
<path d="M260 40C265.523 40 270 35.5228 270 30C270 24.4772 265.523 20 260 20C254.477 20 250 24.4772 250 30C250 35.5228 254.477 40 260 40Z" fill="white"/>
<path d="M255.406 33.9131L252.93 37.0708C254.739 38.8805 257.239 40 260 40C264.134 40 267.682 37.4911 269.205 33.9131H255.406Z" fill="#FFDA2C"/>
<path d="M269.22 26.1232C267.706 22.5259 264.148 20 260 20C257.239 20 254.739 21.1195 252.93 22.9293L255.434 26.1232H269.22Z" fill="#0A6A30"/>
<path d="M252.174 27.3551V32.6087H269.655C269.88 31.777 270 30.9026 270 30C270 29.0843 269.877 28.1976 269.646 27.3551H252.174Z" fill="#0B0F14"/>
<path d="M252.929 22.929C249.024 26.8342 249.024 33.1659 252.929 37.0711C254.543 35.4573 256.095 33.9053 260 30L252.929 22.929Z" fill="#F93939"/>
<path d="M254.048 27.3914L254.695 29.3842H256.791L255.095 30.6159L255.743 32.6088L254.048 31.3771L252.352 32.6088L253 30.6159L251.305 29.3842H253.4L254.048 27.3914Z" fill="#FFDA2C"/>
<path d="M252.152 30H255.942V31.7391H252.152V30Z" fill="white"/>
<path d="M256.66 28.0062L256.045 27.3912L254.047 29.3892L252.049 27.3912L251.435 28.0062L253.434 30.0023L251.435 32.0021L252.049 32.6087L254.047 30.6143L256.045 32.6087L256.66 32.0021L254.661 30.0023L256.66 28.0062Z" fill="#0B0F14"/>
</g>
<defs>
<clipPath id="clip0_1044_1423">
<rect width="40" height="40" fill="white" transform="translate(20 20)"/>
</clipPath>
<clipPath id="clip1_1044_1423">
<rect width="30" height="30" fill="white" transform="translate(104 20)"/>
</clipPath>
<clipPath id="clip2_1044_1423">
<rect width="28" height="28" fill="white" transform="translate(178 20)"/>
</clipPath>
<clipPath id="clip3_1044_1423">
<rect width="20" height="20" fill="white" transform="translate(250 20)"/>
</clipPath>
</defs>
</svg>
