<svg width="329" height="324" viewBox="0 0 329 324" fill="none" xmlns="http://www.w3.org/2000/svg">
<path d="M108.29 98.23H220.6C275.99 98.23 320.89 145.22 320.89 198.52C320.89 251.82 279.3 295.39 226.81 298.6L188.98 298.81H108.29C52.9 298.81 8 253.91 8 198.52C8 143.13 52.9 98.23 108.29 98.23Z" fill="white" stroke="#00008C" stroke-width="15"/>
<path d="M226.82 297.58C250.14 296.15 271.33 286.78 287.64 272.09V272.08C270.16 247.06 246.98 226.92 164.46 226.92C81.94 226.92 58.76 247.07 41.25 272.08C59.01 288.07 82.52 297.8 108.29 297.8H188.98L226.82 297.58Z" fill="white"/>
<path d="M138.849 186.18V239.71C138.849 245.05 143.179 249.37 148.509 249.37H181.829C187.169 249.37 191.489 245.04 191.489 239.71V186.18H138.839H138.849Z" fill="white"/>
<path d="M190.31 237.41V248.81H137.67V237.58C127.53 239.76 121 243.15 121 246.97C121 253.55 140.42 258.89 164.37 258.89C188.32 258.89 207.74 253.55 207.74 246.97C207.74 243.06 200.89 239.59 190.3 237.42L190.31 237.41Z" fill="white"/>
<path d="M143.979 239.72V214L133.719 212.97V239.72C133.719 242.18 134.329 244.5 135.399 246.54L144.389 241.59C144.129 241.02 143.979 240.39 143.979 239.72Z" fill="#00008C"/>
<path d="M186.368 217.04V239.72C186.368 242.22 184.338 244.26 181.838 244.26H148.518C146.688 244.26 145.108 243.16 144.398 241.59L135.408 246.54C137.878 251.27 142.828 254.51 148.518 254.51H181.838C189.998 254.51 196.628 247.87 196.628 239.72V215.24L186.368 217.04Z" fill="#00008C"/>
<path d="M87 281C87 277.686 89.6863 275 93 275H128C131.314 275 134 277.686 134 281V295C134 298.314 131.314 301 128 301H93C89.6863 301 87 298.314 87 295V281Z" fill="white"/>
<path d="M82 281C82 274.925 86.9249 270 93 270H128C134.075 270 139 274.925 139 281H129C129 280.448 128.552 280 128 280H93C92.4477 280 92 280.448 92 281H82ZM134 301H87H134ZM93 301C86.9249 301 82 296.075 82 290V281C82 274.925 86.9249 270 93 270V280C92.4477 280 92 280.448 92 281V295C92 298.314 92.4477 301 93 301ZM128 270C134.075 270 139 274.925 139 281V290C139 296.075 134.075 301 128 301C128.552 301 129 298.314 129 295V281C129 280.448 128.552 280 128 280V270Z" fill="#00008C"/>
<path fill-rule="evenodd" clip-rule="evenodd" d="M252.515 117.482C252.515 176.696 198.507 222 164.704 222C130.9 222 76.8926 176.696 76.8926 117.482C76.8926 58.2673 107.653 52.5 154.719 52.5C201.784 52.5 252.515 58.2673 252.515 117.482Z" fill="white" stroke="#00008C" stroke-width="11.99" stroke-linejoin="round"/>
<path d="M192.69 222.72C256.85 227.14 276.48 247.14 291.85 269.15L291.84 269.16L294.44 272.88L291.07 275.91C273.94 291.33 251.93 300.76 228.93 302.58L183.85 302.93H108.29C82.2202 302.93 57.1902 293.33 37.8202 275.9L34.4502 272.86L37.0502 269.14C52.5702 246.96 72.4202 226.82 137.78 222.61L137.54 232.9C81.2002 236.7 61.8602 252.85 48.1702 271.26C65.1202 285.1 86.3002 292.67 108.3 292.67H194.12L224.73 292.57L226.51 292.46C246.33 291.24 265.41 283.75 280.73 271.26C267.13 252.94 247.92 236.87 192.24 232.97L192.69 222.72Z" fill="#00008C"/>
<path d="M81.7379 145C73.8856 130.453 64.5366 94.2937 73.9594 66.0312C86.3741 28.7951 111.719 10 160.408 10.1453C162.442 10.1513 164.485 10 166.544 10C168.449 10 170.341 10.0489 172.219 10.1453C213.719 12.2749 246.394 32.491 255.416 66.0312C262.343 91.7826 252.919 124.219 248.993 136.688L220.719 56.5C132.719 5.5 98.7185 54.5 98.7185 54.5C94.7922 68.3542 91.1607 128.375 81.7379 145Z" fill="white"/>
<path d="M166.544 10C168.449 10 170.341 10.0489 172.219 10.1453M166.544 10L172.219 10.1453M166.544 10C164.485 10 162.442 10.1513 160.408 10.1453C111.719 10 86.3741 28.7951 73.9594 66.0312C64.5366 94.2937 73.8856 130.453 81.7379 145C91.1607 128.375 94.7922 68.3542 98.7185 54.5C98.7185 54.5 132.719 5.5 220.719 56.5L248.993 136.688C252.919 124.219 262.343 91.7826 255.416 66.0312C246.394 32.491 213.719 12.2749 172.219 10.1453" stroke="#00008C" stroke-width="11.99" stroke-linejoin="round"/>
<path d="M128.719 20.5L101.219 35L82.2188 59.5L101.219 64L118.219 66.5L140.719 76.5L156.219 92L170.219 108L183.219 113L247.219 110.5L240.719 71.5L235.219 55.5L224.719 47.5L200.719 23L165.719 18L128.719 20.5Z" fill="white"/>
<path d="M73.7188 70.9852C105.049 56.3177 142.406 67.2524 160.866 96.4941C167.628 107.007 179.24 113.402 191.745 113.5H258.719" stroke="#00008C" stroke-width="11" stroke-linejoin="round"/>
<path d="M185.797 85.601C171.835 62.2284 147.063 47.1752 119.64 45.3994L185.797 85.601Z" fill="white"/>
<path d="M185.797 85.601C171.835 62.2284 147.063 47.1752 119.64 45.3994" stroke="#00008C" stroke-width="11" stroke-linecap="round" stroke-linejoin="round"/>
<rect x="246" y="97" width="25" height="65" rx="12.5" fill="#00008C" stroke="#00008C" stroke-width="11.99" stroke-linejoin="round"/>
<rect x="191" y="175" width="16" height="25" rx="8" transform="rotate(90 191 175)" fill="#00008C" stroke="#00008C" stroke-width="11.99" stroke-linejoin="round"/>
<rect x="57" y="97" width="25" height="65" rx="12.5" fill="#00008C" stroke="#00008C" stroke-width="11.99" stroke-linejoin="round"/>
<path d="M251 145L215.773 175.768C212.979 178.208 209.563 179.823 205.904 180.433L178.5 185" stroke="#00008C" stroke-width="11.99" stroke-linejoin="round"/>
<path d="M70.5 103V96C70.5 46.2944 110.794 6 160.5 6H173.5C223.206 6 263.5 46.2944 263.5 96V103" stroke="#00008C" stroke-width="11.99" stroke-linejoin="round"/>
</svg>
