<svg width="137" height="191" viewBox="0 0 137 191" fill="none" xmlns="http://www.w3.org/2000/svg">
<path d="M12.4338 189.331H124.374C130.462 189.331 135.397 184.396 135.397 178.308V48.3305C135.397 45.4069 134.236 42.6031 132.168 40.5358L95.8602 4.22772C93.7929 2.16042 90.9891 0.999023 88.0655 0.999023H12.4338C6.34577 0.999023 1.4104 5.93437 1.4104 12.0225V178.308C1.4104 184.396 6.34576 189.331 12.4338 189.331Z" fill="white" stroke="#0051FF" stroke-width="2" stroke-linecap="round" stroke-linejoin="round"/>
<path d="M42.7409 23.7173C42.708 23.2543 42.4024 22.8489 41.9412 22.7471C39.5627 22.2221 37.1275 21.9736 34.6881 21.9736C32.2487 21.9736 29.8133 22.2221 27.4351 22.7471C26.9739 22.8489 26.6682 23.2543 26.6354 23.7173C26.4944 25.7051 26.0085 30.7905 26.2266 32.8394C26.7284 37.4545 30.0661 40.4049 34.0737 41.9108C34.2712 41.9849 34.4679 42.0513 34.6759 42.1053C34.6794 42.1042 34.6847 42.1027 34.6884 42.1014C34.6921 42.1024 34.6974 42.1042 34.7008 42.1053C34.9089 42.0513 35.1059 41.9865 35.3031 41.9108C39.321 40.4321 42.6484 37.4547 43.1502 32.8394C43.3683 30.7905 42.8822 25.7048 42.7414 23.7173" fill="#0051FF"/>
<path d="M100.352 43.7645H132.739C133.721 43.7645 134.213 42.5771 133.519 41.8826L94.5171 2.88084C93.8226 2.18641 92.6353 2.67824 92.6353 3.66032V36.048C92.6353 40.3097 96.09 43.7645 100.352 43.7645Z" fill="#ACD0FF" stroke="#0051FF" stroke-width="2" stroke-linecap="round" stroke-linejoin="round"/>
</svg>
