<svg width="93" height="92" viewBox="0 0 93 92" fill="none" xmlns="http://www.w3.org/2000/svg">
<rect width="91.4118" height="91.4118" transform="translate(0.824219)" fill="white"/>
<path d="M44.625 49.9727L59.1366 53.7815C61.4671 54.2223 63.5726 55.458 65.0937 57.2778C66.6149 59.0976 67.4575 61.3888 67.4779 63.7606V81.8906" stroke="#0051FF" stroke-width="3.80882" stroke-linecap="round" stroke-linejoin="round"/>
<path d="M32.282 61.3218L26.9495 56.6369C25.9091 55.6937 24.5445 55.1888 23.1407 55.2277C22.4364 55.2155 21.7368 55.3439 21.0828 55.6055C20.4287 55.8671 19.8335 56.2566 19.3319 56.7512C18.8447 57.2235 18.4573 57.7888 18.1928 58.4136C17.9282 59.0385 17.792 59.7101 17.792 60.3886C17.792 61.0672 17.9282 61.7388 18.1928 62.3636C18.4573 62.9885 18.8447 63.5538 19.3319 64.0261L36.8525 81.8894" stroke="#0051FF" stroke-width="3.80882" stroke-linecap="round" stroke-linejoin="round"/>
<path d="M38.9116 7.61719L38.9116 19.0437" stroke="#0051FF" stroke-width="3.80882" stroke-linecap="round" stroke-linejoin="round"/>
<path d="M19.8677 15.2354L27.9474 23.3151" stroke="#0051FF" stroke-width="3.80882" stroke-linecap="round" stroke-linejoin="round"/>
<path d="M58.417 15.2354L50.3373 23.3151" stroke="#0051FF" stroke-width="3.80882" stroke-linecap="round" stroke-linejoin="round"/>
<path d="M54.147 32.375H65.5734" stroke="#0051FF" stroke-width="3.80882" stroke-linecap="round" stroke-linejoin="round"/>
<path d="M12.25 32.375H23.6765" stroke="#0051FF" stroke-width="3.80882" stroke-linecap="round" stroke-linejoin="round"/>
<path d="M33.1982 62.8458V34.2796C33.1982 31.1243 35.7561 28.5664 38.9115 28.5664V28.5664C42.0668 28.5664 44.6247 31.1243 44.6247 34.2796V55.2282" stroke="#0051FF" stroke-width="3.80882" stroke-linecap="round"/>
</svg>
